{
.appVersion = "895";
classes = (
{
automatic = 1;

glyphs = (
{
glyphname = .notdef;
lastChange = "2016-06-30 19:39:37 +0000";
layers = (
{
layerId = "C039C1CC-9A8C-45EF-8573-4C10F390742F";
paths = (
{
closed = 1;
nodes = (
"0 -512 LINE",
"1110 -512 LINE",
"1659 2048 LINE",
"547 2048 LINE"
);
},
{
closed = 1;
nodes = (
"612 1966 LINE",
"1561 1966 LINE",
"1044 -430 LINE",
"96 -430 LINE"
);
},
{
closed = 1;
nodes = (
"961 1094 CURVE SMOOTH",
"961 889 OFFCURVE",
"713 842 OFFCURVE",
"713 586 CURVE",
"799 586 LINE",
"799 829 OFFCURVE",
"1139 874 OFFCURVE",
"1139 1100 CURVE SMOOTH",
"1139 1212 OFFCURVE",
"1055 1282 OFFCURVE",
"911 1282 CURVE SMOOTH",
"758 1282 OFFCURVE",
"641 1186 OFFCURVE",
"641 1063 CURVE SMOOTH",
"641 997 OFFCURVE",
"678 952 OFFCURVE",
"735 952 CURVE SMOOTH",
"766 952 OFFCURVE",
"803 963 OFFCURVE",
"834 993 CURVE",
"834 1001 LINE",
"797 1020 OFFCURVE",
"772 1061 OFFCURVE",
"772 1104 CURVE SMOOTH",
"772 1167 OFFCURVE",
"815 1212 OFFCURVE",
"872 1212 CURVE SMOOTH",
"928 1212 OFFCURVE",
"961 1169 OFFCURVE"
);
},
{
closed = 1;
nodes = (
"809 389 CURVE SMOOTH",
"809 438 OFFCURVE",
"776 471 OFFCURVE",
"727 471 CURVE SMOOTH",
"676 471 OFFCURVE",
"645 438 OFFCURVE",
"645 389 CURVE SMOOTH",
"645 338 OFFCURVE",
"676 307 OFFCURVE",
"727 307 CURVE SMOOTH",
"776 307 OFFCURVE",
"809 338 OFFCURVE"
);
}
);
width = 1659;
}
);
},
{
glyphname = exclam;
lastChange = "2016-06-30 17:42:54 +0000";
layers = (
{
layerId = "C039C1CC-9A8C-45EF-8573-4C10F390742F";
paths = (
{
closed = 1;
nodes = (
"375 473 LINE",
"672 1540 LINE",
"357 1497 LINE",
"201 473 LINE"
);
},
{
closed = 1;
nodes = (
"392 152 CURVE SMOOTH",
"392 242 OFFCURVE",
"320 313 OFFCURVE",
"230 313 CURVE SMOOTH",
"140 313 OFFCURVE",
"66 242 OFFCURVE",
"66 152 CURVE SMOOTH",
"66 61 OFFCURVE",
"140 -12 OFFCURVE",
"230 -12 CURVE SMOOTH",
"320 -12 OFFCURVE",
"392 61 OFFCURVE"
);
}
);
width = 526;
}
);
unicode = 0021;
},
{
glyphname = numbersign;
lastChange = "2016-06-30 17:42:54 +0000";
layers = (
{
layerId = "C039C1CC-9A8C-45EF-8573-4C10F390742F";
paths = (
{
closed = 1;
nodes = (
"677 1379 LINE",
"527 1379 LINE",
"260 58 LINE",
"409 58 LINE"
);
},
{
closed = 1;
nodes = (
"1091 1379 LINE",
"941 1379 LINE",
"674 58 LINE",
"823 58 LINE"
);
},
{
closed = 1;
nodes = (
"210 850 LINE",
"1183 850 LINE",
"1214 1008 LINE",
"241 1008 LINE"
);
},
{
closed = 1;
nodes = (
"122 440 LINE",
"1095 440 LINE",
"1126 598 LINE",
"153 598 LINE"
);
}
);
width = 1350;
}
);
unicode = 0023;
},
{
glyphname = ampersand;
lastChange = "2016-06-30 17:42:54 +0000";
layers = (
{
layerId = "C039C1CC-9A8C-45EF-8573-4C10F390742F";
paths = (
{
closed = 1;
nodes = (
"995 598 LINE",
"975 342 OFFCURVE",
"778 160 OFFCURVE",
"586 160 CURVE SMOOTH",
"461 160 OFFCURVE",
"385 244 OFFCURVE",
"385 385 CURVE SMOOTH",
"385 598 OFFCURVE",
"555 815 OFFCURVE",
"752 852 CURVE",
"752 860 LINE",
"623 893 OFFCURVE",
"545 991 OFFCURVE",
"545 1128 CURVE SMOOTH",
"545 1284 OFFCURVE",
"645 1423 OFFCURVE",
"756 1423 CURVE SMOOTH",
"821 1423 OFFCURVE",
"862 1376 OFFCURVE",
"862 1300 CURVE SMOOTH",
"862 1229 OFFCURVE",
"827 1161 OFFCURVE",
"778 1130 CURVE",
"809 1090 OFFCURVE",
"852 1067 OFFCURVE",
"903 1067 CURVE SMOOTH",
"995 1067 OFFCURVE",
"1059 1145 OFFCURVE",
"1059 1257 CURVE SMOOTH",
"1059 1421 OFFCURVE",
"926 1540 OFFCURVE",
"739 1540 CURVE SMOOTH",
"494 1540 OFFCURVE",
"291 1343 OFFCURVE",
"291 1118 CURVE SMOOTH",
"291 1001 OFFCURVE",
"321 930 OFFCURVE",
"408 858 CURVE",
"408 850 LINE",
"197 788 OFFCURVE",
"29 557 OFFCURVE",
"29 328 CURVE SMOOTH",
"29 102 OFFCURVE",
"188 -37 OFFCURVE",
"446 -37 CURVE SMOOTH",
"805 -37 OFFCURVE",
"1061 215 OFFCURVE",
"1083 592 CURVE"
);
},
{
closed = 1;
nodes = (
"1162 558 CURVE SMOOTH",
"1284 598 OFFCURVE",
"1379 715 OFFCURVE",
"1345 830 CURVE SMOOTH",
"1337 857 OFFCURVE",
"1323 883 OFFCURVE",
"1301 905 CURVE",
"1296 905 LINE",
"1266 863 OFFCURVE",
"1193 812 OFFCURVE",
"1128 790 CURVE SMOOTH",
"1045 772 OFFCURVE",
"943 779 OFFCURVE",
"854 752 CURVE SMOOTH",
"742 716 OFFCURVE",
"655 614 OFFCURVE",
"690 495 CURVE SMOOTH",
"698 470 OFFCURVE",
"709 444 OFFCURVE",
"728 422 CURVE",
"733 423 LINE",
"763 468 OFFCURVE",
"822 508 OFFCURVE",
"894 533 CURVE SMOOTH",
"994 560 OFFCURVE",
"1064 532 OFFCURVE"
);
}
);
width = 1397;
}
);
unicode = 0026;
},
{
glyphname = parenleft;
lastChange = "2016-07-06 11:49:12 +0000";
layers = (
{
layerId = "C039C1CC-9A8C-45EF-8573-4C10F390742F";
paths = (
{
closed = 1;
nodes = (
"1005 1563 LINE",
"549 1341 OFFCURVE",
"250 856 OFFCURVE",
"250 336 CURVE SMOOTH",
"250 14 OFFCURVE",
"364 -279 OFFCURVE",
"569 -485 CURVE",
"637 -426 LINE",
"536 -252 OFFCURVE",
"483 -18 OFFCURVE",
"483 242 CURVE SMOOTH",
"483 776 OFFCURVE",
"710 1290 OFFCURVE",
"1032 1481 CURVE"
);
}
);
width = 838;
}
);
unicode = 0028;
},
{
glyphname = parenright;
lastChange = "2016-06-30 17:42:54 +0000";
layers = (
{
layerId = "C039C1CC-9A8C-45EF-8573-4C10F390742F";
paths = (
{
closed = 1;
nodes = (
"-113 -485 LINE",
"343 -264 OFFCURVE",
"642 221 OFFCURVE",
"642 741 CURVE SMOOTH",
"642 1063 OFFCURVE",
"528 1356 OFFCURVE",
"323 1563 CURVE",
"255 1503 LINE",
"356 1329 OFFCURVE",
"409 1096 OFFCURVE",
"409 836 CURVE SMOOTH",
"409 301 OFFCURVE",
"182 -213 OFFCURVE",
"-140 -403 CURVE"
);
}
);
width = 846;
}
);
unicode = 0029;
},
{
glyphname = asterisk;
lastChange = "2016-06-30 17:42:54 +0000";
layers = (
{
layerId = "C039C1CC-9A8C-45EF-8573-4C10F390742F";
paths = (
{
closed = 1;
nodes = (
"634 1550 LINE",
"599 1560 OFFCURVE",
"570 1566 OFFCURVE",
"546 1566 CURVE SMOOTH",
"474 1566 OFFCURVE",
"437 1523 OFFCURVE",
"437 1437 CURVE SMOOTH",
"437 1388 OFFCURVE",
"450 1327 OFFCURVE",
"472 1253 CURVE",
"265 1435 LINE",
"206 1386 OFFCURVE",
"189 1356 OFFCURVE",
"189 1310 CURVE SMOOTH",
"189 1245 OFFCURVE",
"234 1196 OFFCURVE",
"437 1161 CURVE",
"177 1077 LINE",
"175 1069 OFFCURVE",
"175 1059 OFFCURVE",
"175 1050 CURVE SMOOTH",
"175 983 OFFCURVE",
"216 934 OFFCURVE",
"277 934 CURVE SMOOTH",
"333 934 OFFCURVE",
"392 968 OFFCURVE",
"472 1067 CURVE",
"421 770 LINE",
"456 760 OFFCURVE",
"484 753 OFFCURVE",
"507 753 CURVE SMOOTH",
"581 753 OFFCURVE",
"617 796 OFFCURVE",
"617 882 CURVE SMOOTH",
"617 932 OFFCURVE",
"603 993 OFFCURVE",
"583 1067 CURVE",
"789 884 LINE",
"849 934 OFFCURVE",
"863 964 OFFCURVE",
"863 1009 CURVE SMOOTH",
"863 1075 OFFCURVE",
"818 1124 OFFCURVE",
"617 1161 CURVE",
"882 1247 LINE",
"884 1255 OFFCURVE",
"886 1265 OFFCURVE",
"886 1274 CURVE SMOOTH",
"886 1341 OFFCURVE",
"845 1390 OFFCURVE",
"783 1390 CURVE SMOOTH",
"726 1390 OFFCURVE",
"663 1351 OFFCURVE",
"583 1253 CURVE"
);
}
);
width = 1055;
}
);
unicode = 002A;
},
{
glyphname = comma;
lastChange = "2016-06-30 17:42:54 +0000";
layers = (
{
layerId = "C039C1CC-9A8C-45EF-8573-4C10F390742F";
paths = (
{
closed = 1;
nodes = (
"84 -258 CURVE",
"252 -143 OFFCURVE",
"350 41 OFFCURVE",
"350 162 CURVE SMOOTH",
"350 252 OFFCURVE",
"301 317 OFFCURVE",
"211 317 CURVE SMOOTH",
"121 317 OFFCURVE",
"49 244 OFFCURVE",
"49 154 CURVE SMOOTH",
"49 86 OFFCURVE",
"90 39 OFFCURVE",
"145 4 CURVE SMOOTH",
"164 -8 OFFCURVE",
"172 -23 OFFCURVE",
"172 -37 CURVE SMOOTH",
"172 -113 OFFCURVE",
"66 -150 OFFCURVE",
"66 -223 CURVE SMOOTH",
"66 -238 OFFCURVE",
"72 -250 OFFCURVE"
);
}
);
width = 442;
}
);
unicode = 002C;
},
{
glyphname = hyphen;
lastChange = "2016-06-30 17:42:54 +0000";
layers = (
{
layerId = "C039C1CC-9A8C-45EF-8573-4C10F390742F";
paths = (
{
closed = 1;
nodes = (
"451 455 LINE",
"485 616 LINE",
"76 616 LINE",
"39 455 LINE"
);
}
);
width = 594;
}
);
unicode = 002D;
},
{
glyphname = period;
lastChange = "2016-06-30 17:42:54 +0000";
layers = (
{
layerId = "C039C1CC-9A8C-45EF-8573-4C10F390742F";
paths = (
{
closed = 1;
nodes = (
"389 154 CURVE SMOOTH",
"389 244 OFFCURVE",
"315 317 OFFCURVE",
"225 317 CURVE SMOOTH",
"135 317 OFFCURVE",
"63 244 OFFCURVE",
"63 154 CURVE SMOOTH",
"63 63 OFFCURVE",
"135 -8 OFFCURVE",
"225 -8 CURVE SMOOTH",
"315 -8 OFFCURVE",
"389 63 OFFCURVE"
);
}
);
width = 539;
}
);
unicode = 002E;
},
{
glyphname = slash;
lastChange = "2016-06-30 17:42:54 +0000";
layers = (
{
layerId = "C039C1CC-9A8C-45EF-8573-4C10F390742F";
paths = (
{
closed = 1;
nodes = (
"170 -512 LINE",
"604 1536 LINE",
"457 1536 LINE",
"23 -512 LINE"
);
}
);
width = 637;
}
);
unicode = 002F;
},
{
glyphname = zero;
lastChange = "2016-06-30 17:42:54 +0000";
layers = (
{
layerId = "C039C1CC-9A8C-45EF-8573-4C10F390742F";
paths = (
{
closed = 1;
nodes = (
"456 -21 CURVE SMOOTH",
"960 -21 OFFCURVE",
"1134 656 OFFCURVE",
"1134 1054 CURVE SMOOTH",
"1134 1350 OFFCURVE",
"1010 1547 OFFCURVE",
"740 1547 CURVE SMOOTH",
"324 1547 OFFCURVE",
"43 1057 OFFCURVE",
"43 491 CURVE SMOOTH",
"43 206 OFFCURVE",
"135 -21 OFFCURVE"
);
},
{
closed = 1;
nodes = (
"737 1425 CURVE SMOOTH",
"819 1425 OFFCURVE",
"856 1286 OFFCURVE",
"856 1126 CURVE SMOOTH",
"856 651 OFFCURVE",
"685 134 OFFCURVE",
"483 134 CURVE SMOOTH",
"372 134 OFFCURVE",
"349 286 OFFCURVE",
"349 440 CURVE SMOOTH",
"349 895 OFFCURVE",
"543 1425 OFFCURVE"
);
}
);
width = 1118;
}
);
unicode = 0030;
},
{
glyphname = one;
lastChange = "2016-06-30 17:42:54 +0000";
layers = (
{
layerId = "C039C1CC-9A8C-45EF-8573-4C10F390742F";
paths = (
{
closed = 1;
nodes = (
"338 0 LINE",
"664 1532 LINE",
"416 1384 OFFCURVE",
"256 1372 OFFCURVE",
"143 1372 CURVE",
"119 1278 LINE",
"313 1278 LINE",
"43 0 LINE"
);
}
);
width = 649;
}
);
unicode = 0031;
},
{
glyphname = two;
lastChange = "2016-06-30 17:42:54 +0000";
layers = (
{
layerId = "C039C1CC-9A8C-45EF-8573-4C10F390742F";
paths = (
{
closed = 1;
nodes = (
"883 354 LINE",
"813 275 OFFCURVE",
"753 250 OFFCURVE",
"683 250 CURVE SMOOTH",
"591 250 OFFCURVE",
"476 296 OFFCURVE",
"341 296 CURVE SMOOTH",
"300 296 OFFCURVE",
"261 293 OFFCURVE",
"216 281 CURVE",
"379 585 OFFCURVE",
"967 771 OFFCURVE",
"967 1163 CURVE SMOOTH",
"967 1398 OFFCURVE",
"801 1537 OFFCURVE",
"569 1537 CURVE SMOOTH",
"289 1537 OFFCURVE",
"139 1351 OFFCURVE",
"139 1187 CURVE SMOOTH",
"139 1050 OFFCURVE",
"207 975 OFFCURVE",
"287 975 CURVE SMOOTH",
"338 975 OFFCURVE",
"395 1001 OFFCURVE",
"442 1044 CURVE",
"442 1052 LINE",
"389 1084 OFFCURVE",
"344 1157 OFFCURVE",
"344 1256 CURVE SMOOTH",
"344 1347 OFFCURVE",
"410 1422 OFFCURVE",
"506 1422 CURVE SMOOTH",
"614 1422 OFFCURVE",
"659 1316 OFFCURVE",
"659 1169 CURVE SMOOTH",
"659 729 OFFCURVE",
"-21 480 OFFCURVE",
"-25 94 CURVE SMOOTH",
"-25 63 OFFCURVE",
"-21 31 OFFCURVE",
"-13 -2 CURVE",
"-5 -2 LINE",
"79 42 OFFCURVE",
"152 57 OFFCURVE",
"222 57 CURVE SMOOTH",
"375 57 OFFCURVE",
"511 -25 OFFCURVE",
"641 -25 CURVE SMOOTH",
"785 -25 OFFCURVE",
"915 75 OFFCURVE",
"915 223 CURVE SMOOTH",
"915 260 OFFCURVE",
"906 303 OFFCURVE",
"889 350 CURVE"
);
}
);
width = 1008;
}
);
unicode = 0032;
},
{
glyphname = three;
lastChange = "2016-06-30 17:42:54 +0000";
layers = (
{
layerId = "C039C1CC-9A8C-45EF-8573-4C10F390742F";
paths = (
{
closed = 1;
nodes = (
"739 854 CURVE",
"928 950 OFFCURVE",
"1020 1098 OFFCURVE",
"1020 1235 CURVE SMOOTH",
"1020 1393 OFFCURVE",
"891 1534 OFFCURVE",
"639 1534 CURVE SMOOTH",
"401 1534 OFFCURVE",
"215 1409 OFFCURVE",
"215 1223 CURVE SMOOTH",
"215 1110 OFFCURVE",
"281 1049 OFFCURVE",
"362 1049 CURVE SMOOTH",
"412 1049 OFFCURVE",
"467 1071 OFFCURVE",
"518 1118 CURVE",
"461 1135 OFFCURVE",
"440 1208 OFFCURVE",
"440 1264 CURVE SMOOTH",
"440 1360 OFFCURVE",
"504 1423 OFFCURVE",
"602 1423 CURVE SMOOTH",
"707 1423 OFFCURVE",
"758 1352 OFFCURVE",
"758 1255 CURVE SMOOTH",
"758 1112 OFFCURVE",
"637 922 OFFCURVE",
"408 856 CURVE",
"598 791 OFFCURVE",
"680 623 OFFCURVE",
"680 469 CURVE SMOOTH",
"680 230 OFFCURVE",
"538 119 OFFCURVE",
"415 119 CURVE SMOOTH",
"322 119 OFFCURVE",
"240 183 OFFCURVE",
"240 305 CURVE SMOOTH",
"240 387 OFFCURVE",
"262 516 OFFCURVE",
"420 526 CURVE",
"403 606 OFFCURVE",
"336 631 OFFCURVE",
"260 631 CURVE SMOOTH",
"96 631 OFFCURVE",
"12 510 OFFCURVE",
"12 338 CURVE SMOOTH",
"12 23 OFFCURVE",
"301 -10 OFFCURVE",
"420 -10 CURVE SMOOTH",
"770 -10 OFFCURVE",
"997 268 OFFCURVE",
"997 516 CURVE SMOOTH",
"997 664 OFFCURVE",
"920 795 OFFCURVE"
);
}
);
width = 1053;
}
);
unicode = 0033;
},
{
glyphname = four;
lastChange = "2016-06-30 17:42:54 +0000";
layers = (
{
layerId = "C039C1CC-9A8C-45EF-8573-4C10F390742F";
paths = (
{
closed = 1;
nodes = (
"215 660 LINE",
"418 822 OFFCURVE",
"725 1144 OFFCURVE",
"725 1342 CURVE SMOOTH",
"725 1441 OFFCURVE",
"657 1519 OFFCURVE",
"530 1519 CURVE SMOOTH",
"498 1519 OFFCURVE",
"459 1515 OFFCURVE",
"428 1506 CURVE",
"438 1465 OFFCURVE",
"444 1422 OFFCURVE",
"444 1379 CURVE SMOOTH",
"444 1109 OFFCURVE",
"225 818 OFFCURVE",
"-4 543 CURVE",
"-4 533 LINE",
"39 453 LINE",
"47 453 LINE",
"121 490 OFFCURVE",
"199 496 OFFCURVE",
"268 496 CURVE SMOOTH",
"422 496 OFFCURVE",
"553 416 OFFCURVE",
"690 416 CURVE SMOOTH",
"848 416 OFFCURVE",
"977 517 OFFCURVE",
"977 644 CURVE SMOOTH",
"977 680 OFFCURVE",
"967 717 OFFCURVE",
"944 756 CURVE",
"938 760 LINE",
"870 680 OFFCURVE",
"797 648 OFFCURVE",
"725 648 CURVE SMOOTH",
"643 648 OFFCURVE",
"500 691 OFFCURVE",
"399 691 CURVE SMOOTH",
"334 691 OFFCURVE",
"262 672 OFFCURVE",
"217 654 CURVE"
);
},
{
closed = 1;
nodes = (
"383 0 LINE",
"668 0 LINE",
"909 1139 LINE",
"778 1139 LINE"
);
}
);
width = 975;
}
);
unicode = 0034;
},
{
glyphname = five;
lastChange = "2016-06-30 17:42:54 +0000";
layers = (
{
layerId = "C039C1CC-9A8C-45EF-8573-4C10F390742F";
paths = (
{
closed = 1;
nodes = (
"404 -10 CURVE SMOOTH",
"752 -10 OFFCURVE",
"985 216 OFFCURVE",
"985 551 CURVE SMOOTH",
"985 811 OFFCURVE",
"845 973 OFFCURVE",
"623 973 CURVE SMOOTH",
"541 973 OFFCURVE",
"455 951 OFFCURVE",
"369 909 CURVE",
"451 1280 LINE",
"532 1270 OFFCURVE",
"684 1229 OFFCURVE",
"793 1229 CURVE SMOOTH",
"967 1229 OFFCURVE",
"1028 1335 OFFCURVE",
"1028 1466 CURVE SMOOTH",
"1028 1489 OFFCURVE",
"1026 1511 OFFCURVE",
"1024 1534 CURVE",
"896 1491 OFFCURVE",
"783 1476 OFFCURVE",
"667 1476 CURVE SMOOTH",
"559 1476 OFFCURVE",
"449 1489 OFFCURVE",
"324 1503 CURVE",
"165 728 LINE",
"193 708 LINE",
"300 771 OFFCURVE",
"385 801 OFFCURVE",
"461 801 CURVE SMOOTH",
"603 801 OFFCURVE",
"686 696 OFFCURVE",
"686 505 CURVE SMOOTH",
"686 285 OFFCURVE",
"575 127 OFFCURVE",
"415 127 CURVE SMOOTH",
"319 127 OFFCURVE",
"258 184 OFFCURVE",
"258 281 CURVE SMOOTH",
"258 387 OFFCURVE",
"331 458 OFFCURVE",
"442 471 CURVE",
"428 541 OFFCURVE",
"381 575 OFFCURVE",
"296 575 CURVE SMOOTH",
"139 575 OFFCURVE",
"31 460 OFFCURVE",
"31 288 CURVE SMOOTH",
"31 98 OFFCURVE",
"163 -10 OFFCURVE"
);
}
);
width = 1059;
}
);
unicode = 0035;
},
{
glyphname = six;
lastChange = "2016-06-30 17:42:54 +0000";
layers = (
{
layerId = "C039C1CC-9A8C-45EF-8573-4C10F390742F";
paths = (
{
closed = 1;
nodes = (
"676 931 CURVE SMOOTH",
"525 931 OFFCURVE",
"406 866 OFFCURVE",
"357 739 CURVE",
"350 737 LINE",
"410 1127 OFFCURVE",
"583 1413 OFFCURVE",
"751 1413 CURVE SMOOTH",
"823 1413 OFFCURVE",
"858 1357 OFFCURVE",
"858 1298 CURVE SMOOTH",
"858 1251 OFFCURVE",
"835 1202 OFFCURVE",
"791 1179 CURVE",
"807 1140 OFFCURVE",
"850 1114 OFFCURVE",
"895 1114 CURVE SMOOTH",
"980 1114 OFFCURVE",
"1045 1198 OFFCURVE",
"1045 1302 CURVE SMOOTH",
"1045 1441 OFFCURVE",
"928 1534 OFFCURVE",
"748 1534 CURVE SMOOTH",
"350 1534 OFFCURVE",
"33 1089 OFFCURVE",
"33 530 CURVE SMOOTH",
"33 146 OFFCURVE",
"165 -10 OFFCURVE",
"451 -10 CURVE SMOOTH",
"744 -10 OFFCURVE",
"990 273 OFFCURVE",
"990 577 CURVE SMOOTH",
"990 798 OFFCURVE",
"863 931 OFFCURVE"
);
},
{
closed = 1;
nodes = (
"332 448 CURVE SMOOTH",
"332 653 OFFCURVE",
"398 786 OFFCURVE",
"565 786 CURVE SMOOTH",
"660 786 OFFCURVE",
"729 728 OFFCURVE",
"729 571 CURVE SMOOTH",
"729 331 OFFCURVE",
"608 150 OFFCURVE",
"494 150 CURVE SMOOTH",
"396 150 OFFCURVE",
"332 232 OFFCURVE"
);
}
);
width = 1023;
}
);
unicode = 0036;
},
{
glyphname = seven;
lastChange = "2016-06-30 17:42:54 +0000";
layers = (
{
layerId = "C039C1CC-9A8C-45EF-8573-4C10F390742F";
paths = (
{
closed = 1;
nodes = (
"1064 1526 LINE",
"956 1497 OFFCURVE",
"861 1483 OFFCURVE",
"788 1483 CURVE SMOOTH",
"629 1483 OFFCURVE",
"537 1549 OFFCURVE",
"398 1549 CURVE SMOOTH",
"232 1549 OFFCURVE",
"116 1456 OFFCURVE",
"116 1311 CURVE SMOOTH",
"116 1271 OFFCURVE",
"125 1227 OFFCURVE",
"143 1186 CURVE",
"149 1184 LINE",
"213 1259 OFFCURVE",
"270 1290 OFFCURVE",
"351 1290 CURVE SMOOTH",
"449 1290 OFFCURVE",
"527 1245 OFFCURVE",
"618 1245 CURVE SMOOTH",
"665 1245 OFFCURVE",
"705 1257 OFFCURVE",
"755 1272 CURVE",
"755 1119 OFFCURVE",
"153 663 OFFCURVE",
"153 240 CURVE SMOOTH",
"153 86 OFFCURVE",
"233 -8 OFFCURVE",
"358 -8 CURVE SMOOTH",
"403 -8 OFFCURVE",
"453 4 OFFCURVE",
"502 30 CURVE",
"480 94 OFFCURVE",
"465 170 OFFCURVE",
"465 242 CURVE SMOOTH",
"465 700 OFFCURVE",
"1068 1336 OFFCURVE",
"1068 1518 CURVE"
);
}
);
width = 950;
}
);
unicode = 0037;
},
{
glyphname = eight;
lastChange = "2016-06-30 17:42:54 +0000";
layers = (
{
layerId = "C039C1CC-9A8C-45EF-8573-4C10F390742F";
paths = (
{
closed = 1;
nodes = (
"434 852 LINE",
"130 730 OFFCURVE",
"-6 581 OFFCURVE",
"-4 378 CURVE SMOOTH",
"0 144 OFFCURVE",
"192 -17 OFFCURVE",
"461 -12 CURVE SMOOTH",
"759 -7 OFFCURVE",
"995 206 OFFCURVE",
"991 463 CURVE SMOOTH",
"984 829 OFFCURVE",
"495 962 OFFCURVE",
"491 1248 CURVE SMOOTH",
"489 1363 OFFCURVE",
"566 1451 OFFCURVE",
"669 1452 CURVE SMOOTH",
"754 1454 OFFCURVE",
"809 1396 OFFCURVE",
"809 1301 CURVE SMOOTH",
"811 1177 OFFCURVE",
"726 1032 OFFCURVE",
"594 939 CURVE",
"660 862 LINE",
"907 980 OFFCURVE",
"1031 1116 OFFCURVE",
"1029 1266 CURVE SMOOTH",
"1025 1433 OFFCURVE",
"862 1554 OFFCURVE",
"642 1550 CURVE SMOOTH",
"392 1546 OFFCURVE",
"199 1382 OFFCURVE",
"201 1175 CURVE SMOOTH",
"207 854 OFFCURVE",
"683 684 OFFCURVE",
"687 385 CURVE SMOOTH",
"691 247 OFFCURVE",
"590 132 OFFCURVE",
"465 129 CURVE SMOOTH",
"349 127 OFFCURVE",
"270 223 OFFCURVE",
"266 374 CURVE SMOOTH",
"264 534 OFFCURVE",
"349 678 OFFCURVE",
"499 767 CURVE"
);
}
);
width = 1022;
}
);
unicode = 0038;
},
{
glyphname = nine;
lastChange = "2016-06-30 17:42:54 +0000";
layers = (
{
layerId = "C039C1CC-9A8C-45EF-8573-4C10F390742F";
paths = (
{
closed = 1;
nodes = (
"370 617 CURVE SMOOTH",
"520 617 OFFCURVE",
"639 682 OFFCURVE",
"688 809 CURVE",
"695 811 LINE",
"645 424 OFFCURVE",
"486 133 OFFCURVE",
"315 133 CURVE SMOOTH",
"244 133 OFFCURVE",
"212 181 OFFCURVE",
"212 233 CURVE SMOOTH",
"212 278 OFFCURVE",
"236 326 OFFCURVE",
"279 350 CURVE",
"266 389 OFFCURVE",
"223 416 OFFCURVE",
"174 416 CURVE SMOOTH",
"90 416 OFFCURVE",
"27 330 OFFCURVE",
"27 226 CURVE SMOOTH",
"27 86 OFFCURVE",
"143 -6 OFFCURVE",
"324 -6 CURVE SMOOTH",
"709 -6 OFFCURVE",
"1008 438 OFFCURVE",
"1008 998 CURVE SMOOTH",
"1008 1354 OFFCURVE",
"879 1537 OFFCURVE",
"627 1537 CURVE SMOOTH",
"320 1537 OFFCURVE",
"55 1276 OFFCURVE",
"55 971 CURVE SMOOTH",
"55 750 OFFCURVE",
"182 617 OFFCURVE"
);
},
{
closed = 1;
nodes = (
"715 1143 CURVE SMOOTH",
"715 922 OFFCURVE",
"646 766 OFFCURVE",
"459 766 CURVE SMOOTH",
"375 766 OFFCURVE",
"315 828 OFFCURVE",
"315 977 CURVE SMOOTH",
"315 1183 OFFCURVE",
"423 1402 OFFCURVE",
"565 1402 CURVE SMOOTH",
"701 1402 OFFCURVE",
"715 1238 OFFCURVE"
);
}
);
width = 1001;
}
);
unicode = 0039;
},
{
glyphname = colon;
lastChange = "2016-06-30 17:42:54 +0000";
layers = (
{
layerId = "C039C1CC-9A8C-45EF-8573-4C10F390742F";
paths = (
{
closed = 1;
nodes = (
"410 276 CURVE SMOOTH",
"410 367 OFFCURVE",
"336 440 OFFCURVE",
"246 440 CURVE SMOOTH",
"156 440 OFFCURVE",
"84 367 OFFCURVE",
"84 276 CURVE SMOOTH",
"84 186 OFFCURVE",
"156 115 OFFCURVE",
"246 115 CURVE SMOOTH",
"336 115 OFFCURVE",
"410 186 OFFCURVE"
);
},
{
closed = 1;
nodes = (
"512 768 CURVE SMOOTH",
"512 858 OFFCURVE",
"438 932 OFFCURVE",
"348 932 CURVE SMOOTH",
"258 932 OFFCURVE",
"186 858 OFFCURVE",
"186 768 CURVE SMOOTH",
"186 678 OFFCURVE",
"258 606 OFFCURVE",
"348 606 CURVE SMOOTH",
"438 606 OFFCURVE",
"512 678 OFFCURVE"
);
}
);
width = 547;
}
);
unicode = 003A;
},
{
glyphname = semicolon;
lastChange = "2016-06-30 17:42:54 +0000";
layers = (
{
layerId = "C039C1CC-9A8C-45EF-8573-4C10F390742F";
paths = (
{
closed = 1;
nodes = (
"518 678 CURVE SMOOTH",
"518 768 OFFCURVE",
"444 842 OFFCURVE",
"354 842 CURVE SMOOTH",
"264 842 OFFCURVE",
"193 768 OFFCURVE",
"193 678 CURVE SMOOTH",
"193 588 OFFCURVE",
"264 516 OFFCURVE",
"354 516 CURVE SMOOTH",
"444 516 OFFCURVE",
"518 588 OFFCURVE"
);
},
{
closed = 1;
nodes = (
"129 -225 CURVE",
"297 -111 OFFCURVE",
"395 74 OFFCURVE",
"395 195 CURVE SMOOTH",
"395 285 OFFCURVE",
"346 350 OFFCURVE",
"256 350 CURVE SMOOTH",
"166 350 OFFCURVE",
"94 276 OFFCURVE",
"94 186 CURVE SMOOTH",
"94 119 OFFCURVE",
"135 72 OFFCURVE",
"190 37 CURVE SMOOTH",
"209 25 OFFCURVE",
"217 10 OFFCURVE",
"217 -4 CURVE SMOOTH",
"217 -80 OFFCURVE",
"111 -117 OFFCURVE",
"111 -190 CURVE SMOOTH",
"111 -205 OFFCURVE",
"117 -217 OFFCURVE"
);
}
);
width = 565;
}
);
unicode = 003B;
},
{
glyphname = equal;
lastChange = "2016-06-30 17:42:54 +0000";
layers = (
{
layerId = "C039C1CC-9A8C-45EF-8573-4C10F390742F";
paths = (
{
closed = 1;
nodes = (
"911 647 LINE",
"958 877 LINE",
"205 877 LINE",
"156 647 LINE"
);
},
{
closed = 1;
nodes = (
"821 207 LINE",
"868 436 LINE",
"115 436 LINE",
"66 207 LINE"
);
}
);
width = 1055;
}
);
unicode = 003D;
},
{
glyphname = question;
lastChange = "2016-06-30 17:42:54 +0000";
layers = (
{
layerId = "C039C1CC-9A8C-45EF-8573-4C10F390742F";
paths = (
{
closed = 1;
nodes = (
"603 1270 CURVE SMOOTH",
"603 948 OFFCURVE",
"216 879 OFFCURVE",
"216 475 CURVE",
"351 475 LINE",
"351 856 OFFCURVE",
"884 928 OFFCURVE",
"884 1280 CURVE SMOOTH",
"884 1456 OFFCURVE",
"748 1563 OFFCURVE",
"527 1563 CURVE SMOOTH",
"286 1563 OFFCURVE",
"103 1415 OFFCURVE",
"103 1221 CURVE SMOOTH",
"103 1118 OFFCURVE",
"163 1049 OFFCURVE",
"251 1049 CURVE SMOOTH",
"300 1049 OFFCURVE",
"357 1073 OFFCURVE",
"406 1118 CURVE",
"406 1126 LINE",
"347 1153 OFFCURVE",
"308 1219 OFFCURVE",
"308 1288 CURVE SMOOTH",
"308 1384 OFFCURVE",
"376 1456 OFFCURVE",
"466 1456 CURVE SMOOTH",
"552 1456 OFFCURVE",
"603 1389 OFFCURVE"
);
},
{
closed = 1;
nodes = (
"421 164 CURVE SMOOTH",
"421 254 OFFCURVE",
"349 326 OFFCURVE",
"259 326 CURVE SMOOTH",
"169 326 OFFCURVE",
"95 254 OFFCURVE",
"95 164 CURVE SMOOTH",
"95 74 OFFCURVE",
"169 0 OFFCURVE",
"259 0 CURVE SMOOTH",
"349 0 OFFCURVE",
"421 74 OFFCURVE"
);
}
);
width = 903;
}
);
unicode = 003F;
},
{
glyphname = at;
lastChange = "2016-06-30 17:42:54 +0000";
layers = (
{
layerId = "C039C1CC-9A8C-45EF-8573-4C10F390742F";
paths = (
{
closed = 1;
nodes = (
"962 33 CURVE SMOOTH",
"962 91 OFFCURVE",
"937 125 OFFCURVE",
"907 140 CURVE",
"820 26 OFFCURVE",
"666 -43 OFFCURVE",
"500 -43 CURVE SMOOTH",
"281 -43 OFFCURVE",
"167 66 OFFCURVE",
"167 324 CURVE SMOOTH",
"167 723 OFFCURVE",
"489 1105 OFFCURVE",
"847 1105 CURVE SMOOTH",
"1042 1105 OFFCURVE",
"1150 991 OFFCURVE",
"1150 779 CURVE SMOOTH",
"1150 530 OFFCURVE",
"1001 311 OFFCURVE",
"921 311 CURVE SMOOTH",
"889 311 OFFCURVE",
"881 346 OFFCURVE",
"881 375 CURVE SMOOTH",
"881 411 OFFCURVE",
"894 460 OFFCURVE",
"909 516 CURVE SMOOTH",
"1004 877 LINE",
"849 892 LINE",
"816 841 LINE",
"778 882 OFFCURVE",
"750 897 OFFCURVE",
"708 897 CURVE SMOOTH",
"525 897 OFFCURVE",
"335 625 OFFCURVE",
"335 383 CURVE SMOOTH",
"335 245 OFFCURVE",
"397 173 OFFCURVE",
"500 173 CURVE SMOOTH",
"587 173 OFFCURVE",
"663 225 OFFCURVE",
"736 321 CURVE",
"741 237 OFFCURVE",
"801 193 OFFCURVE",
"891 193 CURVE SMOOTH",
"1119 193 OFFCURVE",
"1331 473 OFFCURVE",
"1331 784 CURVE SMOOTH",
"1331 1095 OFFCURVE",
"1119 1254 OFFCURVE",
"832 1254 CURVE SMOOTH",
"357 1254 OFFCURVE",
"-19 820 OFFCURVE",
"-19 312 CURVE SMOOTH",
"-19 -86 OFFCURVE",
"211 -208 OFFCURVE",
"488 -208 CURVE SMOOTH",
"670 -208 OFFCURVE",
"962 -139 OFFCURVE"
);
},
{
closed = 1;
nodes = (
"696 377 LINE",
"676 340 OFFCURVE",
"627 313 OFFCURVE",
"588 313 CURVE SMOOTH",
"550 313 OFFCURVE",
"533 339 OFFCURVE",
"533 399 CURVE SMOOTH",
"533 561 OFFCURVE",
"655 784 OFFCURVE",
"755 784 CURVE SMOOTH",
"770 784 OFFCURVE",
"783 779 OFFCURVE",
"799 764 CURVE"
);
}
);
width = 1410;
}
);
unicode = 0040;
},
{
glyphname = A;
lastChange = "2016-07-05 15:17:24 +0000";
layers = (
{
anchors = (
{
name = bottom;
position = "{684, 0}";
},
{
name = ogonek;
position = "{1231, 10}";
},
{
name = top;
position = "{1198, 1532}";
}
);
layerId = "C039C1CC-9A8C-45EF-8573-4C10F390742F";
paths = (
{
closed = 1;
nodes = (
"1096 0 LINE",
"1417 1507 LINE",
"1368 1530 OFFCURVE",
"1303 1536 OFFCURVE",
"1255 1536 CURVE SMOOTH",
"1016 1536 OFFCURVE",
"750 1260 OFFCURVE",
"543 932 CURVE",
"500 936 OFFCURVE",
"463 938 OFFCURVE",
"436 938 CURVE SMOOTH",
"197 938 OFFCURVE",
"18 825 OFFCURVE",
"18 686 CURVE SMOOTH",
"18 606 OFFCURVE",
"74 567 OFFCURVE",
"145 567 CURVE SMOOTH",
"209 567 OFFCURVE",
"260 598 OFFCURVE",
"260 647 CURVE SMOOTH",
"260 678 OFFCURVE",
"244 711 OFFCURVE",
"233 711 CURVE",
"260 782 OFFCURVE",
"344 809 OFFCURVE",
"473 817 CURVE",
"293 504 OFFCURVE",
"172 166 OFFCURVE",
"172 -16 CURVE SMOOTH",
"172 -229 OFFCURVE",
"338 -233 OFFCURVE",
"446 -233 CURVE",
"432 -215 OFFCURVE",
"418 -184 OFFCURVE",
"418 -119 CURVE SMOOTH",
"418 94 OFFCURVE",
"530 483 OFFCURVE",
"684 817 CURVE",
"774 809 OFFCURVE",
"854 791 OFFCURVE",
"958 743 CURVE",
"801 0 LINE"
);
},
{
closed = 1;
nodes = (
"977 834 LINE",
"897 866 OFFCURVE",
"809 889 OFFCURVE",
"727 905 CURVE",
"842 1135 OFFCURVE",
"973 1325 OFFCURVE",
"1096 1391 CURVE"
);
}
);
width = 1368;
}
);
unicode = 0041;
},
{
glyphname = B;
lastChange = "2016-07-01 15:11:02 +0000";
layers = (
{
anchors = (
{
name = bottom;
position = "{657, 0}";
},
{
name = top;
position = "{657, 1532}";
}
);
layerId = "C039C1CC-9A8C-45EF-8573-4C10F390742F";
paths = (
{
closed = 1;
nodes = (
"500 0 LINE",
"668 784 LINE",
"707 791 OFFCURVE",
"745 791 OFFCURVE",
"762 791 CURVE SMOOTH",
"911 791 OFFCURVE",
"956 672 OFFCURVE",
"956 530 CURVE SMOOTH",
"956 375 OFFCURVE",
"903 162 OFFCURVE",
"754 162 CURVE SMOOTH",
"707 162 OFFCURVE",
"668 180 OFFCURVE",
"616 236 CURVE",
"598 190 OFFCURVE",
"590 152 OFFCURVE",
"590 117 CURVE SMOOTH",
"590 -8 OFFCURVE",
"705 -35 OFFCURVE",
"793 -35 CURVE SMOOTH",
"1137 -35 OFFCURVE",
"1241 358 OFFCURVE",
"1241 555 CURVE SMOOTH",
"1241 709 OFFCURVE",
"1174 852 OFFCURVE",
"999 885 CURVE",
"1133 961 OFFCURVE",
"1204 1087 OFFCURVE",
"1204 1210 CURVE SMOOTH",
"1204 1378 OFFCURVE",
"1069 1536 OFFCURVE",
"768 1536 CURVE SMOOTH",
"381 1536 OFFCURVE",
"25 1276 OFFCURVE",
"25 993 CURVE SMOOTH",
"25 854 OFFCURVE",
"106 805 OFFCURVE",
"244 805 CURVE",
"244 821 OFFCURVE",
"215 840 OFFCURVE",
"215 944 CURVE SMOOTH",
"215 1280 OFFCURVE",
"487 1442 OFFCURVE",
"727 1442 CURVE SMOOTH",
"922 1442 OFFCURVE",
"997 1335 OFFCURVE",
"997 1221 CURVE SMOOTH",
"997 1067 OFFCURVE",
"864 889 OFFCURVE",
"702 889 CURVE SMOOTH",
"690 889 LINE",
"786 1343 LINE",
"483 1303 LINE",
"205 0 LINE"
);
}
);
width = 1313;
}
);
unicode = 0042;
},
{
glyphname = C;
lastChange = "2016-07-05 15:02:48 +0000";
layers = (
{
anchors = (
{
name = bottom;
position = "{487, -33}";
},
{
name = top;
position = "{754, 1536}";
}
);
layerId = "C039C1CC-9A8C-45EF-8573-4C10F390742F";
paths = (
{
closed = 1;
nodes = (
"1024 369 LINE",
"928 240 OFFCURVE",
"786 164 OFFCURVE",
"625 164 CURVE SMOOTH",
"426 164 OFFCURVE",
"379 295 OFFCURVE",
"379 483 CURVE SMOOTH",
"379 901 OFFCURVE",
"578 1440 OFFCURVE",
"805 1440 CURVE SMOOTH",
"897 1440 OFFCURVE",
"930 1380 OFFCURVE",
"930 1315 CURVE SMOOTH",
"930 1235 OFFCURVE",
"885 1151 OFFCURVE",
"836 1126 CURVE",
"874 1079 OFFCURVE",
"920 1073 OFFCURVE",
"952 1073 CURVE SMOOTH",
"1057 1073 OFFCURVE",
"1096 1153 OFFCURVE",
"1096 1262 CURVE SMOOTH",
"1096 1458 OFFCURVE",
"944 1536 OFFCURVE",
"754 1536 CURVE SMOOTH",
"217 1536 OFFCURVE",
"39 842 OFFCURVE",
"39 471 CURVE SMOOTH",
"39 102 OFFCURVE",
"184 -33 OFFCURVE",
"487 -33 CURVE SMOOTH",
"676 -33 OFFCURVE",
"961 74 OFFCURVE",
"1071 348 CURVE"
);
}
);
width = 1018;
}
);
unicode = 0043;
},
{
glyphname = D;
lastChange = "2016-07-05 15:17:38 +0000";
layers = (
{
anchors = (
{
name = bottom;
position = "{679, 0}";
},
{
name = center;
position = "{679, 766}";
},
{
name = top;
position = "{774, 1536}";
}
);
layerId = "C039C1CC-9A8C-45EF-8573-4C10F390742F";
paths = (
{
closed = 1;
nodes = (
"487 0 LINE",
"504 82 LINE",
"592 6 OFFCURVE",
"674 -27 OFFCURVE",
"754 -27 CURVE SMOOTH",
"1057 -27 OFFCURVE",
"1321 477 OFFCURVE",
"1321 946 CURVE SMOOTH",
"1321 1260 OFFCURVE",
"1171 1536 OFFCURVE",
"774 1536 CURVE SMOOTH",
"358 1536 OFFCURVE",
"12 1276 OFFCURVE",
"12 995 CURVE SMOOTH",
"12 856 OFFCURVE",
"94 805 OFFCURVE",
"231 805 CURVE",
"231 821 OFFCURVE",
"203 840 OFFCURVE",
"203 944 CURVE SMOOTH",
"203 1255 OFFCURVE",
"434 1442 OFFCURVE",
"739 1442 CURVE SMOOTH",
"918 1442 OFFCURVE",
"1038 1333 OFFCURVE",
"1038 1055 CURVE SMOOTH",
"1038 641 OFFCURVE",
"889 154 OFFCURVE",
"645 154 CURVE SMOOTH",
"604 154 OFFCURVE",
"565 168 OFFCURVE",
"528 195 CURVE",
"774 1343 LINE",
"471 1303 LINE",
"193 0 LINE"
);
}
);
width = 1358;
}
);
unicode = 0044;
},
{
glyphname = E;
lastChange = "2016-07-05 13:30:50 +0000";
layers = (
{
anchors = (
{
name = bottom;
position = "{391, -37}";
},
{
name = ogonek;
position = "{846, 10}";
},
{
name = top;
position = "{717, 1540}";
},
{
name = topleft;
position = "{20, 1532}";
}
);
layerId = "C039C1CC-9A8C-45EF-8573-4C10F390742F";
paths = (
{
closed = 1;
nodes = (
"944 369 LINE",
"868 231 OFFCURVE",
"690 160 OFFCURVE",
"565 160 CURVE SMOOTH",
"426 160 OFFCURVE",
"371 252 OFFCURVE",
"371 367 CURVE SMOOTH",
"371 555 OFFCURVE",
"518 807 OFFCURVE",
"737 856 CURVE",
"590 895 OFFCURVE",
"530 1010 OFFCURVE",
"530 1130 CURVE SMOOTH",
"530 1274 OFFCURVE",
"616 1419 OFFCURVE",
"739 1419 CURVE SMOOTH",
"795 1419 OFFCURVE",
"852 1389 OFFCURVE",
"852 1305 CURVE SMOOTH",
"852 1233 OFFCURVE",
"811 1143 OFFCURVE",
"762 1126 CURVE",
"788 1090 OFFCURVE",
"821 1071 OFFCURVE",
"858 1071 CURVE SMOOTH",
"940 1071 OFFCURVE",
"1010 1161 OFFCURVE",
"1010 1284 CURVE SMOOTH",
"1010 1452 OFFCURVE",
"881 1540 OFFCURVE",
"717 1540 CURVE SMOOTH",
"455 1540 OFFCURVE",
"268 1311 OFFCURVE",
"268 1100 CURVE SMOOTH",
"268 1008 OFFCURVE",
"305 918 OFFCURVE",
"393 854 CURVE",
"156 793 OFFCURVE",
"14 539 OFFCURVE",
"14 324 CURVE SMOOTH",
"14 133 OFFCURVE",
"127 -37 OFFCURVE",
"391 -37 CURVE SMOOTH",
"639 -37 OFFCURVE",
"883 109 OFFCURVE",
"991 348 CURVE"
);
}
);
width = 940;
}
);
unicode = 0045;
},
{
glyphname = F;
lastChange = "2016-07-01 15:11:02 +0000";
layers = (
{
anchors = (
{
name = bottom;
position = "{470, 0}";
},
{
name = top;
position = "{470, 1532}";
}
);
layerId = "C039C1CC-9A8C-45EF-8573-4C10F390742F";
paths = (
{
closed = 1;
nodes = (
"475 0 LINE",
"641 770 LINE",
"940 770 LINE",
"973 922 LINE",
"674 922 LINE",
"760 1329 LINE",
"856 1307 OFFCURVE",
"950 1290 OFFCURVE",
"1047 1290 CURVE",
"1204 1323 OFFCURVE",
"1214 1452 OFFCURVE",
"1241 1536 CURVE",
"1184 1518 OFFCURVE",
"1120 1511 OFFCURVE",
"1057 1511 CURVE SMOOTH",
"926 1511 OFFCURVE",
"799 1536 OFFCURVE",
"717 1536 CURVE SMOOTH",
"211 1536 OFFCURVE",
"18 1276 OFFCURVE",
"18 1004 CURVE SMOOTH",
"18 856 OFFCURVE",
"96 805 OFFCURVE",
"238 805 CURVE",
"238 821 OFFCURVE",
"209 840 OFFCURVE",
"209 944 CURVE SMOOTH",
"209 1272 OFFCURVE",
"317 1362 OFFCURVE",
"475 1368 CURVE",
"180 0 LINE"
);
}
);
width = 940;
}
);
unicode = 0046;
},
{
glyphname = G;
lastChange = "2016-07-05 15:18:00 +0000";
layers = (
{
anchors = (
{
name = bottom;
position = "{462, 0}";
},
{
name = top;
position = "{786, 1550}";
}
);
layerId = "C039C1CC-9A8C-45EF-8573-4C10F390742F";
paths = (
{
closed = 1;
nodes = (
"876 858 LINE",
"806 559 OFFCURVE",
"692 401 OFFCURVE",
"544 401 CURVE SMOOTH",
"421 401 OFFCURVE",
"354 512 OFFCURVE",
"354 717 CURVE SMOOTH",
"354 1096 OFFCURVE",
"585 1454 OFFCURVE",
"829 1454 CURVE SMOOTH",
"917 1454 OFFCURVE",
"966 1407 OFFCURVE",
"966 1325 CURVE SMOOTH",
"966 1251 OFFCURVE",
"927 1169 OFFCURVE",
"878 1137 CURVE",
"909 1096 OFFCURVE",
"956 1073 OFFCURVE",
"1007 1073 CURVE SMOOTH",
"1099 1073 OFFCURVE",
"1163 1151 OFFCURVE",
"1163 1268 CURVE SMOOTH",
"1163 1442 OFFCURVE",
"1019 1550 OFFCURVE",
"786 1550 CURVE SMOOTH",
"364 1550 OFFCURVE",
"38 1198 OFFCURVE",
"38 741 CURVE SMOOTH",
"38 426 OFFCURVE",
"192 223 OFFCURVE",
"434 223 CURVE SMOOTH",
"559 223 OFFCURVE",
"667 281 OFFCURVE",
"741 383 CURVE",
"749 383 LINE",
"647 -70 LINE SMOOTH",
"610 -236 OFFCURVE",
"540 -322 OFFCURVE",
"446 -322 CURVE SMOOTH",
"368 -322 OFFCURVE",
"313 -260 OFFCURVE",
"313 -174 CURVE SMOOTH",
"313 -86 OFFCURVE",
"370 -27 OFFCURVE",
"452 -27 CURVE SMOOTH",
"499 -27 OFFCURVE",
"544 -47 OFFCURVE",
"569 -80 CURVE",
"583 -61 OFFCURVE",
"591 -33 OFFCURVE",
"591 -2 CURVE SMOOTH",
"591 84 OFFCURVE",
"522 139 OFFCURVE",
"417 139 CURVE SMOOTH",
"262 139 OFFCURVE",
"141 14 OFFCURVE",
"141 -145 CURVE SMOOTH",
"141 -311 OFFCURVE",
"274 -424 OFFCURVE",
"473 -424 CURVE SMOOTH",
"727 -424 OFFCURVE",
"880 -240 OFFCURVE",
"968 168 CURVE SMOOTH",
"1118 856 LINE"
);
}
);
width = 1184;
}
);
unicode = 0047;
},
{
glyphname = H;
lastChange = "2016-07-05 15:18:09 +0000";
layers = (
{
anchors = (
{
name = bottom;
position = "{681, 0}";
},
{
name = center;
position = "{681, 766}";
},
{
name = top;
position = "{867, 1532}";
},
{
name = topleft;
position = "{20, 1532}";
}
);
layerId = "C039C1CC-9A8C-45EF-8573-4C10F390742F";
paths = (
{
closed = 1;
nodes = (
"1096 0 LINE",
"1421 1532 LINE",
"1126 1532 LINE",
"995 922 LINE",
"694 922 LINE",
"825 1532 LINE",
"799 1534 OFFCURVE",
"774 1536 OFFCURVE",
"743 1536 CURVE SMOOTH",
"401 1536 OFFCURVE",
"25 1276 OFFCURVE",
"25 1004 CURVE SMOOTH",
"25 856 OFFCURVE",
"102 805 OFFCURVE",
"244 805 CURVE",
"244 821 OFFCURVE",
"215 840 OFFCURVE",
"215 944 CURVE SMOOTH",
"215 1163 OFFCURVE",
"322 1317 OFFCURVE",
"502 1393 CURVE",
"205 0 LINE",
"500 0 LINE",
"664 770 LINE",
"965 770 LINE",
"801 0 LINE"
);
}
);
width = 1362;
}
);
unicode = 0048;
},
{
glyphname = I;
lastChange = "2016-07-05 15:18:20 +0000";
layers = (
{
anchors = (
{
name = bottom;
position = "{274, 0}";
},
{
name = ogonek;
position = "{691, 10}";
},
{
name = top;
position = "{676, 1532}";
},
{
name = topleft;
position = "{20, 1532}";
}
);
layerId = "C039C1CC-9A8C-45EF-8573-4C10F390742F";
paths = (
{
closed = 1;
nodes = (
"487 0 LINE",
"813 1532 LINE",
"786 1534 OFFCURVE",
"762 1536 OFFCURVE",
"731 1536 CURVE SMOOTH",
"389 1536 OFFCURVE",
"12 1276 OFFCURVE",
"12 1004 CURVE SMOOTH",
"12 856 OFFCURVE",
"90 805 OFFCURVE",
"231 805 CURVE",
"231 821 OFFCURVE",
"203 840 OFFCURVE",
"203 944 CURVE SMOOTH",
"203 1165 OFFCURVE",
"309 1317 OFFCURVE",
"489 1391 CURVE",
"193 0 LINE"
);
}
);
width = 768;
}
);
unicode = 0049;
},
{
glyphname = J;
lastChange = "2016-07-01 15:11:02 +0000";
layers = (
{
anchors = (
{
name = bottom;
position = "{549, 0}";
},
{
name = top;
position = "{549, 1532}";
}
);
layerId = "C039C1CC-9A8C-45EF-8573-4C10F390742F";
paths = (
{
closed = 1;
nodes = (
"541 -70 LINE",
"492 -283 OFFCURVE",
"438 -322 OFFCURVE",
"346 -322 CURVE SMOOTH",
"287 -322 OFFCURVE",
"207 -285 OFFCURVE",
"207 -178 CURVE SMOOTH",
"207 -102 OFFCURVE",
"254 -27 OFFCURVE",
"350 -27 CURVE SMOOTH",
"391 -27 OFFCURVE",
"422 -37 OFFCURVE",
"473 -80 CURVE",
"481 -49 OFFCURVE",
"485 -23 OFFCURVE",
"485 2 CURVE SMOOTH",
"485 133 OFFCURVE",
"367 139 OFFCURVE",
"285 139 CURVE SMOOTH",
"123 139 OFFCURVE",
"35 4 OFFCURVE",
"35 -135 CURVE SMOOTH",
"35 -307 OFFCURVE",
"141 -424 OFFCURVE",
"338 -424 CURVE SMOOTH",
"674 -424 OFFCURVE",
"811 -231 OFFCURVE",
"877 82 CURVE SMOOTH",
"1184 1536 LINE",
"1102 1536 LINE SMOOTH",
"760 1536 OFFCURVE",
"383 1276 OFFCURVE",
"383 1004 CURVE SMOOTH",
"383 856 OFFCURVE",
"461 805 OFFCURVE",
"602 805 CURVE",
"602 821 OFFCURVE",
"573 840 OFFCURVE",
"573 944 CURVE SMOOTH",
"573 1165 OFFCURVE",
"682 1319 OFFCURVE",
"862 1393 CURVE"
);
}
);
width = 1098;
}
);
unicode = 004A;
},
{
glyphname = K;
lastChange = "2016-07-05 15:18:41 +0000";
layers = (
{
anchors = (
{
name = bottom;
position = "{515, 0}";
},
{
name = top;
position = "{696, 1532}";
}
);
layerId = "C039C1CC-9A8C-45EF-8573-4C10F390742F";
paths = (
{
closed = 1;
nodes = (
"487 0 LINE",
"651 772 LINE",
"676 778 OFFCURVE",
"700 780 OFFCURVE",
"719 780 CURVE SMOOTH",
"811 780 OFFCURVE",
"842 723 OFFCURVE",
"842 641 CURVE SMOOTH",
"842 485 OFFCURVE",
"733 240 OFFCURVE",
"733 102 CURVE SMOOTH",
"733 37 OFFCURVE",
"760 -35 OFFCURVE",
"893 -35 CURVE SMOOTH",
"942 -35 OFFCURVE",
"1008 -25 OFFCURVE",
"1096 0 CURVE",
"1047 18 OFFCURVE",
"1016 72 OFFCURVE",
"1016 135 CURVE SMOOTH",
"1016 266 OFFCURVE",
"1116 483 OFFCURVE",
"1116 653 CURVE SMOOTH",
"1116 778 OFFCURVE",
"1061 872 OFFCURVE",
"862 872 CURVE SMOOTH",
"840 872 OFFCURVE",
"817 870 OFFCURVE",
"791 870 CURVE",
"1360 1526 LINE",
"1145 1526 LINE",
"1143 1528 OFFCURVE",
"811 1079 OFFCURVE",
"680 905 CURVE",
"813 1532 LINE",
"786 1534 OFFCURVE",
"762 1536 OFFCURVE",
"731 1536 CURVE SMOOTH",
"389 1536 OFFCURVE",
"12 1276 OFFCURVE",
"12 1004 CURVE SMOOTH",
"12 856 OFFCURVE",
"90 805 OFFCURVE",
"231 805 CURVE",
"231 821 OFFCURVE",
"203 840 OFFCURVE",
"203 944 CURVE SMOOTH",
"203 1163 OFFCURVE",
"309 1317 OFFCURVE",
"489 1393 CURVE",
"193 0 LINE"
);
}
);
width = 1231;
}
);
unicode = 004B;
},
{
glyphname = L;
lastChange = "2016-07-05 15:18:53 +0000";
layers = (
{
anchors = (
{
name = bottom;
position = "{281, 0}";
},
{
name = center;
position = "{388, 766}";
},
{
name = top;
position = "{589, 1532}";
},
{
name = topright;
position = "{756, 1532}";
}
);
layerId = "C039C1CC-9A8C-45EF-8573-4C10F390742F";
paths = (
{
closed = 1;
nodes = (
"184 -49 LINE",
"201 -47 OFFCURVE",
"215 -47 OFFCURVE",
"231 -47 CURVE SMOOTH",
"594 -47 OFFCURVE",
"852 -512 OFFCURVE",
"1145 -512 CURVE SMOOTH",
"1257 -512 OFFCURVE",
"1335 -387 OFFCURVE",
"1358 -190 CURVE",
"1298 -215 OFFCURVE",
"1241 -223 OFFCURVE",
"1186 -223 CURVE SMOOTH",
"926 -223 OFFCURVE",
"711 -8 OFFCURVE",
"498 41 CURVE",
"813 1511 LINE",
"786 1513 OFFCURVE",
"762 1516 OFFCURVE",
"731 1516 CURVE SMOOTH",
"389 1516 OFFCURVE",
"12 1255 OFFCURVE",
"12 983 CURVE SMOOTH",
"12 836 OFFCURVE",
"90 784 OFFCURVE",
"231 784 CURVE",
"231 801 OFFCURVE",
"203 819 OFFCURVE",
"203 924 CURVE SMOOTH",
"203 1145 OFFCURVE",
"309 1296 OFFCURVE",
"489 1370 CURVE"
);
}
);
width = 776;
}
);
unicode = 004C;
},
{
glyphname = M;
lastChange = "2016-07-05 15:19:04 +0000";
layers = (
{
anchors = (
{
name = bottom;
position = "{702, 0}";
},
{
name = top;
position = "{1082, 1532}";
}
);
layerId = "C039C1CC-9A8C-45EF-8573-4C10F390742F";
paths = (
{
closed = 1;
nodes = (
"1432 0 LINE",
"1647 1507 LINE",
"1352 1507 LINE",
"901 428 LINE",
"948 1507 LINE",
"897 1526 OFFCURVE",
"846 1536 OFFCURVE",
"793 1536 CURVE SMOOTH",
"481 1536 OFFCURVE",
"141 1253 OFFCURVE",
"141 991 CURVE SMOOTH",
"141 854 OFFCURVE",
"227 805 OFFCURVE",
"360 805 CURVE",
"360 823 OFFCURVE",
"332 838 OFFCURVE",
"332 946 CURVE SMOOTH",
"332 1182 OFFCURVE",
"453 1339 OFFCURVE",
"657 1407 CURVE",
"137 0 LINE",
"301 0 LINE",
"643 924 LINE",
"602 0 LINE",
"883 0 LINE",
"1268 920 LINE",
"1137 0 LINE"
);
}
);
width = 1612;
}
);
unicode = 004D;
},
{
glyphname = N;
lastChange = "2016-07-05 15:19:14 +0000";
layers = (
{
anchors = (
{
name = bottom;
position = "{581, 0}";
},
{
name = top;
position = "{987, 1532}";
}
);
layerId = "C039C1CC-9A8C-45EF-8573-4C10F390742F";
paths = (
{
closed = 1;
nodes = (
"1272 1532 LINE",
"1043 420 LINE",
"796 1516 LINE",
"739 1536 OFFCURVE",
"698 1544 OFFCURVE",
"634 1544 CURVE SMOOTH",
"292 1544 OFFCURVE",
"12 1298 OFFCURVE",
"12 1006 CURVE SMOOTH",
"12 854 OFFCURVE",
"94 784 OFFCURVE",
"268 784 CURVE",
"234 829 OFFCURVE",
"213 905 OFFCURVE",
"213 993 CURVE SMOOTH",
"213 1192 OFFCURVE",
"309 1337 OFFCURVE",
"497 1403 CURVE",
"189 0 LINE",
"383 0 LINE",
"617 1016 LINE",
"854 0 LINE",
"1137 0 LINE",
"1471 1532 LINE"
);
}
);
width = 1368;
}
);
unicode = 004E;
},
{
glyphname = O;
lastChange = "2016-07-05 13:25:59 +0000";
layers = (
{
anchors = (
{
name = bottom;
position = "{588, -12}";
},
{
name = center;
position = "{681, 766}";
},
{
name = ogonek;
position = "{1226, 10}";
},
{
name = top;
position = "{858, 1536}";
},
{
name = topleft;
position = "{20, 1532}";
},
{
name = topright;
position = "{1342, 1532}";
}
);
layerId = "C039C1CC-9A8C-45EF-8573-4C10F390742F";
paths = (
{
closed = 1;
nodes = (
"883 1343 CURVE",
"844 1358 OFFCURVE",
"811 1360 OFFCURVE",
"776 1360 CURVE SMOOTH",
"408 1360 OFFCURVE",
"221 731 OFFCURVE",
"221 399 CURVE SMOOTH",
"221 100 OFFCURVE",
"373 -12 OFFCURVE",
"588 -12 CURVE SMOOTH",
"1124 -12 OFFCURVE",
"1343 616 OFFCURVE",
"1343 1012 CURVE SMOOTH",
"1343 1317 OFFCURVE",
"1217 1536 OFFCURVE",
"858 1536 CURVE SMOOTH",
"426 1536 OFFCURVE",
"33 1264 OFFCURVE",
"33 977 CURVE SMOOTH",
"33 852 OFFCURVE",
"109 805 OFFCURVE",
"240 805 CURVE",
"240 821 OFFCURVE",
"219 836 OFFCURVE",
"219 915 CURVE SMOOTH",
"219 1241 OFFCURVE",
"496 1442 OFFCURVE",
"809 1442 CURVE SMOOTH",
"1024 1442 OFFCURVE",
"1071 1321 OFFCURVE",
"1071 1083 CURVE SMOOTH",
"1071 670 OFFCURVE",
"850 154 OFFCURVE",
"643 154 CURVE SMOOTH",
"559 154 OFFCURVE",
"524 252 OFFCURVE",
"524 391 CURVE SMOOTH",
"524 707 OFFCURVE",
"696 1231 OFFCURVE"
);
}
);
width = 1362;
}
);
unicode = 004F;
},
{
glyphname = P;
lastChange = "2016-07-05 15:19:27 +0000";
layers = (
{
anchors = (
{
name = bottom;
position = "{311, 0}";
},
{
name = top;
position = "{731, 1536}";
}
);
layerId = "C039C1CC-9A8C-45EF-8573-4C10F390742F";
paths = (
{
closed = 1;
nodes = (
"487 0 LINE",
"612 584 LINE",
"623 584 LINE SMOOTH",
"991 584 OFFCURVE",
"1214 872 OFFCURVE",
"1214 1133 CURVE SMOOTH",
"1214 1343 OFFCURVE",
"1067 1536 OFFCURVE",
"731 1536 CURVE SMOOTH",
"389 1536 OFFCURVE",
"12 1276 OFFCURVE",
"12 1004 CURVE SMOOTH",
"12 856 OFFCURVE",
"90 805 OFFCURVE",
"231 805 CURVE",
"231 821 OFFCURVE",
"203 840 OFFCURVE",
"203 944 CURVE SMOOTH",
"203 1257 OFFCURVE",
"399 1442 OFFCURVE",
"733 1442 CURVE SMOOTH",
"913 1442 OFFCURVE",
"987 1315 OFFCURVE",
"987 1163 CURVE SMOOTH",
"987 944 OFFCURVE",
"836 676 OFFCURVE",
"629 659 CURVE",
"774 1343 LINE",
"471 1303 LINE",
"193 0 LINE"
);
}
);
width = 1174;
}
);
unicode = 0050;
},
{
glyphname = Q;
lastChange = "2016-07-05 15:19:35 +0000";
layers = (
{
anchors = (
{
name = bottom;
position = "{588, -12}";
},
{
name = top;
position = "{858, 1536}";
}
);
layerId = "C039C1CC-9A8C-45EF-8573-4C10F390742F";
paths = (
{
closed = 1;
nodes = (
"1253 -55 CURVE",
"1237 -57 OFFCURVE",
"1223 -59 OFFCURVE",
"1208 -59 CURVE SMOOTH",
"1079 -59 OFFCURVE",
"1012 18 OFFCURVE",
"952 106 CURVE",
"1225 309 OFFCURVE",
"1343 725 OFFCURVE",
"1343 1012 CURVE SMOOTH",
"1343 1317 OFFCURVE",
"1217 1536 OFFCURVE",
"858 1536 CURVE SMOOTH",
"426 1536 OFFCURVE",
"33 1264 OFFCURVE",
"33 977 CURVE SMOOTH",
"33 852 OFFCURVE",
"109 805 OFFCURVE",
"240 805 CURVE",
"240 821 OFFCURVE",
"219 836 OFFCURVE",
"219 915 CURVE SMOOTH",
"219 1241 OFFCURVE",
"496 1442 OFFCURVE",
"809 1442 CURVE SMOOTH",
"1024 1442 OFFCURVE",
"1071 1321 OFFCURVE",
"1071 1083 CURVE SMOOTH",
"1071 788 OFFCURVE",
"956 442 OFFCURVE",
"819 266 CURVE",
"776 299 OFFCURVE",
"727 322 OFFCURVE",
"655 322 CURVE SMOOTH",
"621 322 OFFCURVE",
"578 315 OFFCURVE",
"528 303 CURVE",
"522 330 OFFCURVE",
"524 358 OFFCURVE",
"524 391 CURVE SMOOTH",
"524 707 OFFCURVE",
"696 1231 OFFCURVE",
"883 1343 CURVE",
"844 1358 OFFCURVE",
"811 1360 OFFCURVE",
"776 1360 CURVE SMOOTH",
"408 1360 OFFCURVE",
"221 731 OFFCURVE",
"221 399 CURVE SMOOTH",
"221 100 OFFCURVE",
"373 -12 OFFCURVE",
"588 -12 CURVE SMOOTH",
"655 -12 OFFCURVE",
"719 -2 OFFCURVE",
"778 16 CURVE",
"817 -104 OFFCURVE",
"860 -231 OFFCURVE",
"1042 -231 CURVE SMOOTH",
"1130 -231 OFFCURVE",
"1198 -197 OFFCURVE"
);
},
{
closed = 1;
nodes = (
"721 176 CURVE",
"696 160 OFFCURVE",
"668 154 OFFCURVE",
"643 154 CURVE SMOOTH",
"596 154 OFFCURVE",
"563 182 OFFCURVE",
"545 238 CURVE",
"565 244 OFFCURVE",
"586 246 OFFCURVE",
"604 246 CURVE SMOOTH",
"662 246 OFFCURVE",
"696 217 OFFCURVE"
);
}
);
width = 1362;
}
);
unicode = 0051;
},
{
glyphname = R;
lastChange = "2016-07-05 15:19:44 +0000";
layers = (
{
anchors = (
{
name = bottom;
position = "{577, 0}";
},
{
name = top;
position = "{731, 1536}";
}
);
layerId = "C039C1CC-9A8C-45EF-8573-4C10F390742F";
paths = (
{
closed = 1;
nodes = (
"487 0 LINE",
"651 772 LINE",
"678 778 OFFCURVE",
"700 780 OFFCURVE",
"719 780 CURVE SMOOTH",
"811 780 OFFCURVE",
"842 723 OFFCURVE",
"842 641 CURVE SMOOTH",
"842 485 OFFCURVE",
"733 240 OFFCURVE",
"733 102 CURVE SMOOTH",
"733 37 OFFCURVE",
"760 -35 OFFCURVE",
"893 -35 CURVE SMOOTH",
"942 -35 OFFCURVE",
"1008 -25 OFFCURVE",
"1096 0 CURVE",
"1047 18 OFFCURVE",
"1016 72 OFFCURVE",
"1016 135 CURVE SMOOTH",
"1016 266 OFFCURVE",
"1116 483 OFFCURVE",
"1116 653 CURVE SMOOTH",
"1116 750 OFFCURVE",
"1083 827 OFFCURVE",
"975 858 CURVE",
"1116 942 OFFCURVE",
"1196 1083 OFFCURVE",
"1196 1208 CURVE SMOOTH",
"1196 1376 OFFCURVE",
"1053 1536 OFFCURVE",
"731 1536 CURVE SMOOTH",
"389 1536 OFFCURVE",
"12 1276 OFFCURVE",
"12 1004 CURVE SMOOTH",
"12 856 OFFCURVE",
"90 805 OFFCURVE",
"231 805 CURVE",
"231 821 OFFCURVE",
"203 840 OFFCURVE",
"203 944 CURVE SMOOTH",
"203 1255 OFFCURVE",
"424 1442 OFFCURVE",
"756 1442 CURVE SMOOTH",
"915 1442 OFFCURVE",
"981 1341 OFFCURVE",
"981 1227 CURVE SMOOTH",
"981 1071 OFFCURVE",
"860 870 OFFCURVE",
"690 870 CURVE SMOOTH",
"674 870 LINE",
"774 1343 LINE",
"471 1303 LINE",
"193 0 LINE"
);
}
);
width = 1231;
}
);
unicode = 0052;
},
{
glyphname = S;
lastChange = "2016-07-05 15:19:52 +0000";
layers = (
{
anchors = (
{
name = bottom;
position = "{504, 0}";
},
{
name = top;
position = "{768, 1547}";
}
);
layerId = "C039C1CC-9A8C-45EF-8573-4C10F390742F";
paths = (
{
closed = 1;
nodes = (
"1132 1260 CURVE SMOOTH",
"1132 1434 OFFCURVE",
"989 1547 OFFCURVE",
"768 1547 CURVE SMOOTH",
"504 1547 OFFCURVE",
"309 1387 OFFCURVE",
"309 1172 CURVE SMOOTH",
"309 854 OFFCURVE",
"745 660 OFFCURVE",
"745 362 CURVE SMOOTH",
"745 215 OFFCURVE",
"639 106 OFFCURVE",
"495 106 CURVE SMOOTH",
"377 106 OFFCURVE",
"301 182 OFFCURVE",
"301 301 CURVE SMOOTH",
"301 428 OFFCURVE",
"391 510 OFFCURVE",
"534 510 CURVE",
"518 594 OFFCURVE",
"448 645 OFFCURVE",
"352 645 CURVE SMOOTH",
"194 645 OFFCURVE",
"69 504 OFFCURVE",
"69 322 CURVE SMOOTH",
"69 106 OFFCURVE",
"241 -37 OFFCURVE",
"501 -37 CURVE SMOOTH",
"813 -37 OFFCURVE",
"1052 163 OFFCURVE",
"1052 431 CURVE SMOOTH",
"1052 812 OFFCURVE",
"604 970 OFFCURVE",
"604 1241 CURVE SMOOTH",
"604 1362 OFFCURVE",
"680 1448 OFFCURVE",
"790 1448 CURVE SMOOTH",
"880 1448 OFFCURVE",
"936 1393 OFFCURVE",
"936 1305 CURVE SMOOTH",
"936 1235 OFFCURVE",
"903 1168 OFFCURVE",
"852 1131 CURVE",
"882 1090 OFFCURVE",
"925 1067 OFFCURVE",
"977 1067 CURVE SMOOTH",
"1069 1067 OFFCURVE",
"1132 1145 OFFCURVE"
);
}
);
width = 1167;
}
);
unicode = 0053;
},
{
glyphname = T;
lastChange = "2016-07-05 15:20:02 +0000";
layers = (
{
anchors = (
{
name = bottom;
position = "{493, 0}";
},
{
name = center;
position = "{493, 766}";
},
{
name = top;
position = "{758, 1532}";
}
);
layerId = "C039C1CC-9A8C-45EF-8573-4C10F390742F";
paths = (
{
closed = 1;
nodes = (
"616 0 LINE",
"899 1315 LINE",
"1012 1292 OFFCURVE",
"1116 1270 OFFCURVE",
"1217 1270 CURVE SMOOTH",
"1380 1270 OFFCURVE",
"1466 1350 OFFCURVE",
"1473 1530 CURVE",
"1417 1507 OFFCURVE",
"1331 1487 OFFCURVE",
"1235 1487 CURVE SMOOTH",
"1034 1487 OFFCURVE",
"958 1534 OFFCURVE",
"711 1534 CURVE SMOOTH",
"205 1534 OFFCURVE",
"12 1274 OFFCURVE",
"12 1001 CURVE SMOOTH",
"12 854 OFFCURVE",
"90 803 OFFCURVE",
"231 803 CURVE",
"231 819 OFFCURVE",
"203 838 OFFCURVE",
"203 942 CURVE SMOOTH",
"203 1272 OFFCURVE",
"371 1356 OFFCURVE",
"588 1356 CURVE SMOOTH",
"612 1356 LINE",
"322 0 LINE"
);
}
);
width = 985;
}
);
unicode = 0054;
},
{
glyphname = U;
lastChange = "2016-07-05 15:15:31 +0000";
layers = (
{
anchors = (
{
name = bottom;
position = "{733, 0}";
},
{
name = ogonek;
position = "{1319, 10}";
},
{
name = top;
position = "{999, 1532}";
},
{
name = topright;
position = "{1446, 1532}";
}
);
layerId = "C039C1CC-9A8C-45EF-8573-4C10F390742F";
paths = (
{
closed = 1;
nodes = (
"1272 1540 LINE",
"1068 594 LINE SMOOTH",
"1007 311 OFFCURVE",
"901 172 OFFCURVE",
"750 172 CURVE SMOOTH",
"644 172 OFFCURVE",
"590 238 OFFCURVE",
"590 367 CURVE SMOOTH",
"590 426 OFFCURVE",
"603 504 OFFCURVE",
"625 588 CURVE SMOOTH",
"875 1534 LINE",
"838 1542 OFFCURVE",
"806 1544 OFFCURVE",
"760 1544 CURVE SMOOTH",
"355 1544 OFFCURVE",
"-10 1292 OFFCURVE",
"-10 1019 CURVE SMOOTH",
"-10 879 OFFCURVE",
"81 800 OFFCURVE",
"236 800 CURVE",
"200 862 OFFCURVE",
"183 930 OFFCURVE",
"183 996 CURVE SMOOTH",
"183 1180 OFFCURVE",
"314 1360 OFFCURVE",
"556 1425 CURVE",
"347 594 LINE SMOOTH",
"328 518 OFFCURVE",
"318 446 OFFCURVE",
"318 379 CURVE SMOOTH",
"318 121 OFFCURVE",
"457 -14 OFFCURVE",
"728 -14 CURVE SMOOTH",
"1059 -14 OFFCURVE",
"1274 193 OFFCURVE",
"1361 594 CURVE",
"1561 1540 LINE"
);
}
);
width = 1466;
}
);
unicode = 0055;
},
{
glyphname = V;
lastChange = "2016-07-05 15:20:15 +0000";
layers = (
{
anchors = (
{
name = bottom;
position = "{630, 0}";
},
{
name = top;
position = "{1039, 1532}";
}
);
layerId = "C039C1CC-9A8C-45EF-8573-4C10F390742F";
paths = (
{
closed = 1;
nodes = (
"836 0 LINE",
"1405 1526 LINE",
"1262 1526 LINE",
"831 272 LINE",
"813 1532 LINE",
"786 1534 OFFCURVE",
"762 1536 OFFCURVE",
"731 1536 CURVE SMOOTH",
"389 1536 OFFCURVE",
"12 1276 OFFCURVE",
"12 1004 CURVE SMOOTH",
"12 856 OFFCURVE",
"90 805 OFFCURVE",
"231 805 CURVE",
"231 821 OFFCURVE",
"203 840 OFFCURVE",
"203 944 CURVE SMOOTH",
"203 1171 OFFCURVE",
"317 1327 OFFCURVE",
"508 1399 CURVE",
"541 0 LINE"
);
}
);
width = 1260;
}
);
unicode = 0056;
},
{
glyphname = W;
lastChange = "2016-07-05 15:20:22 +0000";
layers = (
{
anchors = (
{
name = bottom;
position = "{985, 0}";
},
{
name = top;
position = "{1332, 1532}";
}
);
layerId = "C039C1CC-9A8C-45EF-8573-4C10F390742F";
paths = (
{
closed = 1;
nodes = (
"1544 0 LINE",
"2114 1526 LINE",
"1970 1526 LINE",
"1540 272 LINE",
"1522 1526 LINE",
"1262 1526 LINE",
"831 272 LINE",
"813 1532 LINE",
"786 1534 OFFCURVE",
"762 1536 OFFCURVE",
"731 1536 CURVE SMOOTH",
"389 1536 OFFCURVE",
"12 1276 OFFCURVE",
"12 1004 CURVE SMOOTH",
"12 856 OFFCURVE",
"90 805 OFFCURVE",
"231 805 CURVE",
"231 821 OFFCURVE",
"203 840 OFFCURVE",
"203 944 CURVE SMOOTH",
"203 1171 OFFCURVE",
"317 1327 OFFCURVE",
"508 1399 CURVE",
"541 0 LINE",
"836 0 LINE",
"1225 1042 LINE",
"1249 0 LINE"
);
}
);
width = 1970;
}
);
unicode = 0057;
},
{
glyphname = X;
lastChange = "2016-07-05 15:20:29 +0000";
layers = (
{
anchors = (
{
name = bottom;
position = "{635, 0}";
},
{
name = top;
position = "{963, 1532}";
}
);
layerId = "C039C1CC-9A8C-45EF-8573-4C10F390742F";
paths = (
{
closed = 1;
nodes = (
"1130 0 LINE",
"938 930 LINE",
"1282 1526 LINE",
"1139 1526 LINE",
"901 1106 LINE",
"813 1532 LINE",
"786 1534 OFFCURVE",
"762 1536 OFFCURVE",
"731 1536 CURVE SMOOTH",
"389 1536 OFFCURVE",
"12 1276 OFFCURVE",
"12 1004 CURVE SMOOTH",
"12 856 OFFCURVE",
"90 805 OFFCURVE",
"231 805 CURVE",
"231 821 OFFCURVE",
"203 840 OFFCURVE",
"203 944 CURVE SMOOTH",
"203 1171 OFFCURVE",
"317 1327 OFFCURVE",
"508 1399 CURVE",
"659 680 LINE",
"274 0 LINE",
"399 0 LINE",
"696 512 LINE",
"805 0 LINE"
);
}
);
width = 1270;
}
);
unicode = 0058;
},
{
glyphname = Y;
lastChange = "2016-07-05 15:15:57 +0000";
layers = (
{
anchors = (
{
name = bottom;
position = "{635, 0}";
},
{
name = top;
position = "{979, 1532}";
},
{
name = topleft;
position = "{20, 1532}";
}
);
layerId = "C039C1CC-9A8C-45EF-8573-4C10F390742F";
paths = (
{
closed = 1;
nodes = (
"897 0 LINE",
"1032 631 LINE",
"1430 1526 LINE",
"1294 1526 LINE",
"991 799 LINE",
"813 1532 LINE",
"786 1534 OFFCURVE",
"762 1536 OFFCURVE",
"731 1536 CURVE SMOOTH",
"389 1536 OFFCURVE",
"12 1276 OFFCURVE",
"12 1004 CURVE SMOOTH",
"12 856 OFFCURVE",
"90 805 OFFCURVE",
"231 805 CURVE",
"231 821 OFFCURVE",
"203 840 OFFCURVE",
"203 944 CURVE SMOOTH",
"203 1171 OFFCURVE",
"317 1327 OFFCURVE",
"508 1399 CURVE",
"705 631 LINE",
"569 0 LINE"
);
}
);
width = 1270;
}
);
unicode = 0059;
},
{
glyphname = Z;
lastChange = "2016-07-05 15:20:38 +0000";
layers = (
{
anchors = (
{
name = bottom;
position = "{401, 0}";
},
{
name = top;
position = "{776, 1532}";
}
);
layerId = "C039C1CC-9A8C-45EF-8573-4C10F390742F";
paths = (
{
closed = 1;
nodes = (
"762 0 LINE SMOOTH",
"924 0 OFFCURVE",
"1024 133 OFFCURVE",
"1024 238 CURVE SMOOTH",
"1024 295 OFFCURVE",
"995 356 OFFCURVE",
"920 356 CURVE SMOOTH",
"864 356 OFFCURVE",
"797 326 OFFCURVE",
"797 238 CURVE SMOOTH",
"797 188 OFFCURVE",
"819 174 OFFCURVE",
"834 174 CURVE",
"807 135 OFFCURVE",
"717 129 OFFCURVE",
"621 129 CURVE SMOOTH",
"553 129 OFFCURVE",
"479 133 OFFCURVE",
"424 133 CURVE",
"1130 1536 LINE",
"428 1536 LINE SMOOTH",
"264 1536 OFFCURVE",
"176 1427 OFFCURVE",
"176 1323 CURVE SMOOTH",
"176 1266 OFFCURVE",
"201 1202 OFFCURVE",
"281 1202 CURVE SMOOTH",
"330 1202 OFFCURVE",
"401 1229 OFFCURVE",
"401 1319 CURVE SMOOTH",
"401 1368 OFFCURVE",
"381 1384 OFFCURVE",
"367 1384 CURVE",
"367 1421 OFFCURVE",
"459 1430 OFFCURVE",
"555 1430 CURVE SMOOTH",
"627 1430 OFFCURVE",
"696 1425 OFFCURVE",
"739 1425 CURVE",
"23 0 LINE"
);
}
);
width = 1110;
}
);
unicode = 005A;
},
{
glyphname = bracketleft;
lastChange = "2016-06-30 17:42:54 +0000";
layers = (
{
layerId = "C039C1CC-9A8C-45EF-8573-4C10F390742F";
paths = (
{
closed = 1;
nodes = (
"446 -375 LINE",
"219 -375 LINE",
"602 1423 LINE",
"829 1423 LINE",
"852 1540 LINE",
"415 1540 LINE",
"-15 -492 LINE",
"422 -492 LINE"
);
}
);
width = 819;
}
);
unicode = 005B;
},
{
glyphname = backslash;
lastChange = "2016-06-30 17:42:54 +0000";
layers = (
{
layerId = "C039C1CC-9A8C-45EF-8573-4C10F390742F";
paths = (
{
closed = 1;
nodes = (
"668 -512 LINE",
"233 1536 LINE",
"86 1536 LINE",
"520 -512 LINE"
);
}
);
width = 741;
}
);
unicode = 005C;
},
{
glyphname = bracketright;
lastChange = "2016-06-30 17:42:54 +0000";
layers = (
{
layerId = "C039C1CC-9A8C-45EF-8573-4C10F390742F";
paths = (
{
closed = 1;
nodes = (
"284 1423 LINE",
"511 1423 LINE",
"128 -375 LINE",
"-99 -375 LINE",
"-122 -492 LINE",
"315 -492 LINE",
"745 1540 LINE",
"308 1540 LINE"
);
}
);
width = 819;
}
);
unicode = 005D;
},
{
glyphname = asciicircum;
lastChange = "2016-06-30 17:42:54 +0000";
layers = (
{
layerId = "C039C1CC-9A8C-45EF-8573-4C10F390742F";
paths = (
{
closed = 1;
nodes = (
"702 1149 LINE",
"580 1536 LINE",
"537 1536 LINE",
"102 1149 LINE",
"193 1149 LINE",
"514 1313 LINE",
"637 1149 LINE"
);
}
);
width = 862;
}
);
unicode = 005E;
},
{
glyphname = underscore;
lastChange = "2016-06-30 17:42:54 +0000";
layers = (
{
layerId = "C039C1CC-9A8C-45EF-8573-4C10F390742F";
paths = (
{
closed = 1;
nodes = (
"793 0 LINE",
"827 162 LINE",
"111 162 LINE",
"74 0 LINE"
);
}
);
width = 909;
}
);
unicode = 005F;
},
{
glyphname = grave;
lastChange = "2016-06-30 17:42:54 +0000";
layers = (
{
layerId = "C039C1CC-9A8C-45EF-8573-4C10F390742F";
paths = (
{
closed = 1;
nodes = (
"211 1149 LINE",
"324 1149 LINE",
"264 1536 LINE",
"49 1536 LINE"
);
}
);
width = 412;
}
);
unicode = 0060;
},
{
glyphname = a;
lastChange = "2016-07-01 15:11:08 +0000";
layers = (
{
anchors = (
{
name = bottom;
position = "{539, 0}";
},
{
name = ogonek;
position = "{969, 10}";
},
{
name = top;
position = "{539, 1024}";
}
);
layerId = "C039C1CC-9A8C-45EF-8573-4C10F390742F";
paths = (
{
closed = 1;
nodes = (
"1077 367 LINE",
"1047 262 OFFCURVE",
"991 174 OFFCURVE",
"911 174 CURVE SMOOTH",
"856 174 OFFCURVE",
"827 203 OFFCURVE",
"827 262 CURVE SMOOTH",
"827 283 OFFCURVE",
"829 305 OFFCURVE",
"836 328 CURVE",
"983 1024 LINE",
"688 1024 LINE",
"666 915 LINE",
"666 930 LINE SMOOTH",
"666 989 OFFCURVE",
"616 1034 OFFCURVE",
"500 1034 CURVE SMOOTH",
"143 1034 OFFCURVE",
"-27 596 OFFCURVE",
"-27 317 CURVE SMOOTH",
"-27 74 OFFCURVE",
"106 -12 OFFCURVE",
"246 -12 CURVE SMOOTH",
"393 -12 OFFCURVE",
"485 84 OFFCURVE",
"551 176 CURVE",
"565 53 OFFCURVE",
"637 -12 OFFCURVE",
"752 -12 CURVE SMOOTH",
"860 -12 OFFCURVE",
"1049 33 OFFCURVE",
"1163 367 CURVE"
);
},
{
closed = 1;
nodes = (
"549 367 LINE SMOOTH",
"522 246 OFFCURVE",
"440 186 OFFCURVE",
"379 186 CURVE SMOOTH",
"342 186 OFFCURVE",
"276 190 OFFCURVE",
"276 346 CURVE SMOOTH",
"276 539 OFFCURVE",
"389 907 OFFCURVE",
"563 907 CURVE SMOOTH",
"629 907 OFFCURVE",
"647 854 OFFCURVE",
"647 829 CURVE"
);
}
);
width = 1077;
}
);
unicode = 0061;
},
{
glyphname = b;
lastChange = "2016-07-01 15:11:08 +0000";
layers = (
{
anchors = (
{
name = bottom;
position = "{455, 0}";
},
{
name = top;
position = "{455, 1024}";
}
);
layerId = "C039C1CC-9A8C-45EF-8573-4C10F390742F";
paths = (
{
closed = 1;
nodes = (
"0 367 LINE",
"-10 328 OFFCURVE",
"-14 289 OFFCURVE",
"-14 250 CURVE SMOOTH",
"-14 86 OFFCURVE",
"84 -12 OFFCURVE",
"272 -12 CURVE SMOOTH",
"707 -12 OFFCURVE",
"834 440 OFFCURVE",
"834 680 CURVE SMOOTH",
"834 940 OFFCURVE",
"735 1030 OFFCURVE",
"592 1030 CURVE SMOOTH",
"551 1030 OFFCURVE",
"508 1024 OFFCURVE",
"424 973 CURVE",
"522 1434 LINE",
"219 1393 LINE"
);
},
{
closed = 1;
nodes = (
"397 848 LINE",
"420 877 OFFCURVE",
"489 885 OFFCURVE",
"518 885 CURVE SMOOTH",
"592 885 OFFCURVE",
"627 788 OFFCURVE",
"627 688 CURVE SMOOTH",
"627 473 OFFCURVE",
"520 186 OFFCURVE",
"387 186 CURVE SMOOTH",
"315 186 OFFCURVE",
"279 217 OFFCURVE",
"279 281 CURVE SMOOTH",
"279 295 OFFCURVE",
"281 311 OFFCURVE",
"285 328 CURVE SMOOTH"
);
}
);
width = 909;
}
);
unicode = 0062;
},
{
glyphname = c;
lastChange = "2016-07-01 15:11:08 +0000";
layers = (
{
anchors = (
{
name = bottom;
position = "{393, 0}";
},
{
name = top;
position = "{393, 1024}";
}
);
layerId = "C039C1CC-9A8C-45EF-8573-4C10F390742F";
paths = (
{
closed = 1;
nodes = (
"786 367 LINE",
"682 252 OFFCURVE",
"586 160 OFFCURVE",
"424 160 CURVE SMOOTH",
"326 160 OFFCURVE",
"276 193 OFFCURVE",
"276 332 CURVE SMOOTH",
"276 559 OFFCURVE",
"410 934 OFFCURVE",
"539 934 CURVE SMOOTH",
"578 934 OFFCURVE",
"596 901 OFFCURVE",
"596 850 CURVE SMOOTH",
"596 815 OFFCURVE",
"588 774 OFFCURVE",
"571 729 CURVE",
"596 713 OFFCURVE",
"621 705 OFFCURVE",
"643 705 CURVE SMOOTH",
"702 705 OFFCURVE",
"752 754 OFFCURVE",
"752 854 CURVE SMOOTH",
"752 946 OFFCURVE",
"705 1042 OFFCURVE",
"524 1042 CURVE SMOOTH",
"109 1042 OFFCURVE",
"-27 551 OFFCURVE",
"-27 313 CURVE SMOOTH",
"-27 82 OFFCURVE",
"98 -12 OFFCURVE",
"293 -12 CURVE SMOOTH",
"563 -12 OFFCURVE",
"741 176 OFFCURVE",
"856 367 CURVE"
);
}
);
width = 786;
}
);
unicode = 0063;
},
{
glyphname = d;
lastChange = "2016-07-12 18:17:09 +0000";
layers = (
{
anchors = (
{
name = bottom;
position = "{538, 0}";
},
{
name = center;
position = "{538, 512}";
},
{
name = top;
position = "{538, 1024}";
},
{
name = topright;
position = "{1113, 1024}";
}
);
layerId = "C039C1CC-9A8C-45EF-8573-4C10F390742F";
paths = (
{
closed = 1;
nodes = (
"1075 367 LINE",
"1044 262 OFFCURVE",
"989 186 OFFCURVE",
"909 186 CURVE SMOOTH",
"852 186 OFFCURVE",
"825 205 OFFCURVE",
"825 262 CURVE SMOOTH",
"825 283 OFFCURVE",
"827 305 OFFCURVE",
"834 328 CURVE",
"1069 1434 LINE",
"766 1393 LINE",
"666 922 LINE",
"666 930 LINE SMOOTH",
"666 989 OFFCURVE",
"616 1034 OFFCURVE",
"500 1034 CURVE SMOOTH",
"143 1034 OFFCURVE",
"-27 596 OFFCURVE",
"-27 317 CURVE SMOOTH",
"-27 74 OFFCURVE",
"106 -12 OFFCURVE",
"246 -12 CURVE SMOOTH",
"391 -12 OFFCURVE",
"489 84 OFFCURVE",
"549 176 CURVE",
"565 61 OFFCURVE",
"637 0 OFFCURVE",
"750 0 CURVE SMOOTH",
"858 0 OFFCURVE",
"1047 33 OFFCURVE",
"1161 367 CURVE"
);
},
{
closed = 1;
nodes = (
"547 356 LINE",
"520 242 OFFCURVE",
"436 186 OFFCURVE",
"379 186 CURVE SMOOTH",
"342 186 OFFCURVE",
"276 190 OFFCURVE",
"276 346 CURVE SMOOTH",
"276 539 OFFCURVE",
"389 907 OFFCURVE",
"563 907 CURVE SMOOTH",
"627 907 OFFCURVE",
"641 860 OFFCURVE",
"647 836 CURVE",
"547 367 LINE"
);
}
);
width = 1075;
}
);
unicode = 0064;
},
{
glyphname = e;
lastChange = "2016-07-05 15:24:11 +0000";
layers = (
{
anchors = (
{
name = bottom;
position = "{393, 0}";
},
{
name = ogonek;
position = "{707, 10}";
},
{
name = top;
position = "{514, 1024}";
}
);
layerId = "C039C1CC-9A8C-45EF-8573-4C10F390742F";
paths = (
{
closed = 1;
nodes = (
"786 367 LINE",
"682 252 OFFCURVE",
"586 160 OFFCURVE",
"424 160 CURVE SMOOTH",
"326 160 OFFCURVE",
"276 193 OFFCURVE",
"276 332 CURVE SMOOTH",
"276 356 OFFCURVE",
"279 383 OFFCURVE",
"281 414 CURVE",
"526 430 OFFCURVE",
"752 608 OFFCURVE",
"752 846 CURVE SMOOTH",
"752 948 OFFCURVE",
"709 1042 OFFCURVE",
"526 1042 CURVE SMOOTH",
"106 1042 OFFCURVE",
"-27 549 OFFCURVE",
"-27 313 CURVE SMOOTH",
"-27 82 OFFCURVE",
"98 -12 OFFCURVE",
"293 -12 CURVE SMOOTH",
"563 -12 OFFCURVE",
"741 176 OFFCURVE",
"856 367 CURVE"
);
},
{
closed = 1;
nodes = (
"297 512 CURVE",
"336 715 OFFCURVE",
"440 934 OFFCURVE",
"543 934 CURVE SMOOTH",
"582 934 OFFCURVE",
"594 901 OFFCURVE",
"594 850 CURVE SMOOTH",
"594 680 OFFCURVE",
"453 522 OFFCURVE"
);
}
);
width = 786;
}
);
unicode = 0065;
},
{
glyphname = f;
lastChange = "2016-07-01 15:11:08 +0000";
layers = (
{
anchors = (
{
name = bottom;
position = "{274, 0}";
},
{
name = top;
position = "{274, 1024}";
}
);
layerId = "C039C1CC-9A8C-45EF-8573-4C10F390742F";
paths = (
{
closed = 1;
nodes = (
"-74 16 LINE",
"-268 -43 OFFCURVE",
"-426 -102 OFFCURVE",
"-426 -291 CURVE SMOOTH",
"-426 -424 OFFCURVE",
"-307 -512 OFFCURVE",
"-184 -512 CURVE SMOOTH",
"-51 -512 OFFCURVE",
"123 -457 OFFCURVE",
"182 -164 CURVE",
"418 942 LINE",
"569 942 LINE",
"584 1024 LINE",
"434 1024 LINE",
"469 1186 LINE",
"496 1323 OFFCURVE",
"569 1354 OFFCURVE",
"612 1354 CURVE SMOOTH",
"653 1354 OFFCURVE",
"690 1331 OFFCURVE",
"690 1284 CURVE SMOOTH",
"690 1266 OFFCURVE",
"688 1251 OFFCURVE",
"686 1229 CURVE",
"782 1229 LINE",
"786 1253 OFFCURVE",
"788 1282 OFFCURVE",
"788 1313 CURVE SMOOTH",
"788 1446 OFFCURVE",
"670 1534 OFFCURVE",
"547 1534 CURVE SMOOTH",
"414 1534 OFFCURVE",
"233 1479 OFFCURVE",
"174 1186 CURVE"
);
},
{
closed = 1;
nodes = (
"-115 -170 LINE SMOOTH",
"-141 -293 OFFCURVE",
"-188 -330 OFFCURVE",
"-231 -330 CURVE SMOOTH",
"-279 -330 OFFCURVE",
"-313 -293 OFFCURVE",
"-313 -262 CURVE SMOOTH",
"-313 -152 OFFCURVE",
"-217 -94 OFFCURVE",
"-88 -51 CURVE"
);
}
);
width = 547;
}
);
unicode = 0066;
},
{
glyphname = g;
lastChange = "2016-07-01 15:11:08 +0000";
layers = (
{
anchors = (
{
name = bottom;
position = "{519, 0}";
},
{
name = top;
position = "{519, 1024}";
}
);
layerId = "C039C1CC-9A8C-45EF-8573-4C10F390742F";
paths = (
{
closed = 1;
nodes = (
"762 -16 LINE",
"889 16 OFFCURVE",
"1042 96 OFFCURVE",
"1124 367 CURVE",
"1038 367 LINE",
"981 188 OFFCURVE",
"905 117 OFFCURVE",
"780 74 CURVE",
"983 1024 LINE",
"688 1024 LINE",
"666 918 LINE",
"666 930 LINE SMOOTH",
"666 989 OFFCURVE",
"616 1034 OFFCURVE",
"500 1034 CURVE SMOOTH",
"143 1034 OFFCURVE",
"-27 596 OFFCURVE",
"-27 317 CURVE SMOOTH",
"-27 74 OFFCURVE",
"106 -12 OFFCURVE",
"246 -12 CURVE SMOOTH",
"352 -12 OFFCURVE",
"432 37 OFFCURVE",
"492 100 CURVE",
"467 -8 LINE",
"313 -57 OFFCURVE",
"133 -141 OFFCURVE",
"133 -313 CURVE SMOOTH",
"133 -446 OFFCURVE",
"238 -512 OFFCURVE",
"362 -512 CURVE SMOOTH",
"498 -512 OFFCURVE",
"672 -457 OFFCURVE",
"731 -164 CURVE SMOOTH"
);
},
{
closed = 1;
nodes = (
"543 346 LINE",
"516 242 OFFCURVE",
"434 186 OFFCURVE",
"379 186 CURVE SMOOTH",
"342 186 OFFCURVE",
"276 190 OFFCURVE",
"276 346 CURVE SMOOTH",
"276 539 OFFCURVE",
"389 907 OFFCURVE",
"563 907 CURVE SMOOTH",
"629 907 OFFCURVE",
"647 856 OFFCURVE",
"647 831 CURVE"
);
},
{
closed = 1;
nodes = (
"434 -170 LINE SMOOTH",
"408 -293 OFFCURVE",
"358 -352 OFFCURVE",
"315 -352 CURVE SMOOTH",
"268 -352 OFFCURVE",
"246 -315 OFFCURVE",
"246 -285 CURVE SMOOTH",
"246 -203 OFFCURVE",
"340 -150 OFFCURVE",
"446 -111 CURVE"
);
}
);
width = 1038;
}
);
unicode = 0067;
},
{
glyphname = h;
lastChange = "2016-07-01 15:11:08 +0000";
layers = (
{
anchors = (
{
name = bottom;
position = "{517, 0}";
},
{
name = center;
position = "{517, 512}";
},
{
name = top;
position = "{517, 1024}";
}
);
layerId = "C039C1CC-9A8C-45EF-8573-4C10F390742F";
paths = (
{
closed = 1;
nodes = (
"1034 367 LINE",
"991 260 OFFCURVE",
"950 186 OFFCURVE",
"862 186 CURVE SMOOTH",
"799 186 OFFCURVE",
"780 221 OFFCURVE",
"780 272 CURVE SMOOTH",
"780 387 OFFCURVE",
"879 635 OFFCURVE",
"879 801 CURVE SMOOTH",
"879 965 OFFCURVE",
"782 1032 OFFCURVE",
"651 1032 CURVE SMOOTH",
"588 1032 OFFCURVE",
"500 1016 OFFCURVE",
"412 918 CURVE",
"522 1434 LINE",
"219 1393 LINE",
"-78 0 LINE",
"217 0 LINE",
"356 657 LINE",
"387 762 OFFCURVE",
"442 846 OFFCURVE",
"516 846 CURVE SMOOTH",
"565 846 OFFCURVE",
"590 811 OFFCURVE",
"590 741 CURVE SMOOTH",
"590 610 OFFCURVE",
"498 358 OFFCURVE",
"498 219 CURVE SMOOTH",
"498 102 OFFCURVE",
"559 -12 OFFCURVE",
"739 -12 CURVE SMOOTH",
"848 -12 OFFCURVE",
"1006 31 OFFCURVE",
"1120 367 CURVE"
);
}
);
width = 1034;
}
);
unicode = 0068;
},
{
glyphname = i;
lastChange = "2016-07-01 15:11:08 +0000";
layers = (
{
anchors = (
{
name = bottom;
position = "{274, 0}";
}
);
layerId = "C039C1CC-9A8C-45EF-8573-4C10F390742F";
paths = (
{
closed = 1;
nodes = (
"506 1296 CURVE SMOOTH",
"506 1386 OFFCURVE",
"432 1460 OFFCURVE",
"342 1460 CURVE SMOOTH",
"252 1460 OFFCURVE",
"180 1386 OFFCURVE",
"180 1296 CURVE SMOOTH",
"180 1206 OFFCURVE",
"252 1135 OFFCURVE",
"342 1135 CURVE SMOOTH",
"432 1135 OFFCURVE",
"506 1206 OFFCURVE"
);
},
{
closed = 1;
nodes = (
"547 367 LINE",
"516 262 OFFCURVE",
"442 186 OFFCURVE",
"362 186 CURVE SMOOTH",
"305 186 OFFCURVE",
"279 205 OFFCURVE",
"279 262 CURVE SMOOTH",
"279 283 OFFCURVE",
"281 305 OFFCURVE",
"287 328 CURVE",
"434 1024 LINE",
"139 1024 LINE",
"0 367 LINE SMOOTH",
"-10 315 OFFCURVE",
"-16 270 OFFCURVE",
"-16 233 CURVE SMOOTH",
"-16 61 OFFCURVE",
"80 -12 OFFCURVE",
"203 -12 CURVE SMOOTH",
"311 -12 OFFCURVE",
"518 33 OFFCURVE",
"633 367 CURVE"
);
}
);
width = 547;
}
);
unicode = 0069;
},
{
glyphname = j;
lastChange = "2016-06-30 17:42:54 +0000";
layers = (
{
layerId = "C039C1CC-9A8C-45EF-8573-4C10F390742F";
paths = (
{
closed = 1;
nodes = (
"215 -16 LINE",
"342 16 OFFCURVE",
"496 96 OFFCURVE",
"578 367 CURVE",
"492 367 LINE",
"434 188 OFFCURVE",
"358 117 OFFCURVE",
"233 74 CURVE",
"436 1024 LINE",
"141 1024 LINE",
"-78 -8 LINE",
"-233 -57 OFFCURVE",
"-414 -143 OFFCURVE",
"-414 -313 CURVE SMOOTH",
"-414 -446 OFFCURVE",
"-309 -512 OFFCURVE",
"-184 -512 CURVE SMOOTH",
"-49 -512 OFFCURVE",
"125 -457 OFFCURVE",
"184 -164 CURVE SMOOTH"
);
},
{
closed = 1;
nodes = (
"489 1298 CURVE SMOOTH",
"489 1389 OFFCURVE",
"416 1462 OFFCURVE",
"326 1462 CURVE SMOOTH",
"236 1462 OFFCURVE",
"164 1389 OFFCURVE",
"164 1298 CURVE SMOOTH",
"164 1208 OFFCURVE",
"236 1137 OFFCURVE",
"326 1137 CURVE SMOOTH",
"416 1137 OFFCURVE",
"489 1208 OFFCURVE"
);
},
{
closed = 1;
nodes = (
"-113 -170 LINE SMOOTH",
"-139 -293 OFFCURVE",
"-188 -352 OFFCURVE",
"-231 -352 CURVE SMOOTH",
"-279 -352 OFFCURVE",
"-301 -315 OFFCURVE",
"-301 -285 CURVE SMOOTH",
"-301 -203 OFFCURVE",
"-207 -150 OFFCURVE",
"-100 -111 CURVE"
);
}
);
width = 492;
}
);
unicode = 006A;
},
{
glyphname = k;
lastChange = "2016-07-01 15:11:08 +0000";
layers = (
{
anchors = (
{
name = bottom;
position = "{531, 0}";
},
{
name = top;
position = "{531, 1024}";
}
);
layerId = "C039C1CC-9A8C-45EF-8573-4C10F390742F";
paths = (
{
closed = 1;
nodes = (
"1061 367 LINE",
"1018 260 OFFCURVE",
"977 186 OFFCURVE",
"889 186 CURVE SMOOTH",
"825 186 OFFCURVE",
"809 221 OFFCURVE",
"809 262 CURVE SMOOTH",
"809 285 OFFCURVE",
"813 305 OFFCURVE",
"819 328 CURVE SMOOTH",
"842 430 LINE SMOOTH",
"848 457 OFFCURVE",
"850 483 OFFCURVE",
"850 508 CURVE SMOOTH",
"850 639 OFFCURVE",
"778 748 OFFCURVE",
"625 748 CURVE SMOOTH",
"602 748 OFFCURVE",
"580 745 OFFCURVE",
"557 739 CURVE",
"967 1024 LINE",
"764 1024 LINE",
"369 713 LINE",
"522 1434 LINE",
"219 1393 LINE",
"-78 0 LINE",
"217 0 LINE",
"324 506 LINE",
"381 553 OFFCURVE",
"428 582 OFFCURVE",
"475 582 CURVE SMOOTH",
"530 582 OFFCURVE",
"549 543 OFFCURVE",
"549 483 CURVE SMOOTH",
"549 461 OFFCURVE",
"547 434 OFFCURVE",
"541 408 CURVE SMOOTH",
"524 328 LINE SMOOTH",
"516 289 OFFCURVE",
"512 252 OFFCURVE",
"512 221 CURVE SMOOTH",
"512 72 OFFCURVE",
"600 -12 OFFCURVE",
"770 -12 CURVE SMOOTH",
"862 -12 OFFCURVE",
"1032 23 OFFCURVE",
"1147 367 CURVE"
);
}
);
width = 1061;
}
);
unicode = 006B;
},
{
glyphname = l;
lastChange = "2016-07-05 15:25:23 +0000";
layers = (
{
anchors = (
{
name = bottom;
position = "{203, -12}";
},
{
name = center;
position = "{274, 512}";
},
{
name = top;
position = "{350, 1457}";
},
{
name = topright;
position = "{527, 1024}";
}
);
layerId = "C039C1CC-9A8C-45EF-8573-4C10F390742F";
paths = (
{
closed = 1;
nodes = (
"547 367 LINE",
"516 262 OFFCURVE",
"442 186 OFFCURVE",
"362 186 CURVE SMOOTH",
"305 186 OFFCURVE",
"279 205 OFFCURVE",
"279 262 CURVE SMOOTH",
"279 283 OFFCURVE",
"281 305 OFFCURVE",
"287 328 CURVE",
"522 1434 LINE",
"219 1393 LINE",
"0 367 LINE SMOOTH",
"-10 315 OFFCURVE",
"-16 270 OFFCURVE",
"-16 233 CURVE SMOOTH",
"-16 61 OFFCURVE",
"80 -12 OFFCURVE",
"203 -12 CURVE SMOOTH",
"311 -12 OFFCURVE",
"518 33 OFFCURVE",
"633 367 CURVE"
);
}
);
width = 547;
}
);
unicode = 006C;
},
{
glyphname = m;
lastChange = "2016-07-01 15:11:08 +0000";
layers = (
{
anchors = (
{
name = bottom;
position = "{770, 0}";
},
{
name = top;
position = "{770, 1024}";
}
);
layerId = "C039C1CC-9A8C-45EF-8573-4C10F390742F";
paths = (
{
closed = 1;
nodes = (
"1540 367 LINE",
"1497 260 OFFCURVE",
"1456 186 OFFCURVE",
"1368 186 CURVE SMOOTH",
"1305 186 OFFCURVE",
"1286 221 OFFCURVE",
"1286 272 CURVE SMOOTH",
"1286 387 OFFCURVE",
"1384 635 OFFCURVE",
"1384 801 CURVE SMOOTH",
"1384 965 OFFCURVE",
"1288 1032 OFFCURVE",
"1157 1032 CURVE SMOOTH",
"1083 1032 OFFCURVE",
"971 1010 OFFCURVE",
"872 858 CURVE",
"850 987 OFFCURVE",
"770 1034 OFFCURVE",
"662 1034 CURVE SMOOTH",
"590 1034 OFFCURVE",
"500 1016 OFFCURVE",
"412 918 CURVE",
"434 1024 LINE",
"139 1024 LINE",
"-78 0 LINE",
"217 0 LINE",
"356 657 LINE",
"387 762 OFFCURVE",
"442 848 OFFCURVE",
"522 848 CURVE SMOOTH",
"569 848 OFFCURVE",
"584 805 OFFCURVE",
"584 758 CURVE SMOOTH",
"584 739 OFFCURVE",
"582 723 OFFCURVE",
"578 707 CURVE SMOOTH",
"428 0 LINE",
"723 0 LINE",
"862 657 LINE",
"893 762 OFFCURVE",
"948 846 OFFCURVE",
"1022 846 CURVE SMOOTH",
"1071 846 OFFCURVE",
"1096 811 OFFCURVE",
"1096 741 CURVE SMOOTH",
"1096 610 OFFCURVE",
"1004 358 OFFCURVE",
"1004 219 CURVE SMOOTH",
"1004 102 OFFCURVE",
"1065 -12 OFFCURVE",
"1245 -12 CURVE SMOOTH",
"1354 -12 OFFCURVE",
"1511 31 OFFCURVE",
"1626 367 CURVE"
);
}
);
width = 1540;
}
);
unicode = 006D;
},
{
glyphname = n;
lastChange = "2016-07-05 15:25:39 +0000";
layers = (
{
anchors = (
{
name = bottom;
position = "{327, 0}";
},
{
name = top;
position = "{559, 1024}";
}
);
layerId = "C039C1CC-9A8C-45EF-8573-4C10F390742F";
paths = (
{
closed = 1;
nodes = (
"1034 367 LINE",
"991 260 OFFCURVE",
"950 186 OFFCURVE",
"862 186 CURVE SMOOTH",
"799 186 OFFCURVE",
"780 221 OFFCURVE",
"780 272 CURVE SMOOTH",
"780 387 OFFCURVE",
"879 635 OFFCURVE",
"879 801 CURVE SMOOTH",
"879 965 OFFCURVE",
"782 1032 OFFCURVE",
"651 1032 CURVE SMOOTH",
"588 1032 OFFCURVE",
"500 1016 OFFCURVE",
"412 918 CURVE",
"434 1024 LINE",
"139 1024 LINE",
"-78 0 LINE",
"217 0 LINE",
"356 657 LINE",
"387 762 OFFCURVE",
"442 846 OFFCURVE",
"516 846 CURVE SMOOTH",
"565 846 OFFCURVE",
"590 811 OFFCURVE",
"590 741 CURVE SMOOTH",
"590 610 OFFCURVE",
"498 358 OFFCURVE",
"498 219 CURVE SMOOTH",
"498 102 OFFCURVE",
"559 -12 OFFCURVE",
"739 -12 CURVE SMOOTH",
"848 -12 OFFCURVE",
"1006 31 OFFCURVE",
"1120 367 CURVE"
);
}
);
width = 1034;
}
);
unicode = 006E;
},
{
glyphname = o;
lastChange = "2016-07-05 15:25:46 +0000";
layers = (
{
anchors = (
{
name = bottom;
position = "{450, 0}";
},
{
name = center;
position = "{450, 512}";
},
{
name = ogonek;
position = "{809, 10}";
},
{
name = top;
position = "{527, 1024}";
},
{
name = topright;
position = "{879, 1024}";
}
);
layerId = "C039C1CC-9A8C-45EF-8573-4C10F390742F";
paths = (
{
closed = 1;
nodes = (
"1133 834 LINE",
"1044 772 OFFCURVE",
"913 711 OFFCURVE",
"817 711 CURVE SMOOTH",
"807 711 OFFCURVE",
"801 711 OFFCURVE",
"795 713 CURVE",
"795 715 LINE",
"795 934 OFFCURVE",
"707 1042 OFFCURVE",
"532 1042 CURVE SMOOTH",
"113 1042 OFFCURVE",
"-29 553 OFFCURVE",
"-29 315 CURVE SMOOTH",
"-29 80 OFFCURVE",
"109 -8 OFFCURVE",
"299 -8 CURVE SMOOTH",
"551 -8 OFFCURVE",
"756 229 OFFCURVE",
"788 608 CURVE",
"938 633 OFFCURVE",
"1071 694 OFFCURVE",
"1151 778 CURVE"
);
},
{
closed = 1;
nodes = (
"618 602 CURVE",
"586 362 OFFCURVE",
"481 176 OFFCURVE",
"381 176 CURVE SMOOTH",
"303 176 OFFCURVE",
"276 207 OFFCURVE",
"276 342 CURVE SMOOTH",
"276 545 OFFCURVE",
"403 918 OFFCURVE",
"549 918 CURVE SMOOTH",
"604 918 OFFCURVE",
"621 887 OFFCURVE",
"627 799 CURVE",
"588 782 OFFCURVE",
"563 745 OFFCURVE",
"563 688 CURVE SMOOTH",
"563 647 OFFCURVE",
"575 612 OFFCURVE"
);
}
);
width = 899;
}
);
unicode = 006F;
},
{
glyphname = p;
lastChange = "2016-07-01 15:11:08 +0000";
layers = (
{
anchors = (
{
name = bottom;
position = "{479, 0}";
},
{
name = top;
position = "{479, 1024}";
}
);
layerId = "C039C1CC-9A8C-45EF-8573-4C10F390742F";
paths = (
{
closed = 1;
nodes = (
"123 -438 LINE",
"229 61 LINE",
"252 23 OFFCURVE",
"299 -12 OFFCURVE",
"403 -12 CURVE SMOOTH",
"801 -12 OFFCURVE",
"907 434 OFFCURVE",
"907 711 CURVE SMOOTH",
"907 954 OFFCURVE",
"797 1034 OFFCURVE",
"657 1034 CURVE SMOOTH",
"553 1034 OFFCURVE",
"477 997 OFFCURVE",
"418 946 CURVE",
"451 1100 LINE",
"156 1100 LINE",
"-186 -512 LINE"
);
},
{
closed = 1;
nodes = (
"383 786 LINE",
"422 852 OFFCURVE",
"477 887 OFFCURVE",
"524 887 CURVE SMOOTH",
"561 887 OFFCURVE",
"627 874 OFFCURVE",
"627 717 CURVE SMOOTH",
"627 526 OFFCURVE",
"555 166 OFFCURVE",
"340 166 CURVE SMOOTH",
"293 166 OFFCURVE",
"270 190 OFFCURVE",
"262 213 CURVE"
);
}
);
width = 958;
}
);
unicode = 0070;
},
{
glyphname = q;
lastChange = "2016-07-01 15:11:08 +0000";
layers = (
{
anchors = (
{
name = bottom;
position = "{498, 0}";
},
{
name = top;
position = "{498, 1024}";
}
);
layerId = "C039C1CC-9A8C-45EF-8573-4C10F390742F";
paths = (
{
closed = 1;
nodes = (
"670 -438 LINE",
"981 1024 LINE",
"686 1024 LINE",
"666 926 LINE",
"666 930 LINE SMOOTH",
"666 989 OFFCURVE",
"616 1034 OFFCURVE",
"500 1034 CURVE SMOOTH",
"143 1034 OFFCURVE",
"-27 596 OFFCURVE",
"-27 317 CURVE SMOOTH",
"-27 74 OFFCURVE",
"106 -12 OFFCURVE",
"246 -12 CURVE SMOOTH",
"350 -12 OFFCURVE",
"430 37 OFFCURVE",
"489 100 CURVE",
"360 -512 LINE"
);
},
{
closed = 1;
nodes = (
"539 332 LINE",
"506 236 OFFCURVE",
"434 186 OFFCURVE",
"379 186 CURVE SMOOTH",
"342 186 OFFCURVE",
"276 190 OFFCURVE",
"276 346 CURVE SMOOTH",
"276 539 OFFCURVE",
"389 907 OFFCURVE",
"563 907 CURVE SMOOTH",
"623 907 OFFCURVE",
"641 862 OFFCURVE",
"647 838 CURVE"
);
}
);
width = 995;
}
);
unicode = 0071;
},
{
glyphname = r;
lastChange = "2016-07-05 15:27:55 +0000";
layers = (
{
anchors = (
{
name = bottom;
position = "{32, 0}";
},
{
name = top;
position = "{385, 1024}";
}
);
layerId = "C039C1CC-9A8C-45EF-8573-4C10F390742F";
paths = (
{
closed = 1;
nodes = (
"217 0 LINE",
"381 778 LINE",
"432 825 OFFCURVE",
"467 856 OFFCURVE",
"530 856 CURVE SMOOTH",
"590 856 OFFCURVE",
"535 721 OFFCURVE",
"649 721 CURVE SMOOTH",
"748 721 OFFCURVE",
"797 799 OFFCURVE",
"797 870 CURVE SMOOTH",
"797 950 OFFCURVE",
"748 1024 OFFCURVE",
"655 1024 CURVE SMOOTH",
"557 1024 OFFCURVE",
"479 961 OFFCURVE",
"408 897 CURVE",
"434 1024 LINE",
"139 1024 LINE",
"-78 0 LINE"
);
}
);
width = 770;
}
);
unicode = 0072;
},
{
glyphname = s;
lastChange = "2016-07-05 15:28:08 +0000";
layers = (
{
anchors = (
{
name = bottom;
position = "{391, 0}";
},
{
name = top;
position = "{437, 1024}";
}
);
layerId = "C039C1CC-9A8C-45EF-8573-4C10F390742F";
paths = (
{
closed = 1;
nodes = (
"782 367 LINE",
"743 332 OFFCURVE",
"694 299 OFFCURVE",
"635 264 CURVE",
"641 287 OFFCURVE",
"643 311 OFFCURVE",
"643 342 CURVE SMOOTH",
"643 479 OFFCURVE",
"621 555 OFFCURVE",
"598 1087 CURVE",
"295 1047 LINE",
"231 844 OFFCURVE",
"158 645 OFFCURVE",
"43 440 CURVE",
"-12 414 OFFCURVE",
"-66 346 OFFCURVE",
"-66 250 CURVE SMOOTH",
"-66 125 OFFCURVE",
"27 -12 OFFCURVE",
"233 -12 CURVE SMOOTH",
"338 -12 OFFCURVE",
"469 20 OFFCURVE",
"555 111 CURVE",
"651 166 OFFCURVE",
"762 244 OFFCURVE",
"868 367 CURVE"
);
},
{
closed = 1;
nodes = (
"43 293 CURVE",
"53 270 OFFCURVE",
"76 266 OFFCURVE",
"98 266 CURVE SMOOTH",
"154 266 OFFCURVE",
"188 317 OFFCURVE",
"188 367 CURVE SMOOTH",
"188 401 OFFCURVE",
"168 424 OFFCURVE",
"141 438 CURVE",
"209 569 OFFCURVE",
"266 692 OFFCURVE",
"307 825 CURVE",
"330 510 OFFCURVE",
"346 446 OFFCURVE",
"346 340 CURVE SMOOTH",
"346 197 OFFCURVE",
"258 150 OFFCURVE",
"168 150 CURVE SMOOTH",
"78 150 OFFCURVE",
"43 197 OFFCURVE"
);
}
);
width = 782;
}
);
unicode = 0073;
},
{
glyphname = t;
lastChange = "2016-07-01 15:11:08 +0000";
layers = (
{
anchors = (
{
name = bottom;
position = "{274, 0}";
},
{
name = center;
position = "{274, 512}";
},
{
name = top;
position = "{274, 1024}";
},
{
name = topright;
position = "{527, 1024}";
}
);
layerId = "C039C1CC-9A8C-45EF-8573-4C10F390742F";
paths = (
{
closed = 1;
nodes = (
"547 367 LINE",
"516 262 OFFCURVE",
"442 186 OFFCURVE",
"362 186 CURVE SMOOTH",
"305 186 OFFCURVE",
"279 205 OFFCURVE",
"279 262 CURVE SMOOTH",
"279 283 OFFCURVE",
"281 305 OFFCURVE",
"287 328 CURVE",
"418 942 LINE",
"541 942 LINE",
"557 1024 LINE",
"434 1024 LINE",
"504 1348 LINE",
"201 1307 LINE",
"139 1024 LINE",
"72 1024 LINE",
"55 942 LINE",
"123 942 LINE",
"0 367 LINE SMOOTH",
"-10 315 OFFCURVE",
"-16 270 OFFCURVE",
"-16 233 CURVE SMOOTH",
"-16 61 OFFCURVE",
"80 -12 OFFCURVE",
"203 -12 CURVE SMOOTH",
"311 -12 OFFCURVE",
"518 33 OFFCURVE",
"633 367 CURVE"
);
}
);
width = 547;
}
);
unicode = 0074;
},
{
glyphname = u;
lastChange = "2016-07-01 15:11:08 +0000";
layers = (
{
anchors = (
{
name = bottom;
position = "{517, 0}";
},
{
name = ogonek;
position = "{931, 10}";
},
{
name = top;
position = "{517, 1024}";
},
{
name = topright;
position = "{1014, 1024}";
}
);
layerId = "C039C1CC-9A8C-45EF-8573-4C10F390742F";
paths = (
{
closed = 1;
nodes = (
"1034 367 LINE",
"1004 262 OFFCURVE",
"948 186 OFFCURVE",
"868 186 CURVE SMOOTH",
"811 186 OFFCURVE",
"784 205 OFFCURVE",
"784 262 CURVE SMOOTH",
"784 283 OFFCURVE",
"786 305 OFFCURVE",
"793 328 CURVE",
"940 1024 LINE",
"645 1024 LINE",
"506 367 LINE",
"475 262 OFFCURVE",
"422 186 OFFCURVE",
"342 186 CURVE SMOOTH",
"295 186 OFFCURVE",
"281 223 OFFCURVE",
"281 270 CURVE SMOOTH",
"281 289 OFFCURVE",
"283 307 OFFCURVE",
"287 328 CURVE SMOOTH",
"434 1024 LINE",
"139 1024 LINE",
"0 367 LINE SMOOTH",
"-10 315 OFFCURVE",
"-16 270 OFFCURVE",
"-16 233 CURVE SMOOTH",
"-16 61 OFFCURVE",
"80 -12 OFFCURVE",
"203 -12 CURVE SMOOTH",
"289 -12 OFFCURVE",
"403 14 OFFCURVE",
"506 182 CURVE",
"520 53 OFFCURVE",
"592 -12 OFFCURVE",
"709 -12 CURVE SMOOTH",
"817 -12 OFFCURVE",
"1006 33 OFFCURVE",
"1120 367 CURVE"
);
}
);
width = 1034;
}
);
unicode = 0075;
},
{
glyphname = v;
lastChange = "2016-07-01 15:11:08 +0000";
layers = (
{
anchors = (
{
name = bottom;
position = "{424, 0}";
},
{
name = top;
position = "{424, 1024}";
}
);
layerId = "C039C1CC-9A8C-45EF-8573-4C10F390742F";
paths = (
{
closed = 1;
nodes = (
"-8 328 LINE SMOOTH",
"-16 289 OFFCURVE",
"-18 252 OFFCURVE",
"-18 229 CURVE SMOOTH",
"-18 66 OFFCURVE",
"78 -12 OFFCURVE",
"233 -12 CURVE SMOOTH",
"651 -12 OFFCURVE",
"817 559 OFFCURVE",
"817 887 CURVE SMOOTH",
"817 977 OFFCURVE",
"786 1065 OFFCURVE",
"688 1065 CURVE SMOOTH",
"600 1065 OFFCURVE",
"561 1018 OFFCURVE",
"561 954 CURVE SMOOTH",
"561 907 OFFCURVE",
"586 850 OFFCURVE",
"635 850 CURVE SMOOTH",
"651 850 OFFCURVE",
"694 856 OFFCURVE",
"700 870 CURVE",
"700 645 OFFCURVE",
"547 186 OFFCURVE",
"346 186 CURVE SMOOTH",
"297 186 OFFCURVE",
"276 213 OFFCURVE",
"276 254 CURVE SMOOTH",
"276 272 OFFCURVE",
"281 297 OFFCURVE",
"287 328 CURVE SMOOTH",
"434 1024 LINE",
"139 1024 LINE"
);
}
);
width = 848;
}
);
unicode = 0076;
},
{
glyphname = w;
lastChange = "2016-07-01 15:11:08 +0000";
layers = (
{
anchors = (
{
name = bottom;
position = "{677, 0}";
},
{
name = top;
position = "{677, 1024}";
}
);
layerId = "C039C1CC-9A8C-45EF-8573-4C10F390742F";
paths = (
{
closed = 1;
nodes = (
"506 367 LINE",
"475 262 OFFCURVE",
"422 186 OFFCURVE",
"342 186 CURVE SMOOTH",
"295 186 OFFCURVE",
"281 229 OFFCURVE",
"281 276 CURVE SMOOTH",
"281 295 OFFCURVE",
"283 311 OFFCURVE",
"287 328 CURVE SMOOTH",
"434 1024 LINE",
"139 1024 LINE",
"0 367 LINE SMOOTH",
"-10 315 OFFCURVE",
"-16 270 OFFCURVE",
"-16 233 CURVE SMOOTH",
"-16 61 OFFCURVE",
"80 -12 OFFCURVE",
"203 -12 CURVE SMOOTH",
"283 -12 OFFCURVE",
"395 12 OFFCURVE",
"494 160 CURVE",
"518 45 OFFCURVE",
"606 -12 OFFCURVE",
"739 -12 CURVE SMOOTH",
"1157 -12 OFFCURVE",
"1323 559 OFFCURVE",
"1323 887 CURVE SMOOTH",
"1323 977 OFFCURVE",
"1292 1065 OFFCURVE",
"1194 1065 CURVE SMOOTH",
"1106 1065 OFFCURVE",
"1067 1018 OFFCURVE",
"1067 954 CURVE SMOOTH",
"1067 907 OFFCURVE",
"1092 850 OFFCURVE",
"1141 850 CURVE SMOOTH",
"1157 850 OFFCURVE",
"1200 856 OFFCURVE",
"1206 870 CURVE",
"1206 645 OFFCURVE",
"1053 186 OFFCURVE",
"852 186 CURVE SMOOTH",
"803 186 OFFCURVE",
"782 213 OFFCURVE",
"782 254 CURVE SMOOTH",
"782 272 OFFCURVE",
"786 297 OFFCURVE",
"793 328 CURVE SMOOTH",
"940 1024 LINE",
"645 1024 LINE"
);
}
);
width = 1354;
}
);
unicode = 0077;
},
{
glyphname = x;
lastChange = "2016-07-01 15:11:08 +0000";
layers = (
{
anchors = (
{
name = bottom;
position = "{535, 0}";
},
{
name = top;
position = "{535, 1024}";
}
);
layerId = "C039C1CC-9A8C-45EF-8573-4C10F390742F";
paths = (
{
closed = 1;
nodes = (
"1069 367 LINE",
"1038 262 OFFCURVE",
"965 186 OFFCURVE",
"885 186 CURVE SMOOTH",
"813 186 OFFCURVE",
"774 231 OFFCURVE",
"758 365 CURVE SMOOTH",
"739 508 LINE",
"930 715 OFFCURVE",
"1024 825 OFFCURVE",
"1024 954 CURVE SMOOTH",
"1024 1044 OFFCURVE",
"985 1141 OFFCURVE",
"909 1141 CURVE SMOOTH",
"836 1141 OFFCURVE",
"770 1112 OFFCURVE",
"770 1040 CURVE SMOOTH",
"770 977 OFFCURVE",
"795 926 OFFCURVE",
"866 926 CURVE SMOOTH",
"877 926 OFFCURVE",
"887 928 OFFCURVE",
"901 930 CURVE",
"895 854 OFFCURVE",
"838 764 OFFCURVE",
"723 635 CURVE",
"705 791 LINE",
"694 895 OFFCURVE",
"647 1034 OFFCURVE",
"483 1034 CURVE SMOOTH",
"207 1034 OFFCURVE",
"66 670 OFFCURVE",
"0 367 CURVE",
"86 367 LINE",
"158 705 OFFCURVE",
"281 866 OFFCURVE",
"360 866 CURVE SMOOTH",
"395 866 OFFCURVE",
"416 834 OFFCURVE",
"438 696 CURVE",
"471 467 LINE",
"57 0 LINE",
"205 0 LINE",
"487 344 LINE",
"528 92 OFFCURVE",
"614 -12 OFFCURVE",
"737 -12 CURVE SMOOTH",
"856 -12 OFFCURVE",
"1047 49 OFFCURVE",
"1155 367 CURVE"
);
}
);
width = 1069;
}
);
unicode = 0078;
},
{
glyphname = y;
lastChange = "2016-07-06 21:30:54 +0000";
layers = (
{
anchors = (
{
name = bottom;
position = "{498, 0}";
},
{
name = top;
position = "{570, 1024}";
}
);
layerId = "C039C1CC-9A8C-45EF-8573-4C10F390742F";
paths = (
{
closed = 1;
nodes = (
"719 -16 LINE",
"846 16 OFFCURVE",
"999 96 OFFCURVE",
"1081 367 CURVE",
"995 367 LINE",
"938 188 OFFCURVE",
"862 117 OFFCURVE",
"737 74 CURVE",
"940 1024 LINE",
"645 1024 LINE",
"502 354 LINE",
"471 258 OFFCURVE",
"418 186 OFFCURVE",
"342 186 CURVE SMOOTH",
"295 186 OFFCURVE",
"281 229 OFFCURVE",
"281 276 CURVE SMOOTH",
"281 295 OFFCURVE",
"283 311 OFFCURVE",
"287 328 CURVE SMOOTH",
"434 1024 LINE",
"139 1024 LINE",
"0 367 LINE SMOOTH",
"-10 315 OFFCURVE",
"-16 270 OFFCURVE",
"-16 233 CURVE SMOOTH",
"-16 61 OFFCURVE",
"80 -12 OFFCURVE",
"203 -12 CURVE SMOOTH",
"274 -12 OFFCURVE",
"360 6 OFFCURVE",
"449 102 CURVE",
"424 -8 LINE",
"270 -57 OFFCURVE",
"90 -141 OFFCURVE",
"90 -313 CURVE SMOOTH",
"90 -446 OFFCURVE",
"195 -512 OFFCURVE",
"319 -512 CURVE SMOOTH",
"455 -512 OFFCURVE",
"629 -457 OFFCURVE",
"688 -164 CURVE SMOOTH"
);
},
{
closed = 1;
nodes = (
"391 -170 LINE SMOOTH",
"365 -293 OFFCURVE",
"315 -352 OFFCURVE",
"272 -352 CURVE SMOOTH",
"225 -352 OFFCURVE",
"203 -315 OFFCURVE",
"203 -285 CURVE SMOOTH",
"203 -203 OFFCURVE",
"297 -150 OFFCURVE",
"403 -111 CURVE"
);
}
);
width = 995;
}
);
unicode = 0079;
},
{
glyphname = z;
lastChange = "2016-07-01 15:11:08 +0000";
layers = (
{
anchors = (
{
name = bottom;
position = "{439, 0}";
},
{
name = top;
position = "{439, 1024}";
}
);
layerId = "C039C1CC-9A8C-45EF-8573-4C10F390742F";
paths = (
{
closed = 1;
nodes = (
"543 0 LINE SMOOTH",
"700 0 OFFCURVE",
"793 125 OFFCURVE",
"793 219 CURVE SMOOTH",
"793 274 OFFCURVE",
"766 317 OFFCURVE",
"702 317 CURVE SMOOTH",
"627 317 OFFCURVE",
"588 268 OFFCURVE",
"588 229 CURVE SMOOTH",
"588 207 OFFCURVE",
"600 188 OFFCURVE",
"627 186 CURVE",
"621 154 OFFCURVE",
"580 145 OFFCURVE",
"530 145 CURVE SMOOTH",
"475 145 OFFCURVE",
"410 156 OFFCURVE",
"375 158 CURVE",
"877 1024 LINE",
"350 1024 LINE SMOOTH",
"203 1024 OFFCURVE",
"113 901 OFFCURVE",
"113 817 CURVE SMOOTH",
"113 758 OFFCURVE",
"160 727 OFFCURVE",
"207 727 CURVE SMOOTH",
"262 727 OFFCURVE",
"317 760 OFFCURVE",
"317 836 CURVE SMOOTH",
"317 883 OFFCURVE",
"295 868 OFFCURVE",
"295 881 CURVE SMOOTH",
"295 911 OFFCURVE",
"344 913 OFFCURVE",
"408 913 CURVE SMOOTH",
"522 913 LINE",
"0 0 LINE"
);
}
);
width = 877;
}
);
unicode = 007A;
},
{
glyphname = braceleft;
lastChange = "2016-06-30 17:42:54 +0000";
layers = (
{
layerId = "C039C1CC-9A8C-45EF-8573-4C10F390742F";
paths = (
{
closed = 1;
nodes = (
"820 1540 LINE",
"732 1540 LINE SMOOTH",
"435 1540 OFFCURVE",
"343 1372 OFFCURVE",
"320 823 CURVE",
"314 641 OFFCURVE",
"275 575 OFFCURVE",
"179 575 CURVE SMOOTH",
"114 575 LINE",
"93 471 LINE",
"157 471 LINE SMOOTH",
"220 471 OFFCURVE",
"241 453 OFFCURVE",
"241 397 CURVE SMOOTH",
"241 225 OFFCURVE",
"95 -92 OFFCURVE",
"95 -268 CURVE SMOOTH",
"95 -418 OFFCURVE",
"208 -512 OFFCURVE",
"388 -512 CURVE SMOOTH",
"447 -512 LINE",
"466 -420 LINE",
"382 -410 OFFCURVE",
"335 -338 OFFCURVE",
"335 -219 CURVE SMOOTH",
"335 -37 OFFCURVE",
"443 217 OFFCURVE",
"443 365 CURVE SMOOTH",
"443 442 OFFCURVE",
"413 485 OFFCURVE",
"329 524 CURVE",
"476 586 OFFCURVE",
"521 641 OFFCURVE",
"533 780 CURVE",
"581 1372 OFFCURVE",
"607 1438 OFFCURVE",
"802 1438 CURVE"
);
}
);
width = 721;
}
);
unicode = 007B;
},
{
glyphname = bar;
lastChange = "2016-06-30 17:42:54 +0000";
layers = (
{
layerId = "C039C1CC-9A8C-45EF-8573-4C10F390742F";
paths = (
{
closed = 1;
nodes = (
"639 -512 LINE",
"639 1538 LINE",
"449 1538 LINE",
"449 -512 LINE"
);
}
);
width = 1090;
}
);
unicode = 007C;
},
{
glyphname = braceright;
lastChange = "2016-06-30 17:42:54 +0000";
layers = (
{
layerId = "C039C1CC-9A8C-45EF-8573-4C10F390742F";
paths = (
{
closed = 1;
nodes = (
"-134 -512 LINE",
"-46 -512 LINE SMOOTH",
"251 -512 OFFCURVE",
"343 -344 OFFCURVE",
"366 205 CURVE",
"372 387 OFFCURVE",
"411 453 OFFCURVE",
"507 453 CURVE SMOOTH",
"573 453 LINE",
"593 557 LINE",
"530 557 LINE SMOOTH",
"466 557 OFFCURVE",
"446 575 OFFCURVE",
"446 631 CURVE SMOOTH",
"446 803 OFFCURVE",
"591 1120 OFFCURVE",
"591 1296 CURVE SMOOTH",
"591 1446 OFFCURVE",
"479 1540 OFFCURVE",
"298 1540 CURVE SMOOTH",
"239 1540 LINE",
"220 1448 LINE",
"304 1438 OFFCURVE",
"352 1366 OFFCURVE",
"352 1247 CURVE SMOOTH",
"352 1065 OFFCURVE",
"243 811 OFFCURVE",
"243 664 CURVE SMOOTH",
"243 586 OFFCURVE",
"274 543 OFFCURVE",
"358 504 CURVE",
"210 442 OFFCURVE",
"165 387 OFFCURVE",
"153 248 CURVE",
"106 -344 OFFCURVE",
"79 -410 OFFCURVE",
"-115 -410 CURVE"
);
}
);
width = 721;
}
);
unicode = 007D;
},
{
glyphname = asciitilde;
lastChange = "2016-06-30 17:42:54 +0000";
layers = (
{
layerId = "C039C1CC-9A8C-45EF-8573-4C10F390742F";
paths = (
{
closed = 1;
nodes = (
"909 1372 LINE",
"879 1341 OFFCURVE",
"831 1325 OFFCURVE",
"780 1325 CURVE SMOOTH",
"662 1325 OFFCURVE",
"590 1393 OFFCURVE",
"442 1393 CURVE SMOOTH",
"287 1393 OFFCURVE",
"166 1323 OFFCURVE",
"100 1192 CURVE",
"113 1188 LINE",
"152 1223 OFFCURVE",
"197 1241 OFFCURVE",
"248 1241 CURVE SMOOTH",
"362 1241 OFFCURVE",
"455 1165 OFFCURVE",
"592 1165 CURVE SMOOTH",
"748 1165 OFFCURVE",
"901 1274 OFFCURVE",
"922 1370 CURVE"
);
}
);
width = 883;
}
);
unicode = 007E;
},
{
glyphname = section;
lastChange = "2016-06-30 17:42:54 +0000";
layers = (
{
layerId = "C039C1CC-9A8C-45EF-8573-4C10F390742F";
paths = (
{
closed = 1;
nodes = (
"799 279 LINE",
"952 311 OFFCURVE",
"1036 463 OFFCURVE",
"1036 621 CURVE SMOOTH",
"1036 958 OFFCURVE",
"631 987 OFFCURVE",
"631 1241 CURVE SMOOTH",
"631 1356 OFFCURVE",
"713 1460 OFFCURVE",
"823 1460 CURVE SMOOTH",
"903 1460 OFFCURVE",
"938 1407 OFFCURVE",
"938 1350 CURVE SMOOTH",
"938 1294 OFFCURVE",
"911 1235 OFFCURVE",
"864 1208 CURVE",
"889 1182 OFFCURVE",
"915 1176 OFFCURVE",
"940 1176 CURVE SMOOTH",
"1024 1176 OFFCURVE",
"1075 1245 OFFCURVE",
"1075 1341 CURVE SMOOTH",
"1075 1522 OFFCURVE",
"885 1536 OFFCURVE",
"809 1536 CURVE SMOOTH",
"602 1536 OFFCURVE",
"375 1425 OFFCURVE",
"375 1182 CURVE SMOOTH",
"375 1155 OFFCURVE",
"379 1126 OFFCURVE",
"385 1096 CURVE",
"262 1049 OFFCURVE",
"172 946 OFFCURVE",
"172 815 CURVE SMOOTH",
"172 551 OFFCURVE",
"541 524 OFFCURVE",
"541 190 CURVE SMOOTH",
"541 51 OFFCURVE",
"477 -8 OFFCURVE",
"377 -8 CURVE SMOOTH",
"254 -8 OFFCURVE",
"209 45 OFFCURVE",
"209 152 CURVE SMOOTH",
"209 256 OFFCURVE",
"252 297 OFFCURVE",
"375 307 CURVE",
"340 354 OFFCURVE",
"295 410 OFFCURVE",
"213 410 CURVE SMOOTH",
"100 410 OFFCURVE",
"16 307 OFFCURVE",
"16 158 CURVE SMOOTH",
"16 -82 OFFCURVE",
"233 -111 OFFCURVE",
"354 -111 CURVE SMOOTH",
"635 -111 OFFCURVE",
"799 37 OFFCURVE",
"799 272 CURVE SMOOTH"
);
},
{
closed = 1;
nodes = (
"786 375 CURVE",
"721 662 OFFCURVE",
"389 754 OFFCURVE",
"389 924 CURVE SMOOTH",
"389 963 OFFCURVE",
"406 981 OFFCURVE",
"428 995 CURVE",
"549 809 OFFCURVE",
"825 741 OFFCURVE",
"825 504 CURVE SMOOTH",
"825 451 OFFCURVE",
"813 408 OFFCURVE"
);
}
);
width = 1110;
}
);
unicode = 00A7;
},
{
glyphname = A.salt;
lastChange = "2016-07-05 15:20:55 +0000";
layers = (
{
anchors = (
{
name = bottom;
position = "{486, 0}";
},
{
name = ogonek;
position = "{1087, 10}";
},
{
name = top;
position = "{994, 1532}";
}
);
layerId = "C039C1CC-9A8C-45EF-8573-4C10F390742F";
paths = (
{
closed = 1;
nodes = (
"940 0 LINE",
"1262 1507 LINE",
"1260 1507 LINE",
"1262 1509 LINE",
"1212 1528 OFFCURVE",
"1147 1538 OFFCURVE",
"1098 1538 CURVE SMOOTH",
"610 1538 OFFCURVE",
"16 385 OFFCURVE",
"16 -2 CURVE SMOOTH",
"16 -219 OFFCURVE",
"150 -225 OFFCURVE",
"291 -231 CURVE",
"291 -215 OFFCURVE",
"262 -221 OFFCURVE",
"262 -117 CURVE SMOOTH",
"262 80 OFFCURVE",
"348 434 OFFCURVE",
"479 750 CURVE",
"803 750 LINE",
"645 0 LINE"
);
},
{
closed = 1;
nodes = (
"825 856 LINE",
"524 856 LINE",
"645 1114 OFFCURVE",
"791 1331 OFFCURVE",
"940 1397 CURVE"
);
}
);
width = 1208;
}
);
},
{
glyphname = AE;
lastChange = "2016-07-05 15:21:04 +0000";
layers = (
{
anchors = (
{
name = bottom;
position = "{671, 0}";
},
{
name = top;
position = "{1366, 1538}";
}
);
layerId = "C039C1CC-9A8C-45EF-8573-4C10F390742F";
paths = (
{
closed = 1;
nodes = (
"1556 0 LINE",
"1599 217 LINE",
"1141 217 LINE",
"1245 707 LINE",
"1554 707 LINE",
"1595 858 LINE",
"1278 858 LINE",
"1389 1376 LINE",
"1468 1346 OFFCURVE",
"1538 1311 OFFCURVE",
"1642 1311 CURVE SMOOTH",
"1810 1311 OFFCURVE",
"1833 1446 OFFCURVE",
"1862 1536 CURVE",
"1772 1505 OFFCURVE",
"1694 1497 OFFCURVE",
"1622 1497 CURVE SMOOTH",
"1479 1497 OFFCURVE",
"1366 1538 OFFCURVE",
"1253 1538 CURVE SMOOTH",
"1012 1538 OFFCURVE",
"745 1257 OFFCURVE",
"539 926 CURVE",
"494 930 OFFCURVE",
"453 932 OFFCURVE",
"418 932 CURVE SMOOTH",
"207 932 OFFCURVE",
"18 821 OFFCURVE",
"18 696 CURVE SMOOTH",
"18 604 OFFCURVE",
"76 567 OFFCURVE",
"135 567 CURVE SMOOTH",
"223 567 OFFCURVE",
"260 604 OFFCURVE",
"260 647 CURVE SMOOTH",
"260 678 OFFCURVE",
"244 711 OFFCURVE",
"233 711 CURVE",
"264 784 OFFCURVE",
"350 809 OFFCURVE",
"473 817 CURVE",
"293 506 OFFCURVE",
"172 172 OFFCURVE",
"172 -2 CURVE SMOOTH",
"172 -219 OFFCURVE",
"305 -225 OFFCURVE",
"446 -231 CURVE",
"446 -215 OFFCURVE",
"418 -221 OFFCURVE",
"418 -117 CURVE SMOOTH",
"418 98 OFFCURVE",
"530 485 OFFCURVE",
"682 817 CURVE",
"770 811 OFFCURVE",
"854 791 OFFCURVE",
"958 743 CURVE",
"801 0 LINE"
);
},
{
closed = 1;
nodes = (
"977 834 LINE",
"897 864 OFFCURVE",
"811 887 OFFCURVE",
"723 903 CURVE",
"838 1135 OFFCURVE",
"971 1323 OFFCURVE",
"1096 1391 CURVE"
);
}
);
width = 1565;
}
);
unicode = 00C6;
},
{
color = 9;
glyphname = Aacute;
lastChange = "2016-07-04 14:17:55 +0000";
layers = (
{
layerId = "C039C1CC-9A8C-45EF-8573-4C10F390742F";
paths = (
{
closed = 1;
nodes = (
"1096 0 LINE",
"1417 1507 LINE",
"1368 1530 OFFCURVE",
"1303 1536 OFFCURVE",
"1255 1536 CURVE SMOOTH",
"1016 1536 OFFCURVE",
"750 1260 OFFCURVE",
"543 932 CURVE",
"500 936 OFFCURVE",
"463 938 OFFCURVE",
"436 938 CURVE SMOOTH",
"197 938 OFFCURVE",
"18 825 OFFCURVE",
"18 686 CURVE SMOOTH",
"18 606 OFFCURVE",
"74 567 OFFCURVE",
"145 567 CURVE SMOOTH",
"209 567 OFFCURVE",
"260 598 OFFCURVE",
"260 647 CURVE SMOOTH",
"260 678 OFFCURVE",
"244 711 OFFCURVE",
"233 711 CURVE",
"260 782 OFFCURVE",
"344 809 OFFCURVE",
"473 817 CURVE",
"293 504 OFFCURVE",
"172 166 OFFCURVE",
"172 -16 CURVE SMOOTH",
"172 -229 OFFCURVE",
"338 -233 OFFCURVE",
"446 -233 CURVE",
"432 -215 OFFCURVE",
"418 -184 OFFCURVE",
"418 -119 CURVE SMOOTH",
"418 94 OFFCURVE",
"530 483 OFFCURVE",
"684 817 CURVE",
"774 809 OFFCURVE",
"854 791 OFFCURVE",
"958 743 CURVE",
"801 0 LINE"
);
},
{
closed = 1;
nodes = (
"977 834 LINE",
"897 866 OFFCURVE",
"809 889 OFFCURVE",
"727 905 CURVE",
"842 1135 OFFCURVE",
"973 1325 OFFCURVE",
"1096 1391 CURVE"
);
},
{
closed = 1;
nodes = (
"1329 1661 LINE",
"1577 2048 LINE",
"1362 2048 LINE",
"1175 1661 LINE"
);
}
);
width = 1368;
}
);
unicode = 00C1;
},
{
color = 9;
glyphname = Acircumflex;
lastChange = "2016-07-04 14:17:55 +0000";
layers = (
{
layerId = "C039C1CC-9A8C-45EF-8573-4C10F390742F";
paths = (
{
closed = 1;
nodes = (
"1096 0 LINE",
"1417 1507 LINE",
"1368 1530 OFFCURVE",
"1303 1536 OFFCURVE",
"1255 1536 CURVE SMOOTH",
"1016 1536 OFFCURVE",
"750 1260 OFFCURVE",
"543 932 CURVE",
"500 936 OFFCURVE",
"463 938 OFFCURVE",
"436 938 CURVE SMOOTH",
"197 938 OFFCURVE",
"18 825 OFFCURVE",
"18 686 CURVE SMOOTH",
"18 606 OFFCURVE",
"74 567 OFFCURVE",
"145 567 CURVE SMOOTH",
"209 567 OFFCURVE",
"260 598 OFFCURVE",
"260 647 CURVE SMOOTH",
"260 678 OFFCURVE",
"244 711 OFFCURVE",
"233 711 CURVE",
"260 782 OFFCURVE",
"344 809 OFFCURVE",
"473 817 CURVE",
"293 504 OFFCURVE",
"172 166 OFFCURVE",
"172 -16 CURVE SMOOTH",
"172 -229 OFFCURVE",
"338 -233 OFFCURVE",
"446 -233 CURVE",
"432 -215 OFFCURVE",
"418 -184 OFFCURVE",
"418 -119 CURVE SMOOTH",
"418 94 OFFCURVE",
"530 483 OFFCURVE",
"684 817 CURVE",
"774 809 OFFCURVE",
"854 791 OFFCURVE",
"958 743 CURVE",
"801 0 LINE"
);
},
{
closed = 1;
nodes = (
"977 834 LINE",
"897 866 OFFCURVE",
"809 889 OFFCURVE",
"727 905 CURVE",
"842 1135 OFFCURVE",
"973 1325 OFFCURVE",
"1096 1391 CURVE"
);
},
{
closed = 1;
nodes = (
"1564 1661 LINE",
"1441 2048 LINE",
"1398 2048 LINE",
"964 1661 LINE",
"1054 1661 LINE",
"1375 1825 LINE",
"1498 1661 LINE"
);
}
);
width = 1368;
}
);
unicode = 00C2;
},
{
glyphname = Adieresis;
lastChange = "2016-06-30 17:42:54 +0000";
layers = (
{
layerId = "C039C1CC-9A8C-45EF-8573-4C10F390742F";
paths = (
{
closed = 1;
nodes = (
"1096 0 LINE",
"1417 1507 LINE",
"1368 1530 OFFCURVE",
"1303 1536 OFFCURVE",
"1255 1536 CURVE SMOOTH",
"1016 1536 OFFCURVE",
"750 1260 OFFCURVE",
"543 932 CURVE",
"500 936 OFFCURVE",
"463 938 OFFCURVE",
"436 938 CURVE SMOOTH",
"197 938 OFFCURVE",
"18 825 OFFCURVE",
"18 686 CURVE SMOOTH",
"18 606 OFFCURVE",
"74 567 OFFCURVE",
"145 567 CURVE SMOOTH",
"209 567 OFFCURVE",
"260 598 OFFCURVE",
"260 647 CURVE SMOOTH",
"260 678 OFFCURVE",
"244 711 OFFCURVE",
"233 711 CURVE",
"260 782 OFFCURVE",
"344 809 OFFCURVE",
"473 817 CURVE",
"293 504 OFFCURVE",
"172 166 OFFCURVE",
"172 -16 CURVE SMOOTH",
"172 -229 OFFCURVE",
"338 -233 OFFCURVE",
"446 -233 CURVE",
"432 -215 OFFCURVE",
"418 -184 OFFCURVE",
"418 -119 CURVE SMOOTH",
"418 94 OFFCURVE",
"530 483 OFFCURVE",
"684 817 CURVE",
"774 809 OFFCURVE",
"854 791 OFFCURVE",
"958 743 CURVE",
"801 0 LINE"
);
},
{
closed = 1;
nodes = (
"977 834 LINE",
"897 866 OFFCURVE",
"809 889 OFFCURVE",
"727 905 CURVE",
"842 1135 OFFCURVE",
"973 1325 OFFCURVE",
"1096 1391 CURVE"
);
},
{
closed = 1;
nodes = (
"1056 1686 CURVE SMOOTH",
"1123 1686 OFFCURVE",
"1180 1739 OFFCURVE",
"1180 1810 CURVE SMOOTH",
"1180 1878 OFFCURVE",
"1123 1935 OFFCURVE",
"1056 1935 CURVE SMOOTH",
"984 1935 OFFCURVE",
"931 1878 OFFCURVE",
"931 1810 CURVE SMOOTH",
"931 1739 OFFCURVE",
"984 1686 OFFCURVE"
);
},
{
closed = 1;
nodes = (
"1549 1810 CURVE SMOOTH",
"1549 1878 OFFCURVE",
"1492 1935 OFFCURVE",
"1424 1935 CURVE SMOOTH",
"1353 1935 OFFCURVE",
"1299 1878 OFFCURVE",
"1299 1810 CURVE SMOOTH",
"1299 1739 OFFCURVE",
"1353 1686 OFFCURVE",
"1424 1686 CURVE SMOOTH",
"1492 1686 OFFCURVE",
"1549 1739 OFFCURVE"
);
}
);
width = 1368;
}
);
unicode = 00C4;
},
{
color = 9;
glyphname = Agrave;
lastChange = "2016-07-04 14:17:55 +0000";
layers = (
{
layerId = "C039C1CC-9A8C-45EF-8573-4C10F390742F";
paths = (
{
closed = 1;
nodes = (
"1096 0 LINE",
"1417 1507 LINE",
"1368 1530 OFFCURVE",
"1303 1536 OFFCURVE",
"1255 1536 CURVE SMOOTH",
"1016 1536 OFFCURVE",
"750 1260 OFFCURVE",
"543 932 CURVE",
"500 936 OFFCURVE",
"463 938 OFFCURVE",
"436 938 CURVE SMOOTH",
"197 938 OFFCURVE",
"18 825 OFFCURVE",
"18 686 CURVE SMOOTH",
"18 606 OFFCURVE",
"74 567 OFFCURVE",
"145 567 CURVE SMOOTH",
"209 567 OFFCURVE",
"260 598 OFFCURVE",
"260 647 CURVE SMOOTH",
"260 678 OFFCURVE",
"244 711 OFFCURVE",
"233 711 CURVE",
"260 782 OFFCURVE",
"344 809 OFFCURVE",
"473 817 CURVE",
"293 504 OFFCURVE",
"172 166 OFFCURVE",
"172 -16 CURVE SMOOTH",
"172 -229 OFFCURVE",
"338 -233 OFFCURVE",
"446 -233 CURVE",
"432 -215 OFFCURVE",
"418 -184 OFFCURVE",
"418 -119 CURVE SMOOTH",
"418 94 OFFCURVE",
"530 483 OFFCURVE",
"684 817 CURVE",
"774 809 OFFCURVE",
"854 791 OFFCURVE",
"958 743 CURVE",
"801 0 LINE"
);
},
{
closed = 1;
nodes = (
"977 834 LINE",
"897 866 OFFCURVE",
"809 889 OFFCURVE",
"727 905 CURVE",
"842 1135 OFFCURVE",
"973 1325 OFFCURVE",
"1096 1391 CURVE"
);
},
{
closed = 1;
nodes = (
"1269 1661 LINE",
"1210 2048 LINE",
"995 2048 LINE",
"1116 1661 LINE"
);
}
);
width = 1368;
}
);
unicode = 00C0;
},
{
glyphname = Aogonek;
lastChange = "2016-06-30 17:42:54 +0000";
layers = (
{
layerId = "C039C1CC-9A8C-45EF-8573-4C10F390742F";
paths = (
{
closed = 1;
nodes = (
"1096 0 LINE",
"1417 1507 LINE",
"1368 1530 OFFCURVE",
"1303 1536 OFFCURVE",
"1255 1536 CURVE SMOOTH",
"1016 1536 OFFCURVE",
"750 1260 OFFCURVE",
"543 932 CURVE",
"500 936 OFFCURVE",
"463 938 OFFCURVE",
"436 938 CURVE SMOOTH",
"197 938 OFFCURVE",
"18 825 OFFCURVE",
"18 686 CURVE SMOOTH",
"18 606 OFFCURVE",
"74 567 OFFCURVE",
"145 567 CURVE SMOOTH",
"209 567 OFFCURVE",
"260 598 OFFCURVE",
"260 647 CURVE SMOOTH",
"260 678 OFFCURVE",
"244 711 OFFCURVE",
"233 711 CURVE",
"260 782 OFFCURVE",
"344 809 OFFCURVE",
"473 817 CURVE",
"293 504 OFFCURVE",
"172 166 OFFCURVE",
"172 -16 CURVE SMOOTH",
"172 -229 OFFCURVE",
"338 -233 OFFCURVE",
"446 -233 CURVE",
"432 -215 OFFCURVE",
"418 -184 OFFCURVE",
"418 -119 CURVE SMOOTH",
"418 94 OFFCURVE",
"530 483 OFFCURVE",
"684 817 CURVE",
"774 809 OFFCURVE",
"854 791 OFFCURVE",
"958 743 CURVE",
"801 0 LINE",
"885 0 LINE",
"788 -78 OFFCURVE",
"739 -164 OFFCURVE",
"739 -236 CURVE SMOOTH",
"739 -307 OFFCURVE",
"788 -395 OFFCURVE",
"901 -395 CURVE SMOOTH",
"1004 -395 OFFCURVE",
"1077 -315 OFFCURVE",
"1124 -268 CURVE",
"1124 -244 OFFCURVE",
"1126 -229 OFFCURVE",
"1128 -205 CURVE",
"1087 -231 OFFCURVE",
"1038 -274 OFFCURVE",
"989 -274 CURVE SMOOTH",
"932 -274 OFFCURVE",
"909 -219 OFFCURVE",
"909 -172 CURVE SMOOTH",
"909 -100 OFFCURVE",
"965 -31 OFFCURVE",
"1020 0 CURVE"
);
},
{
closed = 1;
nodes = (
"977 834 LINE",
"897 866 OFFCURVE",
"809 889 OFFCURVE",
"727 905 CURVE",
"842 1135 OFFCURVE",
"973 1325 OFFCURVE",
"1096 1391 CURVE"
);
}
);
width = 1368;
}
);
unicode = 0104;
},
{
glyphname = Aring;
lastChange = "2016-06-30 17:42:54 +0000";
layers = (
{
layerId = "C039C1CC-9A8C-45EF-8573-4C10F390742F";
paths = (
{
closed = 1;
nodes = (
"1096 0 LINE",
"1417 1507 LINE",
"1368 1530 OFFCURVE",
"1303 1536 OFFCURVE",
"1255 1536 CURVE SMOOTH",
"1016 1536 OFFCURVE",
"750 1260 OFFCURVE",
"543 932 CURVE",
"500 936 OFFCURVE",
"463 938 OFFCURVE",
"436 938 CURVE SMOOTH",
"197 938 OFFCURVE",
"18 825 OFFCURVE",
"18 686 CURVE SMOOTH",
"18 606 OFFCURVE",
"74 567 OFFCURVE",
"145 567 CURVE SMOOTH",
"209 567 OFFCURVE",
"260 598 OFFCURVE",
"260 647 CURVE SMOOTH",
"260 678 OFFCURVE",
"244 711 OFFCURVE",
"233 711 CURVE",
"260 782 OFFCURVE",
"344 809 OFFCURVE",
"473 817 CURVE",
"293 504 OFFCURVE",
"172 166 OFFCURVE",
"172 -16 CURVE SMOOTH",
"172 -229 OFFCURVE",
"338 -233 OFFCURVE",
"446 -233 CURVE",
"432 -215 OFFCURVE",
"418 -184 OFFCURVE",
"418 -119 CURVE SMOOTH",
"418 94 OFFCURVE",
"530 483 OFFCURVE",
"684 817 CURVE",
"774 809 OFFCURVE",
"854 791 OFFCURVE",
"958 743 CURVE",
"801 0 LINE"
);
},
{
closed = 1;
nodes = (
"977 834 LINE",
"897 866 OFFCURVE",
"809 889 OFFCURVE",
"727 905 CURVE",
"842 1135 OFFCURVE",
"973 1325 OFFCURVE",
"1096 1391 CURVE"
);
},
{
closed = 1;
nodes = (
"1405 1815 CURVE SMOOTH",
"1405 1903 OFFCURVE",
"1358 1972 OFFCURVE",
"1257 1972 CURVE SMOOTH",
"1134 1972 OFFCURVE",
"1083 1860 OFFCURVE",
"1083 1786 CURVE SMOOTH",
"1083 1706 OFFCURVE",
"1139 1642 OFFCURVE",
"1227 1642 CURVE SMOOTH",
"1356 1642 OFFCURVE",
"1405 1724 OFFCURVE"
);
},
{
closed = 1;
nodes = (
"1329 1808 CURVE SMOOTH",
"1329 1751 OFFCURVE",
"1298 1714 OFFCURVE",
"1235 1714 CURVE SMOOTH",
"1186 1714 OFFCURVE",
"1165 1743 OFFCURVE",
"1165 1790 CURVE SMOOTH",
"1165 1841 OFFCURVE",
"1190 1905 OFFCURVE",
"1261 1905 CURVE SMOOTH",
"1327 1905 OFFCURVE",
"1329 1849 OFFCURVE"
);
}
);
width = 1368;
}
);
unicode = 00C5;
},
{
color = 9;
glyphname = Atilde;
lastChange = "2016-07-04 14:17:55 +0000";
layers = (
{
layerId = "C039C1CC-9A8C-45EF-8573-4C10F390742F";
paths = (
{
closed = 1;
nodes = (
"1096 0 LINE",
"1417 1507 LINE",
"1368 1530 OFFCURVE",
"1303 1536 OFFCURVE",
"1255 1536 CURVE SMOOTH",
"1016 1536 OFFCURVE",
"750 1260 OFFCURVE",
"543 932 CURVE",
"500 936 OFFCURVE",
"463 938 OFFCURVE",
"436 938 CURVE SMOOTH",
"197 938 OFFCURVE",
"18 825 OFFCURVE",
"18 686 CURVE SMOOTH",
"18 606 OFFCURVE",
"74 567 OFFCURVE",
"145 567 CURVE SMOOTH",
"209 567 OFFCURVE",
"260 598 OFFCURVE",
"260 647 CURVE SMOOTH",
"260 678 OFFCURVE",
"244 711 OFFCURVE",
"233 711 CURVE",
"260 782 OFFCURVE",
"344 809 OFFCURVE",
"473 817 CURVE",
"293 504 OFFCURVE",
"172 166 OFFCURVE",
"172 -16 CURVE SMOOTH",
"172 -229 OFFCURVE",
"338 -233 OFFCURVE",
"446 -233 CURVE",
"432 -215 OFFCURVE",
"418 -184 OFFCURVE",
"418 -119 CURVE SMOOTH",
"418 94 OFFCURVE",
"530 483 OFFCURVE",
"684 817 CURVE",
"774 809 OFFCURVE",
"854 791 OFFCURVE",
"958 743 CURVE",
"801 0 LINE"
);
},
{
closed = 1;
nodes = (
"977 834 LINE",
"897 866 OFFCURVE",
"809 889 OFFCURVE",
"727 905 CURVE",
"842 1135 OFFCURVE",
"973 1325 OFFCURVE",
"1096 1391 CURVE"
);
},
{
closed = 1;
nodes = (
"1647 1884 LINE",
"1616 1853 OFFCURVE",
"1569 1837 OFFCURVE",
"1518 1837 CURVE SMOOTH",
"1399 1837 OFFCURVE",
"1327 1905 OFFCURVE",
"1180 1905 CURVE SMOOTH",
"1024 1905 OFFCURVE",
"903 1835 OFFCURVE",
"838 1704 CURVE",
"850 1700 LINE",
"889 1735 OFFCURVE",
"934 1753 OFFCURVE",
"985 1753 CURVE SMOOTH",
"1100 1753 OFFCURVE",
"1192 1677 OFFCURVE",
"1329 1677 CURVE SMOOTH",
"1485 1677 OFFCURVE",
"1638 1786 OFFCURVE",
"1659 1882 CURVE"
);
}
);
width = 1368;
}
);
unicode = 00C3;
},
{
glyphname = B.salt;
lastChange = "2016-07-05 15:21:15 +0000";
layers = (
{
anchors = (
{
name = bottom;
position = "{601, 0}";
},
{
name = top;
position = "{703, 1536}";
}
);
layerId = "C039C1CC-9A8C-45EF-8573-4C10F390742F";
paths = (
{
closed = 1;
nodes = (
"487 0 LINE",
"500 61 LINE",
"580 -23 OFFCURVE",
"664 -57 OFFCURVE",
"743 -57 CURVE SMOOTH",
"999 -57 OFFCURVE",
"1225 301 OFFCURVE",
"1225 580 CURVE SMOOTH",
"1225 727 OFFCURVE",
"1157 854 OFFCURVE",
"991 885 CURVE",
"1122 965 OFFCURVE",
"1196 1085 OFFCURVE",
"1196 1206 CURVE SMOOTH",
"1196 1376 OFFCURVE",
"1044 1536 OFFCURVE",
"750 1536 CURVE SMOOTH",
"375 1536 OFFCURVE",
"12 1278 OFFCURVE",
"12 993 CURVE SMOOTH",
"12 854 OFFCURVE",
"94 805 OFFCURVE",
"231 805 CURVE",
"231 821 OFFCURVE",
"203 840 OFFCURVE",
"203 944 CURVE SMOOTH",
"203 1255 OFFCURVE",
"440 1442 OFFCURVE",
"723 1442 CURVE SMOOTH",
"930 1442 OFFCURVE",
"981 1341 OFFCURVE",
"981 1233 CURVE SMOOTH",
"981 1069 OFFCURVE",
"860 889 OFFCURVE",
"690 889 CURVE SMOOTH",
"678 889 LINE",
"774 1343 LINE",
"471 1303 LINE",
"193 0 LINE"
);
},
{
closed = 1;
nodes = (
"655 784 LINE",
"694 791 OFFCURVE",
"733 791 OFFCURVE",
"748 791 CURVE SMOOTH",
"877 791 OFFCURVE",
"920 690 OFFCURVE",
"920 573 CURVE SMOOTH",
"920 375 OFFCURVE",
"801 131 OFFCURVE",
"653 131 CURVE SMOOTH",
"612 131 OFFCURVE",
"569 147 OFFCURVE",
"528 190 CURVE"
);
}
);
width = 1296;
}
);
},
{
glyphname = Cacute;
lastChange = "2016-06-30 17:42:54 +0000";
layers = (
{
layerId = "C039C1CC-9A8C-45EF-8573-4C10F390742F";
paths = (
{
closed = 1;
nodes = (
"1024 369 LINE",
"928 240 OFFCURVE",
"786 164 OFFCURVE",
"625 164 CURVE SMOOTH",
"426 164 OFFCURVE",
"379 295 OFFCURVE",
"379 483 CURVE SMOOTH",
"379 901 OFFCURVE",
"578 1440 OFFCURVE",
"805 1440 CURVE SMOOTH",
"897 1440 OFFCURVE",
"930 1380 OFFCURVE",
"930 1315 CURVE SMOOTH",
"930 1235 OFFCURVE",
"885 1151 OFFCURVE",
"836 1126 CURVE",
"874 1079 OFFCURVE",
"920 1073 OFFCURVE",
"952 1073 CURVE SMOOTH",
"1057 1073 OFFCURVE",
"1096 1153 OFFCURVE",
"1096 1262 CURVE SMOOTH",
"1096 1458 OFFCURVE",
"944 1536 OFFCURVE",
"754 1536 CURVE SMOOTH",
"217 1536 OFFCURVE",
"39 842 OFFCURVE",
"39 471 CURVE SMOOTH",
"39 102 OFFCURVE",
"184 -33 OFFCURVE",
"487 -33 CURVE SMOOTH",
"676 -33 OFFCURVE",
"961 74 OFFCURVE",
"1071 348 CURVE"
);
},
{
closed = 1;
nodes = (
"844 1661 LINE",
"1092 2048 LINE",
"877 2048 LINE",
"690 1661 LINE"
);
}
);
width = 1018;
}
);
unicode = 0106;
},
{
glyphname = Ccaron;
lastChange = "2016-06-30 17:42:54 +0000";
layers = (
{
layerId = "C039C1CC-9A8C-45EF-8573-4C10F390742F";
paths = (
{
closed = 1;
nodes = (
"1024 369 LINE",
"928 240 OFFCURVE",
"786 164 OFFCURVE",
"625 164 CURVE SMOOTH",
"426 164 OFFCURVE",
"379 295 OFFCURVE",
"379 483 CURVE SMOOTH",
"379 901 OFFCURVE",
"578 1440 OFFCURVE",
"805 1440 CURVE SMOOTH",
"897 1440 OFFCURVE",
"930 1380 OFFCURVE",
"930 1315 CURVE SMOOTH",
"930 1235 OFFCURVE",
"885 1151 OFFCURVE",
"836 1126 CURVE",
"874 1079 OFFCURVE",
"920 1073 OFFCURVE",
"952 1073 CURVE SMOOTH",
"1057 1073 OFFCURVE",
"1096 1153 OFFCURVE",
"1096 1262 CURVE SMOOTH",
"1096 1458 OFFCURVE",
"944 1536 OFFCURVE",
"754 1536 CURVE SMOOTH",
"217 1536 OFFCURVE",
"39 842 OFFCURVE",
"39 471 CURVE SMOOTH",
"39 102 OFFCURVE",
"184 -33 OFFCURVE",
"487 -33 CURVE SMOOTH",
"676 -33 OFFCURVE",
"961 74 OFFCURVE",
"1071 348 CURVE"
);
},
{
closed = 1;
nodes = (
"1198 2048 LINE",
"1108 2048 LINE",
"786 1884 LINE",
"664 2048 LINE",
"598 2048 LINE",
"721 1661 LINE",
"764 1661 LINE"
);
}
);
width = 1018;
}
);
unicode = 010C;
},
{
glyphname = Ccedilla;
lastChange = "2016-06-30 17:42:54 +0000";
layers = (
{
layerId = "C039C1CC-9A8C-45EF-8573-4C10F390742F";
paths = (
{
closed = 1;
nodes = (
"1024 369 LINE",
"928 240 OFFCURVE",
"786 164 OFFCURVE",
"625 164 CURVE SMOOTH",
"426 164 OFFCURVE",
"379 295 OFFCURVE",
"379 483 CURVE SMOOTH",
"379 901 OFFCURVE",
"578 1440 OFFCURVE",
"805 1440 CURVE SMOOTH",
"897 1440 OFFCURVE",
"930 1380 OFFCURVE",
"930 1315 CURVE SMOOTH",
"930 1235 OFFCURVE",
"885 1151 OFFCURVE",
"836 1126 CURVE",
"874 1079 OFFCURVE",
"920 1073 OFFCURVE",
"952 1073 CURVE SMOOTH",
"1057 1073 OFFCURVE",
"1096 1153 OFFCURVE",
"1096 1262 CURVE SMOOTH",
"1096 1458 OFFCURVE",
"944 1536 OFFCURVE",
"754 1536 CURVE SMOOTH",
"217 1536 OFFCURVE",
"39 842 OFFCURVE",
"39 471 CURVE SMOOTH",
"39 113 OFFCURVE",
"174 -25 OFFCURVE",
"461 -33 CURVE",
"385 -244 LINE",
"408 -233 OFFCURVE",
"436 -219 OFFCURVE",
"492 -219 CURVE SMOOTH",
"549 -219 OFFCURVE",
"571 -254 OFFCURVE",
"571 -293 CURVE SMOOTH",
"571 -336 OFFCURVE",
"545 -379 OFFCURVE",
"510 -379 CURVE SMOOTH",
"451 -379 OFFCURVE",
"440 -324 OFFCURVE",
"358 -324 CURVE SMOOTH",
"319 -324 OFFCURVE",
"295 -356 OFFCURVE",
"276 -389 CURVE",
"336 -420 OFFCURVE",
"391 -446 OFFCURVE",
"496 -446 CURVE SMOOTH",
"616 -446 OFFCURVE",
"741 -369 OFFCURVE",
"741 -221 CURVE SMOOTH",
"741 -158 OFFCURVE",
"702 -119 OFFCURVE",
"614 -119 CURVE SMOOTH",
"586 -119 OFFCURVE",
"549 -125 OFFCURVE",
"506 -135 CURVE",
"549 -29 LINE",
"733 -8 OFFCURVE",
"973 102 OFFCURVE",
"1071 348 CURVE"
);
}
);
width = 1018;
}
);
unicode = 00C7;
},
{
glyphname = Ccircumflex;
lastChange = "2016-06-30 17:42:54 +0000";
layers = (
{
layerId = "C039C1CC-9A8C-45EF-8573-4C10F390742F";
paths = (
{
closed = 1;
nodes = (
"1024 369 LINE",
"928 240 OFFCURVE",
"786 164 OFFCURVE",
"625 164 CURVE SMOOTH",
"426 164 OFFCURVE",
"379 295 OFFCURVE",
"379 483 CURVE SMOOTH",
"379 901 OFFCURVE",
"578 1440 OFFCURVE",
"805 1440 CURVE SMOOTH",
"897 1440 OFFCURVE",
"930 1380 OFFCURVE",
"930 1315 CURVE SMOOTH",
"930 1235 OFFCURVE",
"885 1151 OFFCURVE",
"836 1126 CURVE",
"874 1079 OFFCURVE",
"920 1073 OFFCURVE",
"952 1073 CURVE SMOOTH",
"1057 1073 OFFCURVE",
"1096 1153 OFFCURVE",
"1096 1262 CURVE SMOOTH",
"1096 1458 OFFCURVE",
"944 1536 OFFCURVE",
"754 1536 CURVE SMOOTH",
"217 1536 OFFCURVE",
"39 842 OFFCURVE",
"39 471 CURVE SMOOTH",
"39 102 OFFCURVE",
"184 -33 OFFCURVE",
"487 -33 CURVE SMOOTH",
"676 -33 OFFCURVE",
"961 74 OFFCURVE",
"1071 348 CURVE"
);
},
{
closed = 1;
nodes = (
"1014 1661 LINE",
"891 2048 LINE",
"848 2048 LINE",
"414 1661 LINE",
"504 1661 LINE",
"825 1825 LINE",
"948 1661 LINE"
);
}
);
width = 1018;
}
);
unicode = 0108;
},
{
glyphname = E.salt;
lastChange = "2016-07-05 15:17:14 +0000";
layers = (
{
anchors = (
{
name = bottom;
position = "{568, 0}";
},
{
name = ogonek;
position = "{1021, 10}";
},
{
name = top;
position = "{799, 1536}";
},
{
name = topleft;
position = "{20, 1532}";
}
);
layerId = "C039C1CC-9A8C-45EF-8573-4C10F390742F";
paths = (
{
closed = 1;
nodes = (
"936 0 LINE",
"977 207 LINE",
"518 207 LINE",
"627 707 LINE",
"934 707 LINE",
"975 858 LINE",
"659 858 LINE",
"760 1329 LINE",
"856 1307 OFFCURVE",
"950 1290 OFFCURVE",
"1047 1290 CURVE",
"1204 1323 OFFCURVE",
"1214 1452 OFFCURVE",
"1241 1536 CURVE",
"1184 1518 OFFCURVE",
"1120 1511 OFFCURVE",
"1057 1511 CURVE SMOOTH",
"926 1511 OFFCURVE",
"799 1536 OFFCURVE",
"717 1536 CURVE SMOOTH",
"211 1536 OFFCURVE",
"18 1276 OFFCURVE",
"18 1004 CURVE SMOOTH",
"18 856 OFFCURVE",
"96 805 OFFCURVE",
"238 805 CURVE",
"238 821 OFFCURVE",
"209 840 OFFCURVE",
"209 944 CURVE SMOOTH",
"209 1272 OFFCURVE",
"317 1362 OFFCURVE",
"475 1368 CURVE",
"180 0 LINE"
);
}
);
width = 1135;
}
);
},
{
glyphname = E_x;
lastChange = "2016-07-05 11:23:07 +0000";
layers = (
{
anchors = (
{
name = bottom_1;
position = "{408, 0}";
},
{
name = bottom_2;
position = "{1224, 0}";
},
{
name = caret_1;
position = "{816, 0}";
},
{
name = ogonek_1;
position = "{0, 0}";
},
{
name = ogonek_2;
position = "{0, 0}";
},
{
name = top_1;
position = "{408, 1024}";
},
{
name = top_2;
position = "{1224, 1024}";
},
{
name = topleft_1;
position = "{0, 0}";
},
{
name = topleft_2;
position = "{0, 0}";
}
);
layerId = "C039C1CC-9A8C-45EF-8573-4C10F390742F";
paths = (
{
closed = 1;
nodes = (
"1632 367 LINE",
"1602 262 OFFCURVE",
"1528 186 OFFCURVE",
"1448 186 CURVE SMOOTH",
"1356 186 OFFCURVE",
"1343 291 OFFCURVE",
"1327 367 CURVE",
"1309 469 LINE",
"1511 682 OFFCURVE",
"1602 823 OFFCURVE",
"1602 956 CURVE SMOOTH",
"1602 1057 OFFCURVE",
"1554 1139 OFFCURVE",
"1462 1139 CURVE SMOOTH",
"1399 1139 OFFCURVE",
"1348 1106 OFFCURVE",
"1348 1042 CURVE SMOOTH",
"1348 979 OFFCURVE",
"1372 928 OFFCURVE",
"1444 928 CURVE SMOOTH",
"1454 928 OFFCURVE",
"1464 930 OFFCURVE",
"1479 932 CURVE",
"1481 926 OFFCURVE",
"1481 918 OFFCURVE",
"1481 907 CURVE SMOOTH",
"1481 834 OFFCURVE",
"1409 713 OFFCURVE",
"1286 582 CURVE",
"1221 946 LINE",
"932 946 LINE",
"1034 385 LINE",
"915 250 OFFCURVE",
"729 158 OFFCURVE",
"580 158 CURVE SMOOTH",
"459 158 OFFCURVE",
"371 219 OFFCURVE",
"371 367 CURVE SMOOTH",
"371 555 OFFCURVE",
"518 807 OFFCURVE",
"737 856 CURVE",
"590 895 OFFCURVE",
"530 1010 OFFCURVE",
"530 1130 CURVE SMOOTH",
"530 1274 OFFCURVE",
"616 1419 OFFCURVE",
"739 1419 CURVE SMOOTH",
"795 1419 OFFCURVE",
"852 1389 OFFCURVE",
"852 1305 CURVE SMOOTH",
"852 1233 OFFCURVE",
"811 1143 OFFCURVE",
"762 1126 CURVE",
"788 1090 OFFCURVE",
"821 1071 OFFCURVE",
"858 1071 CURVE SMOOTH",
"940 1071 OFFCURVE",
"1010 1161 OFFCURVE",
"1010 1284 CURVE SMOOTH",
"1010 1452 OFFCURVE",
"881 1540 OFFCURVE",
"717 1540 CURVE SMOOTH",
"455 1540 OFFCURVE",
"268 1311 OFFCURVE",
"268 1100 CURVE SMOOTH",
"268 1008 OFFCURVE",
"305 918 OFFCURVE",
"393 854 CURVE",
"156 793 OFFCURVE",
"14 539 OFFCURVE",
"14 324 CURVE SMOOTH",
"14 68 OFFCURVE",
"190 -33 OFFCURVE",
"403 -33 CURVE SMOOTH",
"633 -33 OFFCURVE",
"913 84 OFFCURVE",
"1061 258 CURVE",
"1108 68 OFFCURVE",
"1165 -12 OFFCURVE",
"1296 -12 CURVE SMOOTH",
"1407 -12 OFFCURVE",
"1604 33 OFFCURVE",
"1718 367 CURVE"
);
}
);
width = 1632;
}
);
},
{
color = 9;
glyphname = Eacute;
lastChange = "2016-07-04 14:17:55 +0000";
layers = (
{
layerId = "C039C1CC-9A8C-45EF-8573-4C10F390742F";
paths = (
{
closed = 1;
nodes = (
"944 369 LINE",
"868 231 OFFCURVE",
"690 160 OFFCURVE",
"565 160 CURVE SMOOTH",
"426 160 OFFCURVE",
"371 252 OFFCURVE",
"371 367 CURVE SMOOTH",
"371 555 OFFCURVE",
"518 807 OFFCURVE",
"737 856 CURVE",
"590 895 OFFCURVE",
"530 1010 OFFCURVE",
"530 1130 CURVE SMOOTH",
"530 1274 OFFCURVE",
"616 1419 OFFCURVE",
"739 1419 CURVE SMOOTH",
"795 1419 OFFCURVE",
"852 1389 OFFCURVE",
"852 1305 CURVE SMOOTH",
"852 1233 OFFCURVE",
"811 1143 OFFCURVE",
"762 1126 CURVE",
"788 1090 OFFCURVE",
"821 1071 OFFCURVE",
"858 1071 CURVE SMOOTH",
"940 1071 OFFCURVE",
"1010 1161 OFFCURVE",
"1010 1284 CURVE SMOOTH",
"1010 1452 OFFCURVE",
"881 1540 OFFCURVE",
"717 1540 CURVE SMOOTH",
"455 1540 OFFCURVE",
"268 1311 OFFCURVE",
"268 1100 CURVE SMOOTH",
"268 1008 OFFCURVE",
"305 918 OFFCURVE",
"393 854 CURVE",
"156 793 OFFCURVE",
"14 539 OFFCURVE",
"14 324 CURVE SMOOTH",
"14 133 OFFCURVE",
"127 -37 OFFCURVE",
"391 -37 CURVE SMOOTH",
"639 -37 OFFCURVE",
"883 109 OFFCURVE",
"991 348 CURVE"
);
},
{
closed = 1;
nodes = (
"829 1661 LINE",
"1077 2048 LINE",
"862 2048 LINE",
"676 1661 LINE"
);
}
);
width = 940;
}
);
unicode = 00C9;
},
{
color = 9;
glyphname = Ecircumflex;
lastChange = "2016-07-04 14:17:55 +0000";
layers = (
{
layerId = "C039C1CC-9A8C-45EF-8573-4C10F390742F";
paths = (
{
closed = 1;
nodes = (
"944 369 LINE",
"868 231 OFFCURVE",
"690 160 OFFCURVE",
"565 160 CURVE SMOOTH",
"426 160 OFFCURVE",
"371 252 OFFCURVE",
"371 367 CURVE SMOOTH",
"371 555 OFFCURVE",
"518 807 OFFCURVE",
"737 856 CURVE",
"590 895 OFFCURVE",
"530 1010 OFFCURVE",
"530 1130 CURVE SMOOTH",
"530 1274 OFFCURVE",
"616 1419 OFFCURVE",
"739 1419 CURVE SMOOTH",
"795 1419 OFFCURVE",
"852 1389 OFFCURVE",
"852 1305 CURVE SMOOTH",
"852 1233 OFFCURVE",
"811 1143 OFFCURVE",
"762 1126 CURVE",
"788 1090 OFFCURVE",
"821 1071 OFFCURVE",
"858 1071 CURVE SMOOTH",
"940 1071 OFFCURVE",
"1010 1161 OFFCURVE",
"1010 1284 CURVE SMOOTH",
"1010 1452 OFFCURVE",
"881 1540 OFFCURVE",
"717 1540 CURVE SMOOTH",
"455 1540 OFFCURVE",
"268 1311 OFFCURVE",
"268 1100 CURVE SMOOTH",
"268 1008 OFFCURVE",
"305 918 OFFCURVE",
"393 854 CURVE",
"156 793 OFFCURVE",
"14 539 OFFCURVE",
"14 324 CURVE SMOOTH",
"14 133 OFFCURVE",
"127 -37 OFFCURVE",
"391 -37 CURVE SMOOTH",
"639 -37 OFFCURVE",
"883 109 OFFCURVE",
"991 348 CURVE"
);
},
{
closed = 1;
nodes = (
"1014 1661 LINE",
"891 2048 LINE",
"848 2048 LINE",
"414 1661 LINE",
"504 1661 LINE",
"825 1825 LINE",
"948 1661 LINE"
);
}
);
width = 940;
}
);
unicode = 00CA;
},
{
glyphname = Edieresis;
lastChange = "2016-06-30 17:42:54 +0000";
layers = (
{
layerId = "C039C1CC-9A8C-45EF-8573-4C10F390742F";
paths = (
{
closed = 1;
nodes = (
"944 369 LINE",
"868 231 OFFCURVE",
"690 160 OFFCURVE",
"565 160 CURVE SMOOTH",
"426 160 OFFCURVE",
"371 252 OFFCURVE",
"371 367 CURVE SMOOTH",
"371 555 OFFCURVE",
"518 807 OFFCURVE",
"737 856 CURVE",
"590 895 OFFCURVE",
"530 1010 OFFCURVE",
"530 1130 CURVE SMOOTH",
"530 1274 OFFCURVE",
"616 1419 OFFCURVE",
"739 1419 CURVE SMOOTH",
"795 1419 OFFCURVE",
"852 1389 OFFCURVE",
"852 1305 CURVE SMOOTH",
"852 1233 OFFCURVE",
"811 1143 OFFCURVE",
"762 1126 CURVE",
"788 1090 OFFCURVE",
"821 1071 OFFCURVE",
"858 1071 CURVE SMOOTH",
"940 1071 OFFCURVE",
"1010 1161 OFFCURVE",
"1010 1284 CURVE SMOOTH",
"1010 1452 OFFCURVE",
"881 1540 OFFCURVE",
"717 1540 CURVE SMOOTH",
"455 1540 OFFCURVE",
"268 1311 OFFCURVE",
"268 1100 CURVE SMOOTH",
"268 1008 OFFCURVE",
"305 918 OFFCURVE",
"393 854 CURVE",
"156 793 OFFCURVE",
"14 539 OFFCURVE",
"14 324 CURVE SMOOTH",
"14 133 OFFCURVE",
"127 -37 OFFCURVE",
"391 -37 CURVE SMOOTH",
"639 -37 OFFCURVE",
"883 109 OFFCURVE",
"991 348 CURVE"
);
},
{
closed = 1;
nodes = (
"737 1810 CURVE SMOOTH",
"737 1878 OFFCURVE",
"680 1935 OFFCURVE",
"612 1935 CURVE SMOOTH",
"541 1935 OFFCURVE",
"487 1878 OFFCURVE",
"487 1810 CURVE SMOOTH",
"487 1739 OFFCURVE",
"541 1686 OFFCURVE",
"612 1686 CURVE SMOOTH",
"680 1686 OFFCURVE",
"737 1739 OFFCURVE"
);
},
{
closed = 1;
nodes = (
"1106 1810 CURVE SMOOTH",
"1106 1878 OFFCURVE",
"1049 1935 OFFCURVE",
"981 1935 CURVE SMOOTH",
"909 1935 OFFCURVE",
"856 1878 OFFCURVE",
"856 1810 CURVE SMOOTH",
"856 1739 OFFCURVE",
"909 1686 OFFCURVE",
"981 1686 CURVE SMOOTH",
"1049 1686 OFFCURVE",
"1106 1739 OFFCURVE"
);
}
);
width = 940;
}
);
unicode = 00CB;
},
{
color = 9;
glyphname = Egrave;
lastChange = "2016-07-04 14:17:55 +0000";
layers = (
{
layerId = "C039C1CC-9A8C-45EF-8573-4C10F390742F";
paths = (
{
closed = 1;
nodes = (
"944 369 LINE",
"868 231 OFFCURVE",
"690 160 OFFCURVE",
"565 160 CURVE SMOOTH",
"426 160 OFFCURVE",
"371 252 OFFCURVE",
"371 367 CURVE SMOOTH",
"371 555 OFFCURVE",
"518 807 OFFCURVE",
"737 856 CURVE",
"590 895 OFFCURVE",
"530 1010 OFFCURVE",
"530 1130 CURVE SMOOTH",
"530 1274 OFFCURVE",
"616 1419 OFFCURVE",
"739 1419 CURVE SMOOTH",
"795 1419 OFFCURVE",
"852 1389 OFFCURVE",
"852 1305 CURVE SMOOTH",
"852 1233 OFFCURVE",
"811 1143 OFFCURVE",
"762 1126 CURVE",
"788 1090 OFFCURVE",
"821 1071 OFFCURVE",
"858 1071 CURVE SMOOTH",
"940 1071 OFFCURVE",
"1010 1161 OFFCURVE",
"1010 1284 CURVE SMOOTH",
"1010 1452 OFFCURVE",
"881 1540 OFFCURVE",
"717 1540 CURVE SMOOTH",
"455 1540 OFFCURVE",
"268 1311 OFFCURVE",
"268 1100 CURVE SMOOTH",
"268 1008 OFFCURVE",
"305 918 OFFCURVE",
"393 854 CURVE",
"156 793 OFFCURVE",
"14 539 OFFCURVE",
"14 324 CURVE SMOOTH",
"14 133 OFFCURVE",
"127 -37 OFFCURVE",
"391 -37 CURVE SMOOTH",
"639 -37 OFFCURVE",
"883 109 OFFCURVE",
"991 348 CURVE"
);
},
{
closed = 1;
nodes = (
"791 1661 LINE",
"731 2048 LINE",
"516 2048 LINE",
"637 1661 LINE"
);
}
);
width = 940;
}
);
unicode = 00C8;
},
{
glyphname = Eogonek;
lastChange = "2016-07-01 15:11:02 +0000";
layers = (
{
anchors = (
{
name = top;
position = "{470, 1532}";
}
);
layerId = "C039C1CC-9A8C-45EF-8573-4C10F390742F";
paths = (
{
closed = 1;
nodes = (
"944 369 LINE",
"868 238 OFFCURVE",
"778 172 OFFCURVE",
"621 172 CURVE SMOOTH",
"489 172 OFFCURVE",
"381 295 OFFCURVE",
"381 444 CURVE SMOOTH",
"381 588 OFFCURVE",
"477 748 OFFCURVE",
"737 856 CURVE",
"543 944 OFFCURVE",
"467 1073 OFFCURVE",
"467 1194 CURVE SMOOTH",
"467 1331 OFFCURVE",
"569 1446 OFFCURVE",
"717 1446 CURVE SMOOTH",
"848 1446 OFFCURVE",
"852 1327 OFFCURVE",
"852 1294 CURVE SMOOTH",
"852 1243 OFFCURVE",
"811 1143 OFFCURVE",
"762 1126 CURVE",
"801 1079 OFFCURVE",
"846 1073 OFFCURVE",
"879 1073 CURVE SMOOTH",
"983 1073 OFFCURVE",
"1022 1153 OFFCURVE",
"1022 1262 CURVE SMOOTH",
"1022 1458 OFFCURVE",
"836 1536 OFFCURVE",
"645 1536 CURVE SMOOTH",
"354 1536 OFFCURVE",
"190 1352 OFFCURVE",
"190 1165 CURVE SMOOTH",
"190 1049 OFFCURVE",
"254 930 OFFCURVE",
"393 854 CURVE",
"147 805 OFFCURVE",
"23 596 OFFCURVE",
"23 401 CURVE SMOOTH",
"23 190 OFFCURVE",
"164 -12 OFFCURVE",
"446 -12 CURVE SMOOTH",
"496 -12 OFFCURVE",
"549 -8 OFFCURVE",
"600 2 CURVE",
"504 -74 OFFCURVE",
"453 -162 OFFCURVE",
"453 -236 CURVE SMOOTH",
"453 -307 OFFCURVE",
"502 -395 OFFCURVE",
"614 -395 CURVE SMOOTH",
"717 -395 OFFCURVE",
"791 -315 OFFCURVE",
"838 -268 CURVE",
"838 -244 OFFCURVE",
"840 -229 OFFCURVE",
"842 -205 CURVE",
"801 -231 OFFCURVE",
"752 -274 OFFCURVE",
"702 -274 CURVE SMOOTH",
"645 -274 OFFCURVE",
"623 -219 OFFCURVE",
"623 -172 CURVE SMOOTH",
"623 82 OFFCURVE",
"895 57 OFFCURVE",
"991 348 CURVE"
);
}
);
width = 940;
}
);
unicode = 0118;
},
{
glyphname = Eth;
lastChange = "2016-06-30 17:42:54 +0000";
layers = (
{
layerId = "C039C1CC-9A8C-45EF-8573-4C10F390742F";
paths = (
{
closed = 1;
nodes = (
"487 0 LINE",
"504 82 LINE",
"592 6 OFFCURVE",
"674 -27 OFFCURVE",
"754 -27 CURVE SMOOTH",
"1057 -27 OFFCURVE",
"1321 453 OFFCURVE",
"1321 983 CURVE SMOOTH",
"1321 1270 OFFCURVE",
"1204 1536 OFFCURVE",
"731 1536 CURVE SMOOTH",
"389 1536 OFFCURVE",
"12 1276 OFFCURVE",
"12 1004 CURVE SMOOTH",
"12 856 OFFCURVE",
"90 805 OFFCURVE",
"231 805 CURVE",
"231 821 OFFCURVE",
"203 840 OFFCURVE",
"203 944 CURVE SMOOTH",
"203 1255 OFFCURVE",
"424 1442 OFFCURVE",
"756 1442 CURVE SMOOTH",
"991 1442 OFFCURVE",
"1038 1296 OFFCURVE",
"1038 1040 CURVE SMOOTH",
"1038 647 OFFCURVE",
"889 154 OFFCURVE",
"645 154 CURVE SMOOTH",
"604 154 OFFCURVE",
"565 168 OFFCURVE",
"528 195 CURVE",
"637 707 LINE",
"791 707 LINE",
"831 858 LINE",
"670 858 LINE",
"774 1343 LINE",
"471 1303 LINE",
"377 858 LINE",
"305 858 LINE",
"264 707 LINE",
"344 707 LINE",
"193 0 LINE"
);
}
);
width = 1358;
}
);
unicode = 00D0;
},
{
glyphname = F_i;
lastChange = "2016-07-05 11:23:07 +0000";
layers = (
{
anchors = (
{
name = bottom_1;
position = "{372, 0}";
},
{
name = bottom_2;
position = "{1115, 0}";
},
{
name = caret_1;
position = "{743.5, 0}";
},
{
name = top_1;
position = "{372, 1024}";
},
{
name = top_2;
position = "{1115, 1024}";
}
);
layerId = "C039C1CC-9A8C-45EF-8573-4C10F390742F";
paths = (
{
closed = 1;
nodes = (
"516 0 LINE",
"682 770 LINE",
"940 770 LINE",
"973 922 LINE",
"715 922 LINE",
"803 1331 LINE",
"973 1288 OFFCURVE",
"1063 1217 OFFCURVE",
"1233 1217 CURVE SMOOTH",
"1395 1217 OFFCURVE",
"1460 1386 OFFCURVE",
"1487 1534 CURVE",
"1374 1503 OFFCURVE",
"1278 1495 OFFCURVE",
"1190 1495 CURVE SMOOTH",
"1006 1495 OFFCURVE",
"856 1536 OFFCURVE",
"717 1536 CURVE SMOOTH",
"211 1536 OFFCURVE",
"18 1276 OFFCURVE",
"18 1004 CURVE SMOOTH",
"18 856 OFFCURVE",
"96 805 OFFCURVE",
"238 805 CURVE",
"238 821 OFFCURVE",
"209 840 OFFCURVE",
"209 944 CURVE SMOOTH",
"209 1282 OFFCURVE",
"330 1368 OFFCURVE",
"494 1368 CURVE SMOOTH",
"516 1368 LINE",
"221 0 LINE"
);
},
{
closed = 1;
nodes = (
"1487 367 LINE",
"1456 262 OFFCURVE",
"1382 186 OFFCURVE",
"1303 186 CURVE SMOOTH",
"1245 186 OFFCURVE",
"1219 205 OFFCURVE",
"1219 262 CURVE SMOOTH",
"1219 283 OFFCURVE",
"1221 305 OFFCURVE",
"1227 328 CURVE",
"1374 1024 LINE",
"1079 1024 LINE",
"940 367 LINE SMOOTH",
"930 315 OFFCURVE",
"924 270 OFFCURVE",
"924 233 CURVE SMOOTH",
"924 61 OFFCURVE",
"1020 -12 OFFCURVE",
"1143 -12 CURVE SMOOTH",
"1251 -12 OFFCURVE",
"1458 33 OFFCURVE",
"1573 367 CURVE"
);
}
);
width = 1487;
}
);
},
{
glyphname = IJ;
lastChange = "2016-07-12 18:11:11 +0000";
layers = (
{
anchors = (
{
name = top;
position = "{1212, 1539}";
}
);
layerId = "C039C1CC-9A8C-45EF-8573-4C10F390742F";
paths = (
{
closed = 1;
nodes = (
"735 -70 LINE",
"692 -274 OFFCURVE",
"627 -322 OFFCURVE",
"547 -322 CURVE SMOOTH",
"457 -322 OFFCURVE",
"401 -262 OFFCURVE",
"401 -182 CURVE SMOOTH",
"401 -100 OFFCURVE",
"461 -33 OFFCURVE",
"535 -33 CURVE SMOOTH",
"569 -33 OFFCURVE",
"604 -49 OFFCURVE",
"635 -80 CURVE",
"645 -53 OFFCURVE",
"649 -31 OFFCURVE",
"649 -12 CURVE SMOOTH",
"649 57 OFFCURVE",
"596 106 OFFCURVE",
"512 119 CURVE",
"813 1532 LINE",
"786 1534 OFFCURVE",
"762 1536 OFFCURVE",
"731 1536 CURVE SMOOTH",
"389 1536 OFFCURVE",
"12 1276 OFFCURVE",
"12 1004 CURVE SMOOTH",
"12 856 OFFCURVE",
"90 805 OFFCURVE",
"231 805 CURVE",
"231 821 OFFCURVE",
"203 840 OFFCURVE",
"203 944 CURVE SMOOTH",
"203 1165 OFFCURVE",
"309 1317 OFFCURVE",
"489 1391 CURVE",
"193 0 LINE",
"260 0 LINE",
"240 -41 OFFCURVE",
"229 -88 OFFCURVE",
"229 -143 CURVE SMOOTH",
"229 -305 OFFCURVE",
"330 -424 OFFCURVE",
"559 -424 CURVE SMOOTH",
"879 -424 OFFCURVE",
"1012 -203 OFFCURVE",
"1071 82 CURVE",
"1378 1536 LINE",
"1071 1468 LINE"
);
}
);
width = 1358;
}
);
unicode = 0132;
},
{
color = 9;
glyphname = Iacute;
lastChange = "2016-07-04 14:17:55 +0000";
layers = (
{
layerId = "C039C1CC-9A8C-45EF-8573-4C10F390742F";
paths = (
{
closed = 1;
nodes = (
"487 0 LINE",
"813 1532 LINE",
"786 1534 OFFCURVE",
"762 1536 OFFCURVE",
"731 1536 CURVE SMOOTH",
"389 1536 OFFCURVE",
"12 1276 OFFCURVE",
"12 1004 CURVE SMOOTH",
"12 856 OFFCURVE",
"90 805 OFFCURVE",
"231 805 CURVE",
"231 821 OFFCURVE",
"203 840 OFFCURVE",
"203 944 CURVE SMOOTH",
"203 1165 OFFCURVE",
"309 1317 OFFCURVE",
"489 1391 CURVE",
"193 0 LINE"
);
},
{
closed = 1;
nodes = (
"755 1661 LINE",
"1002 2048 LINE",
"787 2048 LINE",
"601 1661 LINE"
);
}
);
width = 768;
}
);
unicode = 00CD;
},
{
glyphname = Icircumflex;
lastChange = "2016-06-30 17:42:54 +0000";
layers = (
{
layerId = "C039C1CC-9A8C-45EF-8573-4C10F390742F";
paths = (
{
closed = 1;
nodes = (
"487 0 LINE",
"813 1532 LINE",
"786 1534 OFFCURVE",
"762 1536 OFFCURVE",
"731 1536 CURVE SMOOTH",
"389 1536 OFFCURVE",
"12 1276 OFFCURVE",
"12 1004 CURVE SMOOTH",
"12 856 OFFCURVE",
"90 805 OFFCURVE",
"231 805 CURVE",
"231 821 OFFCURVE",
"203 840 OFFCURVE",
"203 944 CURVE SMOOTH",
"203 1165 OFFCURVE",
"309 1317 OFFCURVE",
"489 1391 CURVE",
"193 0 LINE"
);
},
{
closed = 1;
nodes = (
"949 1661 LINE",
"826 2048 LINE",
"783 2048 LINE",
"349 1661 LINE",
"439 1661 LINE",
"761 1825 LINE",
"884 1661 LINE"
);
}
);
width = 768;
}
);
unicode = 00CE;
},
{
glyphname = Idieresis;
lastChange = "2016-06-30 17:42:54 +0000";
layers = (
{
layerId = "C039C1CC-9A8C-45EF-8573-4C10F390742F";
paths = (
{
closed = 1;
nodes = (
"487 0 LINE",
"813 1532 LINE",
"786 1534 OFFCURVE",
"762 1536 OFFCURVE",
"731 1536 CURVE SMOOTH",
"389 1536 OFFCURVE",
"12 1276 OFFCURVE",
"12 1004 CURVE SMOOTH",
"12 856 OFFCURVE",
"90 805 OFFCURVE",
"231 805 CURVE",
"231 821 OFFCURVE",
"203 840 OFFCURVE",
"203 944 CURVE SMOOTH",
"203 1165 OFFCURVE",
"309 1317 OFFCURVE",
"489 1391 CURVE",
"193 0 LINE"
);
},
{
closed = 1;
nodes = (
"632 1810 CURVE SMOOTH",
"632 1878 OFFCURVE",
"575 1935 OFFCURVE",
"507 1935 CURVE SMOOTH",
"435 1935 OFFCURVE",
"382 1878 OFFCURVE",
"382 1810 CURVE SMOOTH",
"382 1739 OFFCURVE",
"435 1686 OFFCURVE",
"507 1686 CURVE SMOOTH",
"575 1686 OFFCURVE",
"632 1739 OFFCURVE"
);
},
{
closed = 1;
nodes = (
"1001 1810 CURVE SMOOTH",
"1001 1878 OFFCURVE",
"943 1935 OFFCURVE",
"876 1935 CURVE SMOOTH",
"804 1935 OFFCURVE",
"751 1878 OFFCURVE",
"751 1810 CURVE SMOOTH",
"751 1739 OFFCURVE",
"804 1686 OFFCURVE",
"876 1686 CURVE SMOOTH",
"943 1686 OFFCURVE",
"1001 1739 OFFCURVE"
);
}
);
width = 768;
}
);
unicode = 00CF;
},
{
color = 9;
glyphname = Igrave;
lastChange = "2016-07-04 14:17:55 +0000";
layers = (
{
layerId = "C039C1CC-9A8C-45EF-8573-4C10F390742F";
paths = (
{
closed = 1;
nodes = (
"487 0 LINE",
"813 1532 LINE",
"786 1534 OFFCURVE",
"762 1536 OFFCURVE",
"731 1536 CURVE SMOOTH",
"389 1536 OFFCURVE",
"12 1276 OFFCURVE",
"12 1004 CURVE SMOOTH",
"12 856 OFFCURVE",
"90 805 OFFCURVE",
"231 805 CURVE",
"231 821 OFFCURVE",
"203 840 OFFCURVE",
"203 944 CURVE SMOOTH",
"203 1165 OFFCURVE",
"309 1317 OFFCURVE",
"489 1391 CURVE",
"193 0 LINE"
);
},
{
closed = 1;
nodes = (
"715 1661 LINE",
"655 2048 LINE",
"440 2048 LINE",
"561 1661 LINE"
);
}
);
width = 768;
}
);
unicode = 00CC;
},
{
glyphname = Lslash;
lastChange = "2016-06-30 17:42:54 +0000";
layers = (
{
layerId = "C039C1CC-9A8C-45EF-8573-4C10F390742F";
paths = (
{
closed = 1;
nodes = (
"184 -49 LINE",
"201 -47 OFFCURVE",
"215 -47 OFFCURVE",
"231 -47 CURVE SMOOTH",
"594 -47 OFFCURVE",
"852 -512 OFFCURVE",
"1145 -512 CURVE SMOOTH",
"1257 -512 OFFCURVE",
"1335 -387 OFFCURVE",
"1358 -190 CURVE",
"1298 -215 OFFCURVE",
"1241 -223 OFFCURVE",
"1186 -223 CURVE SMOOTH",
"924 -223 OFFCURVE",
"711 -8 OFFCURVE",
"498 41 CURVE",
"670 829 LINE",
"930 989 LINE",
"938 1114 LINE",
"700 973 LINE",
"813 1511 LINE",
"786 1513 OFFCURVE",
"762 1516 OFFCURVE",
"731 1516 CURVE SMOOTH",
"389 1516 OFFCURVE",
"12 1255 OFFCURVE",
"12 983 CURVE SMOOTH",
"12 836 OFFCURVE",
"90 784 OFFCURVE",
"231 784 CURVE",
"231 801 OFFCURVE",
"203 819 OFFCURVE",
"203 924 CURVE SMOOTH",
"203 1145 OFFCURVE",
"309 1296 OFFCURVE",
"489 1370 CURVE",
"354 733 LINE",
"199 633 LINE",
"195 524 LINE",
"328 604 LINE"
);
}
);
width = 803;
}
);
unicode = 0141;
},
{
glyphname = N.salt;
lastChange = "2016-07-05 15:21:34 +0000";
layers = (
{
anchors = (
{
name = bottom;
position = "{659, 0}";
},
{
name = top;
position = "{896, 1532}";
}
);
layerId = "C039C1CC-9A8C-45EF-8573-4C10F390742F";
paths = (
{
closed = 1;
nodes = (
"1370 367 LINE",
"1327 260 OFFCURVE",
"1286 186 OFFCURVE",
"1198 186 CURVE SMOOTH",
"1135 186 OFFCURVE",
"1116 221 OFFCURVE",
"1116 272 CURVE SMOOTH",
"1116 387 OFFCURVE",
"1323 1079 OFFCURVE",
"1323 1243 CURVE SMOOTH",
"1323 1448 OFFCURVE",
"1174 1536 OFFCURVE",
"1044 1536 CURVE SMOOTH",
"979 1536 OFFCURVE",
"885 1520 OFFCURVE",
"788 1419 CURVE",
"813 1532 LINE",
"786 1534 OFFCURVE",
"762 1536 OFFCURVE",
"731 1536 CURVE SMOOTH",
"389 1536 OFFCURVE",
"12 1276 OFFCURVE",
"12 1004 CURVE SMOOTH",
"12 856 OFFCURVE",
"90 805 OFFCURVE",
"231 805 CURVE",
"231 821 OFFCURVE",
"203 840 OFFCURVE",
"203 944 CURVE SMOOTH",
"203 1149 OFFCURVE",
"297 1298 OFFCURVE",
"461 1378 CURVE",
"166 0 LINE",
"487 0 LINE",
"741 1198 LINE",
"741 1200 LINE",
"774 1284 OFFCURVE",
"844 1350 OFFCURVE",
"909 1350 CURVE SMOOTH",
"958 1350 OFFCURVE",
"1034 1333 OFFCURVE",
"1034 1198 CURVE SMOOTH",
"1034 1067 OFFCURVE",
"834 358 OFFCURVE",
"834 219 CURVE SMOOTH",
"834 102 OFFCURVE",
"895 -12 OFFCURVE",
"1075 -12 CURVE SMOOTH",
"1184 -12 OFFCURVE",
"1341 31 OFFCURVE",
"1456 367 CURVE"
);
}
);
width = 1370;
}
);
},
{
glyphname = Nacute;
lastChange = "2016-07-06 11:51:46 +0000";
layers = (
{
layerId = "C039C1CC-9A8C-45EF-8573-4C10F390742F";
paths = (
{
closed = 1;
nodes = (
"1109 1661 LINE",
"1357 2048 LINE",
"1142 2048 LINE",
"956 1661 LINE"
);
},
{
closed = 1;
nodes = (
"1272 1532 LINE",
"1043 420 LINE",
"796 1516 LINE",
"739 1536 OFFCURVE",
"698 1544 OFFCURVE",
"634 1544 CURVE SMOOTH",
"292 1544 OFFCURVE",
"12 1298 OFFCURVE",
"12 1006 CURVE SMOOTH",
"12 854 OFFCURVE",
"94 784 OFFCURVE",
"268 784 CURVE",
"234 829 OFFCURVE",
"213 905 OFFCURVE",
"213 993 CURVE SMOOTH",
"213 1192 OFFCURVE",
"309 1337 OFFCURVE",
"497 1403 CURVE",
"189 0 LINE",
"383 0 LINE",
"617 1016 LINE",
"854 0 LINE",
"1137 0 LINE",
"1471 1532 LINE"
);
}
);
width = 1438;
}
);
unicode = 0143;
},
{
glyphname = OE;
lastChange = "2016-07-01 15:11:02 +0000";
layers = (
{
anchors = (
{
name = bottom;
position = "{867, 0}";
},
{
name = top;
position = "{867, 1532}";
}
);
layerId = "C039C1CC-9A8C-45EF-8573-4C10F390742F";
paths = (
{
closed = 1;
nodes = (
"1526 0 LINE",
"1569 217 LINE",
"1069 217 LINE",
"1188 352 OFFCURVE",
"1264 532 OFFCURVE",
"1305 707 CURVE",
"1565 707 LINE",
"1606 858 LINE",
"1333 858 LINE",
"1339 911 OFFCURVE",
"1343 963 OFFCURVE",
"1343 1012 CURVE SMOOTH",
"1343 1151 OFFCURVE",
"1317 1274 OFFCURVE",
"1253 1364 CURVE",
"1389 1350 OFFCURVE",
"1516 1290 OFFCURVE",
"1677 1290 CURVE",
"1835 1323 OFFCURVE",
"1845 1452 OFFCURVE",
"1872 1536 CURVE",
"1815 1518 OFFCURVE",
"1751 1511 OFFCURVE",
"1688 1511 CURVE SMOOTH",
"1556 1511 OFFCURVE",
"1430 1536 OFFCURVE",
"1348 1536 CURVE SMOOTH",
"1229 1536 OFFCURVE",
"1153 1522 OFFCURVE",
"1083 1497 CURVE",
"1022 1522 OFFCURVE",
"946 1536 OFFCURVE",
"858 1536 CURVE SMOOTH",
"426 1536 OFFCURVE",
"33 1264 OFFCURVE",
"33 977 CURVE SMOOTH",
"33 852 OFFCURVE",
"109 805 OFFCURVE",
"240 805 CURVE",
"240 821 OFFCURVE",
"219 836 OFFCURVE",
"219 915 CURVE SMOOTH",
"219 1241 OFFCURVE",
"496 1442 OFFCURVE",
"809 1442 CURVE SMOOTH",
"1024 1442 OFFCURVE",
"1071 1321 OFFCURVE",
"1071 1083 CURVE SMOOTH",
"1071 670 OFFCURVE",
"850 154 OFFCURVE",
"643 154 CURVE SMOOTH",
"559 154 OFFCURVE",
"524 252 OFFCURVE",
"524 391 CURVE SMOOTH",
"524 707 OFFCURVE",
"696 1231 OFFCURVE",
"883 1343 CURVE",
"844 1358 OFFCURVE",
"811 1360 OFFCURVE",
"776 1360 CURVE SMOOTH",
"408 1360 OFFCURVE",
"221 731 OFFCURVE",
"221 399 CURVE SMOOTH",
"221 100 OFFCURVE",
"373 -12 OFFCURVE",
"588 -12 CURVE SMOOTH",
"639 -12 OFFCURVE",
"688 -6 OFFCURVE",
"735 4 CURVE",
"733 0 LINE"
);
}
);
width = 1733;
}
);
unicode = 0152;
},
{
color = 9;
glyphname = Oacute;
lastChange = "2016-07-04 14:17:55 +0000";
layers = (
{
layerId = "C039C1CC-9A8C-45EF-8573-4C10F390742F";
paths = (
{
closed = 1;
nodes = (
"883 1343 CURVE",
"844 1358 OFFCURVE",
"811 1360 OFFCURVE",
"776 1360 CURVE SMOOTH",
"408 1360 OFFCURVE",
"221 731 OFFCURVE",
"221 399 CURVE SMOOTH",
"221 100 OFFCURVE",
"373 -12 OFFCURVE",
"588 -12 CURVE SMOOTH",
"1124 -12 OFFCURVE",
"1343 616 OFFCURVE",
"1343 1012 CURVE SMOOTH",
"1343 1317 OFFCURVE",
"1217 1536 OFFCURVE",
"858 1536 CURVE SMOOTH",
"426 1536 OFFCURVE",
"33 1264 OFFCURVE",
"33 977 CURVE SMOOTH",
"33 852 OFFCURVE",
"109 805 OFFCURVE",
"240 805 CURVE",
"240 821 OFFCURVE",
"219 836 OFFCURVE",
"219 915 CURVE SMOOTH",
"219 1241 OFFCURVE",
"496 1442 OFFCURVE",
"809 1442 CURVE SMOOTH",
"1024 1442 OFFCURVE",
"1071 1321 OFFCURVE",
"1071 1083 CURVE SMOOTH",
"1071 670 OFFCURVE",
"850 154 OFFCURVE",
"643 154 CURVE SMOOTH",
"559 154 OFFCURVE",
"524 252 OFFCURVE",
"524 391 CURVE SMOOTH",
"524 707 OFFCURVE",
"696 1231 OFFCURVE"
);
},
{
closed = 1;
nodes = (
"967 1661 LINE",
"1214 2048 LINE",
"999 2048 LINE",
"813 1661 LINE"
);
}
);
width = 1362;
}
);
unicode = 00D3;
},
{
color = 9;
glyphname = Ocircumflex;
lastChange = "2016-07-04 14:17:55 +0000";
layers = (
{
layerId = "C039C1CC-9A8C-45EF-8573-4C10F390742F";
paths = (
{
closed = 1;
nodes = (
"883 1343 CURVE",
"844 1358 OFFCURVE",
"811 1360 OFFCURVE",
"776 1360 CURVE SMOOTH",
"408 1360 OFFCURVE",
"221 731 OFFCURVE",
"221 399 CURVE SMOOTH",
"221 100 OFFCURVE",
"373 -12 OFFCURVE",
"588 -12 CURVE SMOOTH",
"1124 -12 OFFCURVE",
"1343 616 OFFCURVE",
"1343 1012 CURVE SMOOTH",
"1343 1317 OFFCURVE",
"1217 1536 OFFCURVE",
"858 1536 CURVE SMOOTH",
"426 1536 OFFCURVE",
"33 1264 OFFCURVE",
"33 977 CURVE SMOOTH",
"33 852 OFFCURVE",
"109 805 OFFCURVE",
"240 805 CURVE",
"240 821 OFFCURVE",
"219 836 OFFCURVE",
"219 915 CURVE SMOOTH",
"219 1241 OFFCURVE",
"496 1442 OFFCURVE",
"809 1442 CURVE SMOOTH",
"1024 1442 OFFCURVE",
"1071 1321 OFFCURVE",
"1071 1083 CURVE SMOOTH",
"1071 670 OFFCURVE",
"850 154 OFFCURVE",
"643 154 CURVE SMOOTH",
"559 154 OFFCURVE",
"524 252 OFFCURVE",
"524 391 CURVE SMOOTH",
"524 707 OFFCURVE",
"696 1231 OFFCURVE"
);
},
{
closed = 1;
nodes = (
"1157 1661 LINE",
"1034 2048 LINE",
"991 2048 LINE",
"557 1661 LINE",
"647 1661 LINE",
"969 1825 LINE",
"1092 1661 LINE"
);
}
);
width = 1362;
}
);
unicode = 00D4;
},
{
glyphname = Odieresis;
lastChange = "2016-06-30 17:42:54 +0000";
layers = (
{
layerId = "C039C1CC-9A8C-45EF-8573-4C10F390742F";
paths = (
{
closed = 1;
nodes = (
"883 1343 CURVE",
"844 1358 OFFCURVE",
"811 1360 OFFCURVE",
"776 1360 CURVE SMOOTH",
"408 1360 OFFCURVE",
"221 731 OFFCURVE",
"221 399 CURVE SMOOTH",
"221 100 OFFCURVE",
"373 -12 OFFCURVE",
"588 -12 CURVE SMOOTH",
"1124 -12 OFFCURVE",
"1343 616 OFFCURVE",
"1343 1012 CURVE SMOOTH",
"1343 1317 OFFCURVE",
"1217 1536 OFFCURVE",
"858 1536 CURVE SMOOTH",
"426 1536 OFFCURVE",
"33 1264 OFFCURVE",
"33 977 CURVE SMOOTH",
"33 852 OFFCURVE",
"109 805 OFFCURVE",
"240 805 CURVE",
"240 821 OFFCURVE",
"219 836 OFFCURVE",
"219 915 CURVE SMOOTH",
"219 1241 OFFCURVE",
"496 1442 OFFCURVE",
"809 1442 CURVE SMOOTH",
"1024 1442 OFFCURVE",
"1071 1321 OFFCURVE",
"1071 1083 CURVE SMOOTH",
"1071 670 OFFCURVE",
"850 154 OFFCURVE",
"643 154 CURVE SMOOTH",
"559 154 OFFCURVE",
"524 252 OFFCURVE",
"524 391 CURVE SMOOTH",
"524 707 OFFCURVE",
"696 1231 OFFCURVE"
);
},
{
closed = 1;
nodes = (
"840 1810 CURVE SMOOTH",
"840 1878 OFFCURVE",
"782 1935 OFFCURVE",
"715 1935 CURVE SMOOTH",
"643 1935 OFFCURVE",
"590 1878 OFFCURVE",
"590 1810 CURVE SMOOTH",
"590 1739 OFFCURVE",
"643 1686 OFFCURVE",
"715 1686 CURVE SMOOTH",
"782 1686 OFFCURVE",
"840 1739 OFFCURVE"
);
},
{
closed = 1;
nodes = (
"1208 1810 CURVE SMOOTH",
"1208 1878 OFFCURVE",
"1151 1935 OFFCURVE",
"1083 1935 CURVE SMOOTH",
"1012 1935 OFFCURVE",
"958 1878 OFFCURVE",
"958 1810 CURVE SMOOTH",
"958 1739 OFFCURVE",
"1012 1686 OFFCURVE",
"1083 1686 CURVE SMOOTH",
"1151 1686 OFFCURVE",
"1208 1739 OFFCURVE"
);
}
);
width = 1362;
}
);
unicode = 00D6;
},
{
color = 9;
glyphname = Ograve;
lastChange = "2016-07-04 14:17:55 +0000";
layers = (
{
layerId = "C039C1CC-9A8C-45EF-8573-4C10F390742F";
paths = (
{
closed = 1;
nodes = (
"883 1343 CURVE",
"844 1358 OFFCURVE",
"811 1360 OFFCURVE",
"776 1360 CURVE SMOOTH",
"408 1360 OFFCURVE",
"221 731 OFFCURVE",
"221 399 CURVE SMOOTH",
"221 100 OFFCURVE",
"373 -12 OFFCURVE",
"588 -12 CURVE SMOOTH",
"1124 -12 OFFCURVE",
"1343 616 OFFCURVE",
"1343 1012 CURVE SMOOTH",
"1343 1317 OFFCURVE",
"1217 1536 OFFCURVE",
"858 1536 CURVE SMOOTH",
"426 1536 OFFCURVE",
"33 1264 OFFCURVE",
"33 977 CURVE SMOOTH",
"33 852 OFFCURVE",
"109 805 OFFCURVE",
"240 805 CURVE",
"240 821 OFFCURVE",
"219 836 OFFCURVE",
"219 915 CURVE SMOOTH",
"219 1241 OFFCURVE",
"496 1442 OFFCURVE",
"809 1442 CURVE SMOOTH",
"1024 1442 OFFCURVE",
"1071 1321 OFFCURVE",
"1071 1083 CURVE SMOOTH",
"1071 670 OFFCURVE",
"850 154 OFFCURVE",
"643 154 CURVE SMOOTH",
"559 154 OFFCURVE",
"524 252 OFFCURVE",
"524 391 CURVE SMOOTH",
"524 707 OFFCURVE",
"696 1231 OFFCURVE"
);
},
{
closed = 1;
nodes = (
"892 1661 LINE",
"833 2048 LINE",
"618 2048 LINE",
"739 1661 LINE"
);
}
);
width = 1362;
}
);
unicode = 00D2;
},
{
glyphname = Oslash;
lastChange = "2016-07-01 15:11:02 +0000";
layers = (
{
anchors = (
{
name = bottom;
position = "{674, 0}";
},
{
name = top;
position = "{674, 1532}";
}
);
layerId = "C039C1CC-9A8C-45EF-8573-4C10F390742F";
paths = (
{
closed = 1;
nodes = (
"649 -145 LINE",
"680 -2 LINE",
"1114 76 OFFCURVE",
"1294 606 OFFCURVE",
"1294 946 CURVE SMOOTH",
"1294 1186 OFFCURVE",
"1210 1366 OFFCURVE",
"981 1421 CURVE",
"1006 1536 LINE",
"899 1536 LINE",
"877 1436 LINE",
"860 1438 OFFCURVE",
"844 1438 OFFCURVE",
"827 1438 CURVE SMOOTH",
"410 1438 OFFCURVE",
"31 1184 OFFCURVE",
"31 913 CURVE SMOOTH",
"31 797 OFFCURVE",
"106 754 OFFCURVE",
"231 754 CURVE",
"231 768 OFFCURVE",
"211 782 OFFCURVE",
"211 856 CURVE SMOOTH",
"211 1161 OFFCURVE",
"477 1350 OFFCURVE",
"780 1350 CURVE SMOOTH",
"809 1350 OFFCURVE",
"836 1348 OFFCURVE",
"858 1343 CURVE",
"840 1260 LINE",
"811 1270 OFFCURVE",
"780 1274 OFFCURVE",
"748 1274 CURVE SMOOTH",
"393 1274 OFFCURVE",
"213 684 OFFCURVE",
"213 375 CURVE SMOOTH",
"213 96 OFFCURVE",
"358 -12 OFFCURVE",
"567 -12 CURVE SMOOTH",
"571 -12 LINE",
"543 -145 LINE"
);
},
{
closed = 1;
nodes = (
"604 143 LINE",
"532 158 OFFCURVE",
"506 244 OFFCURVE",
"506 367 CURVE SMOOTH",
"506 653 OFFCURVE",
"664 1135 OFFCURVE",
"838 1249 CURVE"
);
},
{
closed = 1;
nodes = (
"954 1298 LINE",
"1018 1243 OFFCURVE",
"1032 1151 OFFCURVE",
"1032 1014 CURVE SMOOTH",
"1032 690 OFFCURVE",
"883 301 OFFCURVE",
"719 180 CURVE"
);
}
);
width = 1348;
}
);
unicode = 00D8;
},
{
color = 9;
glyphname = Otilde;
lastChange = "2016-07-04 14:17:55 +0000";
layers = (
{
layerId = "C039C1CC-9A8C-45EF-8573-4C10F390742F";
paths = (
{
closed = 1;
nodes = (
"883 1343 CURVE",
"844 1358 OFFCURVE",
"811 1360 OFFCURVE",
"776 1360 CURVE SMOOTH",
"408 1360 OFFCURVE",
"221 731 OFFCURVE",
"221 399 CURVE SMOOTH",
"221 100 OFFCURVE",
"373 -12 OFFCURVE",
"588 -12 CURVE SMOOTH",
"1124 -12 OFFCURVE",
"1343 616 OFFCURVE",
"1343 1012 CURVE SMOOTH",
"1343 1317 OFFCURVE",
"1217 1536 OFFCURVE",
"858 1536 CURVE SMOOTH",
"426 1536 OFFCURVE",
"33 1264 OFFCURVE",
"33 977 CURVE SMOOTH",
"33 852 OFFCURVE",
"109 805 OFFCURVE",
"240 805 CURVE",
"240 821 OFFCURVE",
"219 836 OFFCURVE",
"219 915 CURVE SMOOTH",
"219 1241 OFFCURVE",
"496 1442 OFFCURVE",
"809 1442 CURVE SMOOTH",
"1024 1442 OFFCURVE",
"1071 1321 OFFCURVE",
"1071 1083 CURVE SMOOTH",
"1071 670 OFFCURVE",
"850 154 OFFCURVE",
"643 154 CURVE SMOOTH",
"559 154 OFFCURVE",
"524 252 OFFCURVE",
"524 391 CURVE SMOOTH",
"524 707 OFFCURVE",
"696 1231 OFFCURVE"
);
},
{
closed = 1;
nodes = (
"1370 1884 LINE",
"1339 1853 OFFCURVE",
"1292 1837 OFFCURVE",
"1241 1837 CURVE SMOOTH",
"1122 1837 OFFCURVE",
"1051 1905 OFFCURVE",
"903 1905 CURVE SMOOTH",
"748 1905 OFFCURVE",
"627 1835 OFFCURVE",
"561 1704 CURVE",
"573 1700 LINE",
"612 1735 OFFCURVE",
"657 1753 OFFCURVE",
"709 1753 CURVE SMOOTH",
"823 1753 OFFCURVE",
"915 1677 OFFCURVE",
"1053 1677 CURVE SMOOTH",
"1208 1677 OFFCURVE",
"1362 1786 OFFCURVE",
"1382 1882 CURVE"
);
}
);
width = 1362;
}
);
unicode = 00D5;
},
{
glyphname = Sacute;
lastChange = "2016-06-30 17:42:54 +0000";
layers = (
{
layerId = "C039C1CC-9A8C-45EF-8573-4C10F390742F";
paths = (
{
closed = 1;
nodes = (
"887 1661 LINE",
"1135 2048 LINE",
"920 2048 LINE",
"733 1661 LINE"
);
},
{
closed = 1;
nodes = (
"1132 1260 CURVE SMOOTH",
"1132 1434 OFFCURVE",
"989 1547 OFFCURVE",
"768 1547 CURVE SMOOTH",
"504 1547 OFFCURVE",
"309 1387 OFFCURVE",
"309 1172 CURVE SMOOTH",
"309 854 OFFCURVE",
"745 660 OFFCURVE",
"745 362 CURVE SMOOTH",
"745 215 OFFCURVE",
"639 106 OFFCURVE",
"495 106 CURVE SMOOTH",
"377 106 OFFCURVE",
"301 182 OFFCURVE",
"301 301 CURVE SMOOTH",
"301 428 OFFCURVE",
"391 510 OFFCURVE",
"534 510 CURVE",
"518 594 OFFCURVE",
"448 645 OFFCURVE",
"352 645 CURVE SMOOTH",
"194 645 OFFCURVE",
"69 504 OFFCURVE",
"69 322 CURVE SMOOTH",
"69 106 OFFCURVE",
"241 -37 OFFCURVE",
"501 -37 CURVE SMOOTH",
"813 -37 OFFCURVE",
"1052 163 OFFCURVE",
"1052 431 CURVE SMOOTH",
"1052 812 OFFCURVE",
"604 970 OFFCURVE",
"604 1241 CURVE SMOOTH",
"604 1362 OFFCURVE",
"680 1448 OFFCURVE",
"790 1448 CURVE SMOOTH",
"880 1448 OFFCURVE",
"936 1393 OFFCURVE",
"936 1305 CURVE SMOOTH",
"936 1235 OFFCURVE",
"903 1168 OFFCURVE",
"852 1131 CURVE",
"882 1090 OFFCURVE",
"925 1067 OFFCURVE",
"977 1067 CURVE SMOOTH",
"1069 1067 OFFCURVE",
"1132 1145 OFFCURVE"
);
}
);
width = 1167;
}
);
unicode = 015A;
},
{
glyphname = Scaron;
lastChange = "2016-06-30 17:42:54 +0000";
layers = (
{
layerId = "C039C1CC-9A8C-45EF-8573-4C10F390742F";
paths = (
{
closed = 1;
nodes = (
"1310 2048 LINE",
"1220 2048 LINE",
"899 1884 LINE",
"776 2048 LINE",
"710 2048 LINE",
"833 1661 LINE",
"876 1661 LINE"
);
},
{
closed = 1;
nodes = (
"1132 1260 CURVE SMOOTH",
"1132 1434 OFFCURVE",
"989 1547 OFFCURVE",
"768 1547 CURVE SMOOTH",
"504 1547 OFFCURVE",
"309 1387 OFFCURVE",
"309 1172 CURVE SMOOTH",
"309 854 OFFCURVE",
"745 660 OFFCURVE",
"745 362 CURVE SMOOTH",
"745 215 OFFCURVE",
"639 106 OFFCURVE",
"495 106 CURVE SMOOTH",
"377 106 OFFCURVE",
"301 182 OFFCURVE",
"301 301 CURVE SMOOTH",
"301 428 OFFCURVE",
"391 510 OFFCURVE",
"534 510 CURVE",
"518 594 OFFCURVE",
"448 645 OFFCURVE",
"352 645 CURVE SMOOTH",
"194 645 OFFCURVE",
"69 504 OFFCURVE",
"69 322 CURVE SMOOTH",
"69 106 OFFCURVE",
"241 -37 OFFCURVE",
"501 -37 CURVE SMOOTH",
"813 -37 OFFCURVE",
"1052 163 OFFCURVE",
"1052 431 CURVE SMOOTH",
"1052 812 OFFCURVE",
"604 970 OFFCURVE",
"604 1241 CURVE SMOOTH",
"604 1362 OFFCURVE",
"680 1448 OFFCURVE",
"790 1448 CURVE SMOOTH",
"880 1448 OFFCURVE",
"936 1393 OFFCURVE",
"936 1305 CURVE SMOOTH",
"936 1235 OFFCURVE",
"903 1168 OFFCURVE",
"852 1131 CURVE",
"882 1090 OFFCURVE",
"925 1067 OFFCURVE",
"977 1067 CURVE SMOOTH",
"1069 1067 OFFCURVE",
"1132 1145 OFFCURVE"
);
}
);
width = 1167;
}
);
unicode = 0160;
},
{
glyphname = T_h;
lastChange = "2016-07-05 11:23:07 +0000";
layers = (
{
anchors = (
{
name = bottom_1;
position = "{497, 0}";
},
{
name = bottom_2;
position = "{1492, 0}";
},
{
name = caret_1;
position = "{994.5, 0}";
},
{
name = center_1;
position = "{0, 0}";
},
{
name = center_2;
position = "{0, 0}";
},
{
name = top_1;
position = "{497, 1024}";
},
{
name = top_2;
position = "{1492, 1024}";
}
);
layerId = "C039C1CC-9A8C-45EF-8573-4C10F390742F";
paths = (
{
closed = 1;
nodes = (
"1989 367 LINE",
"1946 260 OFFCURVE",
"1905 186 OFFCURVE",
"1817 186 CURVE SMOOTH",
"1753 186 OFFCURVE",
"1735 221 OFFCURVE",
"1735 272 CURVE SMOOTH",
"1735 387 OFFCURVE",
"1833 635 OFFCURVE",
"1833 801 CURVE SMOOTH",
"1833 965 OFFCURVE",
"1737 1032 OFFCURVE",
"1606 1032 CURVE SMOOTH",
"1540 1032 OFFCURVE",
"1450 1014 OFFCURVE",
"1362 913 CURVE",
"1456 1382 OFFCURVE",
"1485 1438 OFFCURVE",
"1534 1530 CURVE",
"1477 1491 OFFCURVE",
"1386 1481 OFFCURVE",
"1286 1481 CURVE SMOOTH",
"1079 1481 OFFCURVE",
"825 1534 OFFCURVE",
"733 1534 CURVE SMOOTH",
"227 1534 OFFCURVE",
"12 1274 OFFCURVE",
"12 1001 CURVE SMOOTH",
"12 854 OFFCURVE",
"90 803 OFFCURVE",
"231 803 CURVE",
"231 819 OFFCURVE",
"203 838 OFFCURVE",
"203 942 CURVE SMOOTH",
"203 1266 OFFCURVE",
"385 1350 OFFCURVE",
"614 1360 CURVE",
"322 0 LINE",
"616 0 LINE",
"905 1341 LINE",
"1001 1327 OFFCURVE",
"1092 1313 OFFCURVE",
"1176 1307 CURVE",
"895 0 LINE",
"1190 0 LINE",
"1239 272 OFFCURVE",
"1280 489 OFFCURVE",
"1315 670 CURVE",
"1346 766 OFFCURVE",
"1399 846 OFFCURVE",
"1470 846 CURVE SMOOTH",
"1520 846 OFFCURVE",
"1544 811 OFFCURVE",
"1544 741 CURVE SMOOTH",
"1544 610 OFFCURVE",
"1452 358 OFFCURVE",
"1452 219 CURVE SMOOTH",
"1452 102 OFFCURVE",
"1513 -12 OFFCURVE",
"1694 -12 CURVE SMOOTH",
"1802 -12 OFFCURVE",
"1960 31 OFFCURVE",
"2075 367 CURVE"
);
}
);
width = 1989;
}
);
},
{
glyphname = T_i;
lastChange = "2016-07-05 11:23:07 +0000";
layers = (
{
anchors = (
{
name = bottom_1;
position = "{381, 0}";
},
{
name = bottom_2;
position = "{1143, 0}";
},
{
name = caret_1;
position = "{762, 0}";
},
{
name = center_1;
position = "{0, 0}";
},
{
name = center_2;
position = "{0, 0}";
},
{
name = top_1;
position = "{381, 1024}";
},
{
name = top_2;
position = "{1143, 1024}";
}
);
layerId = "C039C1CC-9A8C-45EF-8573-4C10F390742F";
paths = (
{
closed = 1;
nodes = (
"616 0 LINE",
"897 1305 LINE",
"1071 1245 OFFCURVE",
"1188 1190 OFFCURVE",
"1284 1190 CURVE SMOOTH",
"1358 1190 OFFCURVE",
"1495 1229 OFFCURVE",
"1495 1395 CURVE SMOOTH",
"1495 1434 OFFCURVE",
"1489 1479 OFFCURVE",
"1473 1530 CURVE",
"1417 1507 OFFCURVE",
"1333 1501 OFFCURVE",
"1237 1501 CURVE SMOOTH",
"1036 1501 OFFCURVE",
"795 1534 OFFCURVE",
"711 1534 CURVE SMOOTH",
"205 1534 OFFCURVE",
"12 1274 OFFCURVE",
"12 1001 CURVE SMOOTH",
"12 854 OFFCURVE",
"90 803 OFFCURVE",
"231 803 CURVE",
"231 819 OFFCURVE",
"203 838 OFFCURVE",
"203 942 CURVE SMOOTH",
"203 1280 OFFCURVE",
"346 1380 OFFCURVE",
"535 1380 CURVE SMOOTH",
"561 1380 OFFCURVE",
"588 1378 OFFCURVE",
"616 1374 CURVE",
"322 0 LINE"
);
},
{
closed = 1;
nodes = (
"1524 367 LINE",
"1493 262 OFFCURVE",
"1419 186 OFFCURVE",
"1339 186 CURVE SMOOTH",
"1282 186 OFFCURVE",
"1255 205 OFFCURVE",
"1255 262 CURVE SMOOTH",
"1255 283 OFFCURVE",
"1257 305 OFFCURVE",
"1264 328 CURVE",
"1411 1024 LINE",
"1116 1024 LINE",
"977 367 LINE SMOOTH",
"967 315 OFFCURVE",
"961 270 OFFCURVE",
"961 233 CURVE SMOOTH",
"961 61 OFFCURVE",
"1057 -12 OFFCURVE",
"1180 -12 CURVE SMOOTH",
"1288 -12 OFFCURVE",
"1495 33 OFFCURVE",
"1610 367 CURVE"
);
}
);
width = 1524;
}
);
},
{
glyphname = Thorn;
lastChange = "2016-07-01 15:11:02 +0000";
layers = (
{
anchors = (
{
name = bottom;
position = "{597, 0}";
},
{
name = top;
position = "{597, 1532}";
}
);
layerId = "C039C1CC-9A8C-45EF-8573-4C10F390742F";
paths = (
{
closed = 1;
nodes = (
"487 0 LINE",
"563 358 LINE",
"623 358 LINE SMOOTH",
"991 358 OFFCURVE",
"1214 647 OFFCURVE",
"1214 907 CURVE SMOOTH",
"1214 1112 OFFCURVE",
"1077 1294 OFFCURVE",
"766 1311 CURVE",
"815 1536 LINE",
"512 1495 LINE",
"461 1262 LINE",
"217 1176 OFFCURVE",
"12 979 OFFCURVE",
"12 778 CURVE SMOOTH",
"12 631 OFFCURVE",
"90 580 OFFCURVE",
"231 580 CURVE",
"231 596 OFFCURVE",
"203 614 OFFCURVE",
"203 719 CURVE SMOOTH",
"203 924 OFFCURVE",
"285 1071 OFFCURVE",
"438 1151 CURVE",
"193 0 LINE"
);
},
{
closed = 1;
nodes = (
"580 434 LINE",
"748 1217 LINE",
"918 1210 OFFCURVE",
"987 1083 OFFCURVE",
"987 938 CURVE SMOOTH",
"987 715 OFFCURVE",
"825 434 OFFCURVE",
"608 434 CURVE SMOOTH"
);
}
);
width = 1194;
}
);
unicode = 00DE;
},
{
color = 9;
glyphname = Uacute;
lastChange = "2016-07-04 14:17:55 +0000";
layers = (
{
layerId = "C039C1CC-9A8C-45EF-8573-4C10F390742F";
paths = (
{
closed = 1;
nodes = (
"1123 899 LINE SMOOTH",
"975 229 OFFCURVE",
"903 186 OFFCURVE",
"727 186 CURVE SMOOTH",
"623 186 OFFCURVE",
"586 254 OFFCURVE",
"586 371 CURVE SMOOTH",
"586 543 OFFCURVE",
"672 821 OFFCURVE",
"862 1526 CURVE",
"819 1534 OFFCURVE",
"799 1536 OFFCURVE",
"764 1536 CURVE SMOOTH",
"367 1536 OFFCURVE",
"-10 1282 OFFCURVE",
"-10 993 CURVE SMOOTH",
"-10 854 OFFCURVE",
"72 805 OFFCURVE",
"209 805 CURVE",
"209 823 OFFCURVE",
"180 838 OFFCURVE",
"180 946 CURVE SMOOTH",
"180 1194 OFFCURVE",
"320 1358 OFFCURVE",
"543 1417 CURVE",
"475 1147 LINE SMOOTH",
"387 797 OFFCURVE",
"307 516 OFFCURVE",
"307 311 CURVE SMOOTH",
"307 104 OFFCURVE",
"408 -14 OFFCURVE",
"703 -14 CURVE SMOOTH",
"1164 -14 OFFCURVE",
"1282 270 OFFCURVE",
"1413 893 CURVE SMOOTH",
"1549 1532 LINE",
"1260 1532 LINE"
);
},
{
closed = 1;
nodes = (
"1067 1661 LINE",
"1315 2048 LINE",
"1100 2048 LINE",
"914 1661 LINE"
);
}
);
width = 1466;
}
);
unicode = 00DA;
},
{
glyphname = Ucircumflex;
lastChange = "2016-06-30 17:42:54 +0000";
layers = (
{
layerId = "C039C1CC-9A8C-45EF-8573-4C10F390742F";
paths = (
{
closed = 1;
nodes = (
"1123 899 LINE SMOOTH",
"975 229 OFFCURVE",
"903 186 OFFCURVE",
"727 186 CURVE SMOOTH",
"623 186 OFFCURVE",
"586 254 OFFCURVE",
"586 371 CURVE SMOOTH",
"586 543 OFFCURVE",
"672 821 OFFCURVE",
"862 1526 CURVE",
"819 1534 OFFCURVE",
"799 1536 OFFCURVE",
"764 1536 CURVE SMOOTH",
"367 1536 OFFCURVE",
"-10 1282 OFFCURVE",
"-10 993 CURVE SMOOTH",
"-10 854 OFFCURVE",
"72 805 OFFCURVE",
"209 805 CURVE",
"209 823 OFFCURVE",
"180 838 OFFCURVE",
"180 946 CURVE SMOOTH",
"180 1194 OFFCURVE",
"320 1358 OFFCURVE",
"543 1417 CURVE",
"475 1147 LINE SMOOTH",
"387 797 OFFCURVE",
"307 516 OFFCURVE",
"307 311 CURVE SMOOTH",
"307 104 OFFCURVE",
"408 -14 OFFCURVE",
"703 -14 CURVE SMOOTH",
"1164 -14 OFFCURVE",
"1282 270 OFFCURVE",
"1413 893 CURVE SMOOTH",
"1549 1532 LINE",
"1260 1532 LINE"
);
},
{
closed = 1;
nodes = (
"1333 1661 LINE",
"1211 2048 LINE",
"1168 2048 LINE",
"733 1661 LINE",
"824 1661 LINE",
"1145 1825 LINE",
"1268 1661 LINE"
);
}
);
width = 1466;
}
);
unicode = 00DB;
},
{
glyphname = Udieresis;
lastChange = "2016-06-30 17:42:54 +0000";
layers = (
{
layerId = "C039C1CC-9A8C-45EF-8573-4C10F390742F";
paths = (
{
closed = 1;
nodes = (
"1123 899 LINE SMOOTH",
"975 229 OFFCURVE",
"903 186 OFFCURVE",
"727 186 CURVE SMOOTH",
"623 186 OFFCURVE",
"586 254 OFFCURVE",
"586 371 CURVE SMOOTH",
"586 543 OFFCURVE",
"672 821 OFFCURVE",
"862 1526 CURVE",
"819 1534 OFFCURVE",
"799 1536 OFFCURVE",
"764 1536 CURVE SMOOTH",
"367 1536 OFFCURVE",
"-10 1282 OFFCURVE",
"-10 993 CURVE SMOOTH",
"-10 854 OFFCURVE",
"72 805 OFFCURVE",
"209 805 CURVE",
"209 823 OFFCURVE",
"180 838 OFFCURVE",
"180 946 CURVE SMOOTH",
"180 1194 OFFCURVE",
"320 1358 OFFCURVE",
"543 1417 CURVE",
"475 1147 LINE SMOOTH",
"387 797 OFFCURVE",
"307 516 OFFCURVE",
"307 311 CURVE SMOOTH",
"307 104 OFFCURVE",
"408 -14 OFFCURVE",
"703 -14 CURVE SMOOTH",
"1164 -14 OFFCURVE",
"1282 270 OFFCURVE",
"1413 893 CURVE SMOOTH",
"1549 1532 LINE",
"1260 1532 LINE"
);
},
{
closed = 1;
nodes = (
"1024 1810 CURVE SMOOTH",
"1024 1878 OFFCURVE",
"966 1935 OFFCURVE",
"899 1935 CURVE SMOOTH",
"827 1935 OFFCURVE",
"774 1878 OFFCURVE",
"774 1810 CURVE SMOOTH",
"774 1739 OFFCURVE",
"827 1686 OFFCURVE",
"899 1686 CURVE SMOOTH",
"966 1686 OFFCURVE",
"1024 1739 OFFCURVE"
);
},
{
closed = 1;
nodes = (
"1392 1810 CURVE SMOOTH",
"1392 1878 OFFCURVE",
"1335 1935 OFFCURVE",
"1267 1935 CURVE SMOOTH",
"1196 1935 OFFCURVE",
"1143 1878 OFFCURVE",
"1143 1810 CURVE SMOOTH",
"1143 1739 OFFCURVE",
"1196 1686 OFFCURVE",
"1267 1686 CURVE SMOOTH",
"1335 1686 OFFCURVE",
"1392 1739 OFFCURVE"
);
}
);
width = 1466;
}
);
unicode = 00DC;
},
{
color = 9;
glyphname = Ugrave;
lastChange = "2016-07-04 14:17:55 +0000";
layers = (
{
layerId = "C039C1CC-9A8C-45EF-8573-4C10F390742F";
paths = (
{
closed = 1;
nodes = (
"1123 899 LINE SMOOTH",
"975 229 OFFCURVE",
"903 186 OFFCURVE",
"727 186 CURVE SMOOTH",
"623 186 OFFCURVE",
"586 254 OFFCURVE",
"586 371 CURVE SMOOTH",
"586 543 OFFCURVE",
"672 821 OFFCURVE",
"862 1526 CURVE",
"819 1534 OFFCURVE",
"799 1536 OFFCURVE",
"764 1536 CURVE SMOOTH",
"367 1536 OFFCURVE",
"-10 1282 OFFCURVE",
"-10 993 CURVE SMOOTH",
"-10 854 OFFCURVE",
"72 805 OFFCURVE",
"209 805 CURVE",
"209 823 OFFCURVE",
"180 838 OFFCURVE",
"180 946 CURVE SMOOTH",
"180 1194 OFFCURVE",
"320 1358 OFFCURVE",
"543 1417 CURVE",
"475 1147 LINE SMOOTH",
"387 797 OFFCURVE",
"307 516 OFFCURVE",
"307 311 CURVE SMOOTH",
"307 104 OFFCURVE",
"408 -14 OFFCURVE",
"703 -14 CURVE SMOOTH",
"1164 -14 OFFCURVE",
"1282 270 OFFCURVE",
"1413 893 CURVE SMOOTH",
"1549 1532 LINE",
"1260 1532 LINE"
);
},
{
closed = 1;
nodes = (
"1104 1661 LINE",
"1045 2048 LINE",
"830 2048 LINE",
"951 1661 LINE"
);
}
);
width = 1466;
}
);
unicode = 00D9;
},
{
color = 9;
glyphname = Yacute;
lastChange = "2016-07-04 14:17:55 +0000";
layers = (
{
layerId = "C039C1CC-9A8C-45EF-8573-4C10F390742F";
paths = (
{
closed = 1;
nodes = (
"897 0 LINE",
"1032 631 LINE",
"1430 1526 LINE",
"1294 1526 LINE",
"991 799 LINE",
"813 1532 LINE",
"786 1534 OFFCURVE",
"762 1536 OFFCURVE",
"731 1536 CURVE SMOOTH",
"389 1536 OFFCURVE",
"12 1276 OFFCURVE",
"12 1004 CURVE SMOOTH",
"12 856 OFFCURVE",
"90 805 OFFCURVE",
"231 805 CURVE",
"231 821 OFFCURVE",
"203 840 OFFCURVE",
"203 944 CURVE SMOOTH",
"203 1171 OFFCURVE",
"317 1327 OFFCURVE",
"508 1399 CURVE",
"705 631 LINE",
"569 0 LINE"
);
},
{
closed = 1;
nodes = (
"1161 1661 LINE",
"1409 2048 LINE",
"1194 2048 LINE",
"1008 1661 LINE"
);
}
);
width = 1270;
}
);
unicode = 00DD;
},
{
glyphname = Ydieresis;
lastChange = "2016-06-30 17:42:54 +0000";
layers = (
{
layerId = "C039C1CC-9A8C-45EF-8573-4C10F390742F";
paths = (
{
closed = 1;
nodes = (
"897 0 LINE",
"1032 631 LINE",
"1430 1526 LINE",
"1294 1526 LINE",
"991 799 LINE",
"813 1532 LINE",
"786 1534 OFFCURVE",
"762 1536 OFFCURVE",
"731 1536 CURVE SMOOTH",
"389 1536 OFFCURVE",
"12 1276 OFFCURVE",
"12 1004 CURVE SMOOTH",
"12 856 OFFCURVE",
"90 805 OFFCURVE",
"231 805 CURVE",
"231 821 OFFCURVE",
"203 840 OFFCURVE",
"203 944 CURVE SMOOTH",
"203 1171 OFFCURVE",
"317 1327 OFFCURVE",
"508 1399 CURVE",
"705 631 LINE",
"569 0 LINE"
);
},
{
closed = 1;
nodes = (
"1026 1810 CURVE SMOOTH",
"1026 1878 OFFCURVE",
"969 1935 OFFCURVE",
"901 1935 CURVE SMOOTH",
"829 1935 OFFCURVE",
"776 1878 OFFCURVE",
"776 1810 CURVE SMOOTH",
"776 1739 OFFCURVE",
"829 1686 OFFCURVE",
"901 1686 CURVE SMOOTH",
"969 1686 OFFCURVE",
"1026 1739 OFFCURVE"
);
},
{
closed = 1;
nodes = (
"1395 1810 CURVE SMOOTH",
"1395 1878 OFFCURVE",
"1337 1935 OFFCURVE",
"1270 1935 CURVE SMOOTH",
"1198 1935 OFFCURVE",
"1145 1878 OFFCURVE",
"1145 1810 CURVE SMOOTH",
"1145 1739 OFFCURVE",
"1198 1686 OFFCURVE",
"1270 1686 CURVE SMOOTH",
"1337 1686 OFFCURVE",
"1395 1739 OFFCURVE"
);
}
);
width = 1270;
}
);
unicode = 0178;
},
{
glyphname = Zacute;
lastChange = "2016-06-30 17:42:54 +0000";
layers = (
{
layerId = "C039C1CC-9A8C-45EF-8573-4C10F390742F";
paths = (
{
closed = 1;
nodes = (
"762 0 LINE SMOOTH",
"924 0 OFFCURVE",
"1024 133 OFFCURVE",
"1024 238 CURVE SMOOTH",
"1024 295 OFFCURVE",
"995 356 OFFCURVE",
"920 356 CURVE SMOOTH",
"864 356 OFFCURVE",
"797 326 OFFCURVE",
"797 238 CURVE SMOOTH",
"797 188 OFFCURVE",
"819 174 OFFCURVE",
"834 174 CURVE",
"807 135 OFFCURVE",
"717 129 OFFCURVE",
"621 129 CURVE SMOOTH",
"553 129 OFFCURVE",
"479 133 OFFCURVE",
"424 133 CURVE",
"1130 1536 LINE",
"428 1536 LINE SMOOTH",
"264 1536 OFFCURVE",
"176 1427 OFFCURVE",
"176 1323 CURVE SMOOTH",
"176 1266 OFFCURVE",
"201 1202 OFFCURVE",
"281 1202 CURVE SMOOTH",
"330 1202 OFFCURVE",
"401 1229 OFFCURVE",
"401 1319 CURVE SMOOTH",
"401 1368 OFFCURVE",
"381 1384 OFFCURVE",
"367 1384 CURVE",
"367 1421 OFFCURVE",
"459 1430 OFFCURVE",
"555 1430 CURVE SMOOTH",
"627 1430 OFFCURVE",
"696 1425 OFFCURVE",
"739 1425 CURVE",
"23 0 LINE"
);
},
{
closed = 1;
nodes = (
"897 1661 LINE",
"1145 2048 LINE",
"930 2048 LINE",
"743 1661 LINE"
);
}
);
width = 1110;
}
);
unicode = 0179;
},
{
glyphname = Zcaron;
lastChange = "2016-06-30 17:42:54 +0000";
layers = (
{
layerId = "C039C1CC-9A8C-45EF-8573-4C10F390742F";
paths = (
{
closed = 1;
nodes = (
"762 0 LINE SMOOTH",
"924 0 OFFCURVE",
"1024 133 OFFCURVE",
"1024 238 CURVE SMOOTH",
"1024 295 OFFCURVE",
"995 356 OFFCURVE",
"920 356 CURVE SMOOTH",
"864 356 OFFCURVE",
"797 326 OFFCURVE",
"797 238 CURVE SMOOTH",
"797 188 OFFCURVE",
"819 174 OFFCURVE",
"834 174 CURVE",
"807 135 OFFCURVE",
"717 129 OFFCURVE",
"621 129 CURVE SMOOTH",
"553 129 OFFCURVE",
"479 133 OFFCURVE",
"424 133 CURVE",
"1130 1536 LINE",
"428 1536 LINE SMOOTH",
"264 1536 OFFCURVE",
"176 1427 OFFCURVE",
"176 1323 CURVE SMOOTH",
"176 1266 OFFCURVE",
"201 1202 OFFCURVE",
"281 1202 CURVE SMOOTH",
"330 1202 OFFCURVE",
"401 1229 OFFCURVE",
"401 1319 CURVE SMOOTH",
"401 1368 OFFCURVE",
"381 1384 OFFCURVE",
"367 1384 CURVE",
"367 1421 OFFCURVE",
"459 1430 OFFCURVE",
"555 1430 CURVE SMOOTH",
"627 1430 OFFCURVE",
"696 1425 OFFCURVE",
"739 1425 CURVE",
"23 0 LINE"
);
},
{
closed = 1;
nodes = (
"1223 2048 LINE",
"1133 2048 LINE",
"811 1884 LINE",
"688 2048 LINE",
"623 2048 LINE",
"745 1661 LINE",
"788 1661 LINE"
);
}
);
width = 1110;
}
);
unicode = 017D;
},
{
glyphname = Zdotaccent;
lastChange = "2016-06-30 17:42:54 +0000";
layers = (
{
layerId = "C039C1CC-9A8C-45EF-8573-4C10F390742F";
paths = (
{
closed = 1;
nodes = (
"862 1810 CURVE SMOOTH",
"862 1878 OFFCURVE",
"805 1935 OFFCURVE",
"737 1935 CURVE SMOOTH",
"666 1935 OFFCURVE",
"612 1878 OFFCURVE",
"612 1810 CURVE SMOOTH",
"612 1739 OFFCURVE",
"666 1686 OFFCURVE",
"737 1686 CURVE SMOOTH",
"805 1686 OFFCURVE",
"862 1739 OFFCURVE"
);
},
{
closed = 1;
nodes = (
"762 0 LINE SMOOTH",
"924 0 OFFCURVE",
"1024 133 OFFCURVE",
"1024 238 CURVE SMOOTH",
"1024 295 OFFCURVE",
"995 356 OFFCURVE",
"920 356 CURVE SMOOTH",
"864 356 OFFCURVE",
"797 326 OFFCURVE",
"797 238 CURVE SMOOTH",
"797 188 OFFCURVE",
"819 174 OFFCURVE",
"834 174 CURVE",
"807 135 OFFCURVE",
"717 129 OFFCURVE",
"621 129 CURVE SMOOTH",
"553 129 OFFCURVE",
"479 133 OFFCURVE",
"424 133 CURVE",
"1130 1536 LINE",
"428 1536 LINE SMOOTH",
"264 1536 OFFCURVE",
"176 1427 OFFCURVE",
"176 1323 CURVE SMOOTH",
"176 1266 OFFCURVE",
"201 1202 OFFCURVE",
"281 1202 CURVE SMOOTH",
"330 1202 OFFCURVE",
"401 1229 OFFCURVE",
"401 1319 CURVE SMOOTH",
"401 1368 OFFCURVE",
"381 1384 OFFCURVE",
"367 1384 CURVE",
"367 1421 OFFCURVE",
"459 1430 OFFCURVE",
"555 1430 CURVE SMOOTH",
"627 1430 OFFCURVE",
"696 1425 OFFCURVE",
"739 1425 CURVE",
"23 0 LINE"
);
}
);
width = 1085;
}
);
unicode = 017B;
},
{
glyphname = a.end;
lastChange = "2016-07-01 15:11:08 +0000";
layers = (
{
anchors = (
{
name = bottom;
position = "{478, 0}";
},
{
name = ogonek;
position = "{860, 10}";
},
{
name = top;
position = "{478, 1024}";
}
);
layerId = "C039C1CC-9A8C-45EF-8573-4C10F390742F";
paths = (
{
closed = 1;
nodes = (
"983 1024 LINE",
"688 1024 LINE",
"666 915 LINE",
"666 930 LINE SMOOTH",
"666 989 OFFCURVE",
"616 1034 OFFCURVE",
"500 1034 CURVE SMOOTH",
"143 1034 OFFCURVE",
"-27 596 OFFCURVE",
"-27 317 CURVE SMOOTH",
"-27 74 OFFCURVE",
"106 -12 OFFCURVE",
"246 -12 CURVE SMOOTH",
"391 -12 OFFCURVE",
"489 84 OFFCURVE",
"551 178 CURVE",
"567 57 OFFCURVE",
"639 -12 OFFCURVE",
"752 -12 CURVE SMOOTH",
"860 -12 OFFCURVE",
"901 53 OFFCURVE",
"956 195 CURVE",
"944 188 OFFCURVE",
"930 186 OFFCURVE",
"911 186 CURVE SMOOTH",
"854 186 OFFCURVE",
"827 205 OFFCURVE",
"827 262 CURVE SMOOTH",
"827 283 OFFCURVE",
"829 305 OFFCURVE",
"836 328 CURVE"
);
},
{
closed = 1;
nodes = (
"549 367 LINE SMOOTH",
"522 246 OFFCURVE",
"440 186 OFFCURVE",
"379 186 CURVE SMOOTH",
"342 186 OFFCURVE",
"276 190 OFFCURVE",
"276 346 CURVE SMOOTH",
"276 539 OFFCURVE",
"389 907 OFFCURVE",
"563 907 CURVE SMOOTH",
"629 907 OFFCURVE",
"647 854 OFFCURVE",
"647 829 CURVE"
);
}
);
width = 956;
}
);
},
{
glyphname = a_x;
lastChange = "2016-07-05 15:29:10 +0000";
layers = (
{
anchors = (
{
name = bottom_1;
position = "{428, 0}";
},
{
name = bottom_2;
position = "{1381, 0}";
},
{
name = caret_1;
position = "{866, 0}";
},
{
name = ogonek_1;
position = "{924, 0}";
},
{
name = ogonek_2;
position = "{1812, 0}";
},
{
name = top_1;
position = "{537, 1024}";
},
{
name = top_2;
position = "{1415, 1024}";
}
);
layerId = "C039C1CC-9A8C-45EF-8573-4C10F390742F";
paths = (
{
closed = 1;
nodes = (
"1841 367 LINE",
"1810 262 OFFCURVE",
"1737 186 OFFCURVE",
"1657 186 CURVE SMOOTH",
"1565 186 OFFCURVE",
"1552 291 OFFCURVE",
"1536 367 CURVE",
"1518 469 LINE",
"1720 682 OFFCURVE",
"1810 823 OFFCURVE",
"1810 956 CURVE SMOOTH",
"1810 1057 OFFCURVE",
"1763 1139 OFFCURVE",
"1671 1139 CURVE SMOOTH",
"1608 1139 OFFCURVE",
"1556 1106 OFFCURVE",
"1556 1042 CURVE SMOOTH",
"1556 979 OFFCURVE",
"1581 928 OFFCURVE",
"1653 928 CURVE SMOOTH",
"1663 928 OFFCURVE",
"1673 930 OFFCURVE",
"1688 932 CURVE",
"1690 926 OFFCURVE",
"1690 918 OFFCURVE",
"1690 907 CURVE SMOOTH",
"1690 834 OFFCURVE",
"1618 713 OFFCURVE",
"1495 582 CURVE",
"1415 1024 LINE",
"1126 1024 LINE",
"1245 379 LINE",
"1159 276 OFFCURVE",
"1026 186 OFFCURVE",
"918 186 CURVE SMOOTH",
"850 186 OFFCURVE",
"829 225 OFFCURVE",
"829 276 CURVE SMOOTH",
"829 291 OFFCURVE",
"831 309 OFFCURVE",
"836 328 CURVE SMOOTH",
"983 1024 LINE",
"688 1024 LINE",
"666 915 LINE",
"666 930 LINE SMOOTH",
"666 989 OFFCURVE",
"616 1034 OFFCURVE",
"500 1034 CURVE SMOOTH",
"143 1034 OFFCURVE",
"-27 596 OFFCURVE",
"-27 317 CURVE SMOOTH",
"-27 74 OFFCURVE",
"106 -12 OFFCURVE",
"246 -12 CURVE SMOOTH",
"393 -12 OFFCURVE",
"489 84 OFFCURVE",
"553 180 CURVE",
"575 57 OFFCURVE",
"672 -12 OFFCURVE",
"786 -12 CURVE SMOOTH",
"952 -12 OFFCURVE",
"1112 66 OFFCURVE",
"1268 262 CURVE",
"1315 68 OFFCURVE",
"1376 -12 OFFCURVE",
"1505 -12 CURVE SMOOTH",
"1616 -12 OFFCURVE",
"1812 33 OFFCURVE",
"1927 367 CURVE"
);
},
{
closed = 1;
nodes = (
"549 367 LINE SMOOTH",
"522 246 OFFCURVE",
"440 186 OFFCURVE",
"379 186 CURVE SMOOTH",
"342 186 OFFCURVE",
"276 190 OFFCURVE",
"276 346 CURVE SMOOTH",
"276 539 OFFCURVE",
"389 907 OFFCURVE",
"563 907 CURVE SMOOTH",
"629 907 OFFCURVE",
"647 854 OFFCURVE",
"647 829 CURVE"
);
}
);
width = 1841;
}
);
},
{
glyphname = a_x.end;
lastChange = "2016-07-05 15:29:31 +0000";
layers = (
{
anchors = (
{
name = bottom_1;
position = "{453, 0}";
},
{
name = bottom_2;
position = "{1358, 0}";
},
{
name = caret_1;
position = "{905, 0}";
},
{
name = ogonek_1;
position = "{952, -12}";
},
{
name = ogonek_2;
position = "{1814, 0}";
},
{
name = top_1;
position = "{616, 1034}";
},
{
name = top_2;
position = "{1493, 1024}";
}
);
layerId = "C039C1CC-9A8C-45EF-8573-4C10F390742F";
paths = (
{
closed = 1;
nodes = (
"1518 469 LINE",
"1720 682 OFFCURVE",
"1810 823 OFFCURVE",
"1810 956 CURVE SMOOTH",
"1810 1057 OFFCURVE",
"1763 1139 OFFCURVE",
"1671 1139 CURVE SMOOTH",
"1608 1139 OFFCURVE",
"1556 1106 OFFCURVE",
"1556 1042 CURVE SMOOTH",
"1556 979 OFFCURVE",
"1581 928 OFFCURVE",
"1653 928 CURVE SMOOTH",
"1663 928 OFFCURVE",
"1673 930 OFFCURVE",
"1688 932 CURVE",
"1690 926 OFFCURVE",
"1690 918 OFFCURVE",
"1690 907 CURVE SMOOTH",
"1690 834 OFFCURVE",
"1618 713 OFFCURVE",
"1495 582 CURVE",
"1415 1024 LINE",
"1126 1024 LINE",
"1245 379 LINE",
"1159 276 OFFCURVE",
"1026 186 OFFCURVE",
"918 186 CURVE SMOOTH",
"850 186 OFFCURVE",
"829 225 OFFCURVE",
"829 276 CURVE SMOOTH",
"829 291 OFFCURVE",
"831 309 OFFCURVE",
"836 328 CURVE SMOOTH",
"983 1024 LINE",
"688 1024 LINE",
"666 915 LINE",
"666 930 LINE SMOOTH",
"666 989 OFFCURVE",
"616 1034 OFFCURVE",
"500 1034 CURVE SMOOTH",
"143 1034 OFFCURVE",
"-27 596 OFFCURVE",
"-27 317 CURVE SMOOTH",
"-27 74 OFFCURVE",
"106 -12 OFFCURVE",
"246 -12 CURVE SMOOTH",
"393 -12 OFFCURVE",
"489 84 OFFCURVE",
"553 180 CURVE",
"575 57 OFFCURVE",
"672 -12 OFFCURVE",
"786 -12 CURVE SMOOTH",
"952 -12 OFFCURVE",
"1112 66 OFFCURVE",
"1268 262 CURVE",
"1315 68 OFFCURVE",
"1376 -12 OFFCURVE",
"1505 -12 CURVE SMOOTH",
"1614 -12 OFFCURVE",
"1720 53 OFFCURVE",
"1731 199 CURVE",
"1716 193 OFFCURVE",
"1704 186 OFFCURVE",
"1665 186 CURVE SMOOTH",
"1575 186 OFFCURVE",
"1559 244 OFFCURVE",
"1536 367 CURVE SMOOTH"
);
},
{
closed = 1;
nodes = (
"549 367 LINE SMOOTH",
"522 246 OFFCURVE",
"440 186 OFFCURVE",
"379 186 CURVE SMOOTH",
"342 186 OFFCURVE",
"276 190 OFFCURVE",
"276 346 CURVE SMOOTH",
"276 539 OFFCURVE",
"389 907 OFFCURVE",
"563 907 CURVE SMOOTH",
"629 907 OFFCURVE",
"647 854 OFFCURVE",
"647 829 CURVE"
);
}
);
width = 1810;
}
);
},
{
glyphname = a_z;
lastChange = "2016-07-05 15:29:47 +0000";
layers = (
{
anchors = (
{
name = bottom_1;
position = "{464, 0}";
},
{
name = bottom_2;
position = "{1391, 0}";
},
{
name = caret_1;
position = "{927.5, 0}";
},
{
name = ogonek_1;
position = "{929, 0}";
},
{
name = ogonek_2;
position = "{1559, 0}";
},
{
name = top_1;
position = "{654, 1024}";
},
{
name = top_2;
position = "{1578, 1024}";
}
);
layerId = "C039C1CC-9A8C-45EF-8573-4C10F390742F";
paths = (
{
closed = 1;
nodes = (
"983 1024 LINE",
"688 1024 LINE",
"666 915 LINE",
"666 930 LINE SMOOTH",
"666 989 OFFCURVE",
"616 1034 OFFCURVE",
"500 1034 CURVE SMOOTH",
"143 1034 OFFCURVE",
"-27 596 OFFCURVE",
"-27 317 CURVE SMOOTH",
"-27 74 OFFCURVE",
"106 -12 OFFCURVE",
"246 -12 CURVE SMOOTH",
"391 -12 OFFCURVE",
"489 84 OFFCURVE",
"551 178 CURVE",
"567 57 OFFCURVE",
"639 -12 OFFCURVE",
"752 -12 CURVE SMOOTH",
"860 -12 OFFCURVE",
"901 53 OFFCURVE",
"956 195 CURVE",
"944 188 OFFCURVE",
"930 186 OFFCURVE",
"911 186 CURVE SMOOTH",
"854 186 OFFCURVE",
"827 205 OFFCURVE",
"827 262 CURVE SMOOTH",
"827 283 OFFCURVE",
"829 305 OFFCURVE",
"836 328 CURVE"
);
},
{
closed = 1;
nodes = (
"549 367 LINE SMOOTH",
"522 246 OFFCURVE",
"440 186 OFFCURVE",
"379 186 CURVE SMOOTH",
"342 186 OFFCURVE",
"276 190 OFFCURVE",
"276 346 CURVE SMOOTH",
"276 539 OFFCURVE",
"389 907 OFFCURVE",
"563 907 CURVE SMOOTH",
"629 907 OFFCURVE",
"647 854 OFFCURVE",
"647 829 CURVE"
);
},
{
closed = 1;
nodes = (
"1522 0 LINE SMOOTH",
"1679 0 OFFCURVE",
"1772 125 OFFCURVE",
"1772 219 CURVE SMOOTH",
"1772 274 OFFCURVE",
"1745 317 OFFCURVE",
"1681 317 CURVE SMOOTH",
"1606 317 OFFCURVE",
"1567 268 OFFCURVE",
"1567 229 CURVE SMOOTH",
"1567 207 OFFCURVE",
"1579 188 OFFCURVE",
"1606 186 CURVE",
"1599 154 OFFCURVE",
"1559 145 OFFCURVE",
"1509 145 CURVE SMOOTH",
"1454 145 OFFCURVE",
"1389 156 OFFCURVE",
"1354 158 CURVE",
"1855 1024 LINE",
"1329 1024 LINE SMOOTH",
"1182 1024 OFFCURVE",
"1092 901 OFFCURVE",
"1092 817 CURVE SMOOTH",
"1092 758 OFFCURVE",
"1139 727 OFFCURVE",
"1186 727 CURVE SMOOTH",
"1241 727 OFFCURVE",
"1296 760 OFFCURVE",
"1296 836 CURVE SMOOTH",
"1296 883 OFFCURVE",
"1274 868 OFFCURVE",
"1274 881 CURVE SMOOTH",
"1274 911 OFFCURVE",
"1323 913 OFFCURVE",
"1386 913 CURVE SMOOTH",
"1501 913 LINE",
"979 0 LINE"
);
}
);
width = 1855;
}
);
},
{
color = 9;
glyphname = aacute;
lastChange = "2016-07-04 14:17:55 +0000";
layers = (
{
layerId = "C039C1CC-9A8C-45EF-8573-4C10F390742F";
paths = (
{
closed = 1;
nodes = (
"1077 367 LINE",
"1047 262 OFFCURVE",
"991 174 OFFCURVE",
"911 174 CURVE SMOOTH",
"856 174 OFFCURVE",
"827 203 OFFCURVE",
"827 262 CURVE SMOOTH",
"827 283 OFFCURVE",
"829 305 OFFCURVE",
"836 328 CURVE",
"983 1024 LINE",
"688 1024 LINE",
"666 915 LINE",
"666 930 LINE SMOOTH",
"666 989 OFFCURVE",
"616 1034 OFFCURVE",
"500 1034 CURVE SMOOTH",
"143 1034 OFFCURVE",
"-27 596 OFFCURVE",
"-27 317 CURVE SMOOTH",
"-27 74 OFFCURVE",
"106 -12 OFFCURVE",
"246 -12 CURVE SMOOTH",
"393 -12 OFFCURVE",
"485 84 OFFCURVE",
"551 176 CURVE",
"565 53 OFFCURVE",
"637 -12 OFFCURVE",
"752 -12 CURVE SMOOTH",
"860 -12 OFFCURVE",
"1049 33 OFFCURVE",
"1163 367 CURVE"
);
},
{
closed = 1;
nodes = (
"549 367 LINE SMOOTH",
"522 246 OFFCURVE",
"440 186 OFFCURVE",
"379 186 CURVE SMOOTH",
"342 186 OFFCURVE",
"276 190 OFFCURVE",
"276 346 CURVE SMOOTH",
"276 539 OFFCURVE",
"389 907 OFFCURVE",
"563 907 CURVE SMOOTH",
"629 907 OFFCURVE",
"647 854 OFFCURVE",
"647 829 CURVE"
);
},
{
closed = 1;
nodes = (
"655 1149 LINE",
"903 1536 LINE",
"688 1536 LINE",
"502 1149 LINE"
);
}
);
width = 1077;
}
);
unicode = 00E1;
},
{
glyphname = aacute.end;
lastChange = "2016-06-30 19:39:37 +0000";
layers = (
{
layerId = "C039C1CC-9A8C-45EF-8573-4C10F390742F";
paths = (
{
closed = 1;
nodes = (
"971 1024 LINE",
"676 1024 LINE",
"653 915 LINE",
"653 930 LINE SMOOTH",
"653 989 OFFCURVE",
"604 1034 OFFCURVE",
"487 1034 CURVE SMOOTH",
"131 1034 OFFCURVE",
"-39 596 OFFCURVE",
"-39 317 CURVE SMOOTH",
"-39 74 OFFCURVE",
"94 -12 OFFCURVE",
"233 -12 CURVE SMOOTH",
"379 -12 OFFCURVE",
"477 84 OFFCURVE",
"539 178 CURVE",
"555 57 OFFCURVE",
"627 -12 OFFCURVE",
"739 -12 CURVE SMOOTH",
"848 -12 OFFCURVE",
"889 53 OFFCURVE",
"944 195 CURVE",
"932 188 OFFCURVE",
"918 186 OFFCURVE",
"899 186 CURVE SMOOTH",
"842 186 OFFCURVE",
"815 205 OFFCURVE",
"815 262 CURVE SMOOTH",
"815 283 OFFCURVE",
"817 305 OFFCURVE",
"823 328 CURVE"
);
},
{
closed = 1;
nodes = (
"537 367 LINE SMOOTH",
"510 246 OFFCURVE",
"428 186 OFFCURVE",
"367 186 CURVE SMOOTH",
"330 186 OFFCURVE",
"264 190 OFFCURVE",
"264 346 CURVE SMOOTH",
"264 539 OFFCURVE",
"377 907 OFFCURVE",
"551 907 CURVE SMOOTH",
"616 907 OFFCURVE",
"635 854 OFFCURVE",
"635 829 CURVE"
);
},
{
closed = 1;
nodes = (
"662 1149 LINE",
"909 1536 LINE",
"694 1536 LINE",
"508 1149 LINE"
);
}
);
width = 944;
}
);
},
{
color = 9;
glyphname = acircumflex;
lastChange = "2016-07-04 14:17:55 +0000";
layers = (
{
layerId = "C039C1CC-9A8C-45EF-8573-4C10F390742F";
paths = (
{
closed = 1;
nodes = (
"1077 367 LINE",
"1047 262 OFFCURVE",
"991 174 OFFCURVE",
"911 174 CURVE SMOOTH",
"856 174 OFFCURVE",
"827 203 OFFCURVE",
"827 262 CURVE SMOOTH",
"827 283 OFFCURVE",
"829 305 OFFCURVE",
"836 328 CURVE",
"983 1024 LINE",
"688 1024 LINE",
"666 915 LINE",
"666 930 LINE SMOOTH",
"666 989 OFFCURVE",
"616 1034 OFFCURVE",
"500 1034 CURVE SMOOTH",
"143 1034 OFFCURVE",
"-27 596 OFFCURVE",
"-27 317 CURVE SMOOTH",
"-27 74 OFFCURVE",
"106 -12 OFFCURVE",
"246 -12 CURVE SMOOTH",
"393 -12 OFFCURVE",
"485 84 OFFCURVE",
"551 176 CURVE",
"565 53 OFFCURVE",
"637 -12 OFFCURVE",
"752 -12 CURVE SMOOTH",
"860 -12 OFFCURVE",
"1049 33 OFFCURVE",
"1163 367 CURVE"
);
},
{
closed = 1;
nodes = (
"549 367 LINE SMOOTH",
"522 246 OFFCURVE",
"440 186 OFFCURVE",
"379 186 CURVE SMOOTH",
"342 186 OFFCURVE",
"276 190 OFFCURVE",
"276 346 CURVE SMOOTH",
"276 539 OFFCURVE",
"389 907 OFFCURVE",
"563 907 CURVE SMOOTH",
"629 907 OFFCURVE",
"647 854 OFFCURVE",
"647 829 CURVE"
);
},
{
closed = 1;
nodes = (
"919 1149 LINE",
"796 1536 LINE",
"753 1536 LINE",
"319 1149 LINE",
"409 1149 LINE",
"731 1313 LINE",
"854 1149 LINE"
);
}
);
width = 1077;
}
);
unicode = 00E2;
},
{
glyphname = acute;
lastChange = "2016-07-01 13:32:04 +0000";
layers = (
{
anchors = (
{
name = _top;
position = "{297, 1136}";
},
{
name = top;
position = "{548, 1532}";
}
);
layerId = "C039C1CC-9A8C-45EF-8573-4C10F390742F";
paths = (
{
closed = 1;
nodes = (
"246 1149 LINE",
"358 1149 LINE",
"647 1536 LINE",
"432 1536 LINE"
);
}
);
width = 647;
}
);
unicode = 00B4;
},
{
glyphname = adieresis;
lastChange = "2016-06-30 17:42:54 +0000";
layers = (
{
layerId = "C039C1CC-9A8C-45EF-8573-4C10F390742F";
paths = (
{
closed = 1;
nodes = (
"1077 367 LINE",
"1047 262 OFFCURVE",
"991 174 OFFCURVE",
"911 174 CURVE SMOOTH",
"856 174 OFFCURVE",
"827 203 OFFCURVE",
"827 262 CURVE SMOOTH",
"827 283 OFFCURVE",
"829 305 OFFCURVE",
"836 328 CURVE",
"983 1024 LINE",
"688 1024 LINE",
"666 915 LINE",
"666 930 LINE SMOOTH",
"666 989 OFFCURVE",
"616 1034 OFFCURVE",
"500 1034 CURVE SMOOTH",
"143 1034 OFFCURVE",
"-27 596 OFFCURVE",
"-27 317 CURVE SMOOTH",
"-27 74 OFFCURVE",
"106 -12 OFFCURVE",
"246 -12 CURVE SMOOTH",
"393 -12 OFFCURVE",
"485 84 OFFCURVE",
"551 176 CURVE",
"565 53 OFFCURVE",
"637 -12 OFFCURVE",
"752 -12 CURVE SMOOTH",
"860 -12 OFFCURVE",
"1049 33 OFFCURVE",
"1163 367 CURVE"
);
},
{
closed = 1;
nodes = (
"549 367 LINE SMOOTH",
"522 246 OFFCURVE",
"440 186 OFFCURVE",
"379 186 CURVE SMOOTH",
"342 186 OFFCURVE",
"276 190 OFFCURVE",
"276 346 CURVE SMOOTH",
"276 539 OFFCURVE",
"389 907 OFFCURVE",
"563 907 CURVE SMOOTH",
"629 907 OFFCURVE",
"647 854 OFFCURVE",
"647 829 CURVE"
);
},
{
closed = 1;
nodes = (
"494 1174 CURVE SMOOTH",
"561 1174 OFFCURVE",
"618 1227 OFFCURVE",
"618 1298 CURVE SMOOTH",
"618 1366 OFFCURVE",
"561 1423 OFFCURVE",
"494 1423 CURVE SMOOTH",
"422 1423 OFFCURVE",
"369 1366 OFFCURVE",
"369 1298 CURVE SMOOTH",
"369 1227 OFFCURVE",
"422 1174 OFFCURVE"
);
},
{
closed = 1;
nodes = (
"987 1298 CURVE SMOOTH",
"987 1366 OFFCURVE",
"930 1423 OFFCURVE",
"862 1423 CURVE SMOOTH",
"791 1423 OFFCURVE",
"737 1366 OFFCURVE",
"737 1298 CURVE SMOOTH",
"737 1227 OFFCURVE",
"791 1174 OFFCURVE",
"862 1174 CURVE SMOOTH",
"930 1174 OFFCURVE",
"987 1227 OFFCURVE"
);
}
);
width = 1077;
}
);
unicode = 00E4;
},
{
glyphname = ae;
lastChange = "2016-07-01 15:11:08 +0000";
layers = (
{
anchors = (
{
name = bottom;
position = "{666, 0}";
},
{
name = top;
position = "{666, 1024}";
}
);
layerId = "C039C1CC-9A8C-45EF-8573-4C10F390742F";
paths = (
{
closed = 1;
nodes = (
"1331 367 LINE",
"1217 242 OFFCURVE",
"1143 160 OFFCURVE",
"944 160 CURVE SMOOTH",
"870 160 OFFCURVE",
"821 195 OFFCURVE",
"821 348 CURVE SMOOTH",
"821 371 OFFCURVE",
"823 391 OFFCURVE",
"825 414 CURVE",
"1071 430 OFFCURVE",
"1296 610 OFFCURVE",
"1296 840 CURVE SMOOTH",
"1296 948 OFFCURVE",
"1255 1042 OFFCURVE",
"1073 1042 CURVE SMOOTH",
"961 1042 OFFCURVE",
"870 1008 OFFCURVE",
"797 952 CURVE",
"725 1010 OFFCURVE",
"635 1034 OFFCURVE",
"530 1034 CURVE SMOOTH",
"416 1034 OFFCURVE",
"311 1028 OFFCURVE",
"158 874 CURVE",
"215 815 LINE",
"274 870 OFFCURVE",
"340 911 OFFCURVE",
"463 911 CURVE SMOOTH",
"551 911 OFFCURVE",
"588 848 OFFCURVE",
"588 766 CURVE SMOOTH",
"588 709 OFFCURVE",
"571 643 OFFCURVE",
"545 586 CURVE",
"520 592 OFFCURVE",
"487 594 OFFCURVE",
"438 594 CURVE SMOOTH",
"182 594 OFFCURVE",
"-16 508 OFFCURVE",
"-16 254 CURVE SMOOTH",
"-16 37 OFFCURVE",
"123 -12 OFFCURVE",
"244 -12 CURVE SMOOTH",
"406 -12 OFFCURVE",
"479 80 OFFCURVE",
"535 184 CURVE",
"573 45 OFFCURVE",
"686 -8 OFFCURVE",
"836 -8 CURVE SMOOTH",
"1112 -8 OFFCURVE",
"1288 182 OFFCURVE",
"1401 367 CURVE"
);
},
{
closed = 1;
nodes = (
"840 512 CURVE",
"883 709 OFFCURVE",
"981 934 OFFCURVE",
"1090 934 CURVE SMOOTH",
"1128 934 OFFCURVE",
"1139 901 OFFCURVE",
"1139 844 CURVE SMOOTH",
"1139 682 OFFCURVE",
"997 522 OFFCURVE"
);
},
{
closed = 1;
nodes = (
"530 467 CURVE",
"487 244 OFFCURVE",
"436 186 OFFCURVE",
"367 186 CURVE SMOOTH",
"342 186 OFFCURVE",
"272 197 OFFCURVE",
"272 289 CURVE SMOOTH",
"272 397 OFFCURVE",
"362 469 OFFCURVE",
"496 469 CURVE SMOOTH",
"510 469 OFFCURVE",
"516 469 OFFCURVE"
);
}
);
width = 1331;
}
);
unicode = 00E6;
},
{
color = 9;
glyphname = agrave;
lastChange = "2016-07-04 14:17:55 +0000";
layers = (
{
layerId = "C039C1CC-9A8C-45EF-8573-4C10F390742F";
paths = (
{
closed = 1;
nodes = (
"1077 367 LINE",
"1047 262 OFFCURVE",
"991 174 OFFCURVE",
"911 174 CURVE SMOOTH",
"856 174 OFFCURVE",
"827 203 OFFCURVE",
"827 262 CURVE SMOOTH",
"827 283 OFFCURVE",
"829 305 OFFCURVE",
"836 328 CURVE",
"983 1024 LINE",
"688 1024 LINE",
"666 915 LINE",
"666 930 LINE SMOOTH",
"666 989 OFFCURVE",
"616 1034 OFFCURVE",
"500 1034 CURVE SMOOTH",
"143 1034 OFFCURVE",
"-27 596 OFFCURVE",
"-27 317 CURVE SMOOTH",
"-27 74 OFFCURVE",
"106 -12 OFFCURVE",
"246 -12 CURVE SMOOTH",
"393 -12 OFFCURVE",
"485 84 OFFCURVE",
"551 176 CURVE",
"565 53 OFFCURVE",
"637 -12 OFFCURVE",
"752 -12 CURVE SMOOTH",
"860 -12 OFFCURVE",
"1049 33 OFFCURVE",
"1163 367 CURVE"
);
},
{
closed = 1;
nodes = (
"549 367 LINE SMOOTH",
"522 246 OFFCURVE",
"440 186 OFFCURVE",
"379 186 CURVE SMOOTH",
"342 186 OFFCURVE",
"276 190 OFFCURVE",
"276 346 CURVE SMOOTH",
"276 539 OFFCURVE",
"389 907 OFFCURVE",
"563 907 CURVE SMOOTH",
"629 907 OFFCURVE",
"647 854 OFFCURVE",
"647 829 CURVE"
);
},
{
closed = 1;
nodes = (
"717 1149 LINE",
"657 1536 LINE",
"442 1536 LINE",
"563 1149 LINE"
);
}
);
width = 1077;
}
);
unicode = 00E0;
},
{
glyphname = aogonek;
lastChange = "2016-06-30 17:42:54 +0000";
layers = (
{
layerId = "C039C1CC-9A8C-45EF-8573-4C10F390742F";
paths = (
{
closed = 1;
nodes = (
"1077 367 LINE",
"1047 262 OFFCURVE",
"991 174 OFFCURVE",
"911 174 CURVE SMOOTH",
"856 174 OFFCURVE",
"827 203 OFFCURVE",
"827 262 CURVE SMOOTH",
"827 283 OFFCURVE",
"829 305 OFFCURVE",
"836 328 CURVE",
"983 1024 LINE",
"688 1024 LINE",
"666 915 LINE",
"666 930 LINE SMOOTH",
"666 989 OFFCURVE",
"616 1034 OFFCURVE",
"500 1034 CURVE SMOOTH",
"143 1034 OFFCURVE",
"-27 596 OFFCURVE",
"-27 317 CURVE SMOOTH",
"-27 74 OFFCURVE",
"106 -12 OFFCURVE",
"246 -12 CURVE SMOOTH",
"393 -12 OFFCURVE",
"485 84 OFFCURVE",
"551 176 CURVE",
"561 61 OFFCURVE",
"625 0 OFFCURVE",
"723 -10 CURVE",
"635 -86 OFFCURVE",
"592 -164 OFFCURVE",
"592 -236 CURVE SMOOTH",
"592 -307 OFFCURVE",
"641 -395 OFFCURVE",
"754 -395 CURVE SMOOTH",
"856 -395 OFFCURVE",
"930 -315 OFFCURVE",
"977 -268 CURVE",
"977 -244 OFFCURVE",
"979 -229 OFFCURVE",
"981 -205 CURVE",
"940 -231 OFFCURVE",
"891 -274 OFFCURVE",
"842 -274 CURVE SMOOTH",
"784 -274 OFFCURVE",
"762 -219 OFFCURVE",
"762 -172 CURVE SMOOTH",
"762 -88 OFFCURVE",
"831 -12 OFFCURVE",
"877 10 CURVE",
"975 53 OFFCURVE",
"1081 141 OFFCURVE",
"1163 367 CURVE"
);
},
{
closed = 1;
nodes = (
"549 367 LINE SMOOTH",
"522 246 OFFCURVE",
"440 186 OFFCURVE",
"379 186 CURVE SMOOTH",
"342 186 OFFCURVE",
"276 190 OFFCURVE",
"276 346 CURVE SMOOTH",
"276 539 OFFCURVE",
"389 907 OFFCURVE",
"563 907 CURVE SMOOTH",
"629 907 OFFCURVE",
"647 854 OFFCURVE",
"647 829 CURVE"
);
}
);
width = 1077;
}
);
unicode = 0105;
},
{
glyphname = aring;
lastChange = "2016-06-30 17:42:54 +0000";
layers = (
{
layerId = "C039C1CC-9A8C-45EF-8573-4C10F390742F";
paths = (
{
closed = 1;
nodes = (
"1077 367 LINE",
"1047 262 OFFCURVE",
"991 174 OFFCURVE",
"911 174 CURVE SMOOTH",
"856 174 OFFCURVE",
"827 203 OFFCURVE",
"827 262 CURVE SMOOTH",
"827 283 OFFCURVE",
"829 305 OFFCURVE",
"836 328 CURVE",
"983 1024 LINE",
"688 1024 LINE",
"666 915 LINE",
"666 930 LINE SMOOTH",
"666 989 OFFCURVE",
"616 1034 OFFCURVE",
"500 1034 CURVE SMOOTH",
"143 1034 OFFCURVE",
"-27 596 OFFCURVE",
"-27 317 CURVE SMOOTH",
"-27 74 OFFCURVE",
"106 -12 OFFCURVE",
"246 -12 CURVE SMOOTH",
"393 -12 OFFCURVE",
"485 84 OFFCURVE",
"551 176 CURVE",
"565 53 OFFCURVE",
"637 -12 OFFCURVE",
"752 -12 CURVE SMOOTH",
"860 -12 OFFCURVE",
"1049 33 OFFCURVE",
"1163 367 CURVE"
);
},
{
closed = 1;
nodes = (
"549 367 LINE SMOOTH",
"522 246 OFFCURVE",
"440 186 OFFCURVE",
"379 186 CURVE SMOOTH",
"342 186 OFFCURVE",
"276 190 OFFCURVE",
"276 346 CURVE SMOOTH",
"276 539 OFFCURVE",
"389 907 OFFCURVE",
"563 907 CURVE SMOOTH",
"629 907 OFFCURVE",
"647 854 OFFCURVE",
"647 829 CURVE"
);
},
{
closed = 1;
nodes = (
"801 1303 CURVE SMOOTH",
"801 1391 OFFCURVE",
"754 1460 OFFCURVE",
"653 1460 CURVE SMOOTH",
"530 1460 OFFCURVE",
"479 1348 OFFCURVE",
"479 1274 CURVE SMOOTH",
"479 1194 OFFCURVE",
"535 1130 OFFCURVE",
"623 1130 CURVE SMOOTH",
"752 1130 OFFCURVE",
"801 1212 OFFCURVE"
);
},
{
closed = 1;
nodes = (
"725 1296 CURVE SMOOTH",
"725 1239 OFFCURVE",
"694 1202 OFFCURVE",
"631 1202 CURVE SMOOTH",
"582 1202 OFFCURVE",
"561 1231 OFFCURVE",
"561 1278 CURVE SMOOTH",
"561 1329 OFFCURVE",
"586 1393 OFFCURVE",
"657 1393 CURVE SMOOTH",
"723 1393 OFFCURVE",
"725 1337 OFFCURVE"
);
}
);
width = 1077;
}
);
unicode = 00E5;
},
{
color = 9;
glyphname = atilde;
lastChange = "2016-07-04 14:17:55 +0000";
layers = (
{
layerId = "C039C1CC-9A8C-45EF-8573-4C10F390742F";
paths = (
{
closed = 1;
nodes = (
"1077 367 LINE",
"1047 262 OFFCURVE",
"991 174 OFFCURVE",
"911 174 CURVE SMOOTH",
"856 174 OFFCURVE",
"827 203 OFFCURVE",
"827 262 CURVE SMOOTH",
"827 283 OFFCURVE",
"829 305 OFFCURVE",
"836 328 CURVE",
"983 1024 LINE",
"688 1024 LINE",
"666 915 LINE",
"666 930 LINE SMOOTH",
"666 989 OFFCURVE",
"616 1034 OFFCURVE",
"500 1034 CURVE SMOOTH",
"143 1034 OFFCURVE",
"-27 596 OFFCURVE",
"-27 317 CURVE SMOOTH",
"-27 74 OFFCURVE",
"106 -12 OFFCURVE",
"246 -12 CURVE SMOOTH",
"393 -12 OFFCURVE",
"485 84 OFFCURVE",
"551 176 CURVE",
"565 53 OFFCURVE",
"637 -12 OFFCURVE",
"752 -12 CURVE SMOOTH",
"860 -12 OFFCURVE",
"1049 33 OFFCURVE",
"1163 367 CURVE"
);
},
{
closed = 1;
nodes = (
"549 367 LINE SMOOTH",
"522 246 OFFCURVE",
"440 186 OFFCURVE",
"379 186 CURVE SMOOTH",
"342 186 OFFCURVE",
"276 190 OFFCURVE",
"276 346 CURVE SMOOTH",
"276 539 OFFCURVE",
"389 907 OFFCURVE",
"563 907 CURVE SMOOTH",
"629 907 OFFCURVE",
"647 854 OFFCURVE",
"647 829 CURVE"
);
},
{
closed = 1;
nodes = (
"1058 1372 LINE",
"1027 1341 OFFCURVE",
"980 1325 OFFCURVE",
"929 1325 CURVE SMOOTH",
"810 1325 OFFCURVE",
"738 1393 OFFCURVE",
"591 1393 CURVE SMOOTH",
"435 1393 OFFCURVE",
"314 1323 OFFCURVE",
"249 1192 CURVE",
"261 1188 LINE",
"300 1223 OFFCURVE",
"345 1241 OFFCURVE",
"396 1241 CURVE SMOOTH",
"511 1241 OFFCURVE",
"603 1165 OFFCURVE",
"740 1165 CURVE SMOOTH",
"896 1165 OFFCURVE",
"1050 1274 OFFCURVE",
"1070 1370 CURVE"
);
}
);
width = 1077;
}
);
unicode = 00E3;
},
{
glyphname = b_s;
lastChange = "2016-07-05 15:30:00 +0000";
layers = (
{
anchors = (
{
name = bottom_1;
position = "{409, 0}";
},
{
name = bottom_2;
position = "{1178, 0}";
},
{
name = caret_1;
position = "{818, 0}";
},
{
name = top_1;
position = "{570, 1024}";
},
{
name = top_2;
position = "{1370, 1024}";
}
);
layerId = "C039C1CC-9A8C-45EF-8573-4C10F390742F";
paths = (
{
closed = 1;
nodes = (
"1636 367 LINE",
"1597 336 OFFCURVE",
"1546 297 OFFCURVE",
"1491 266 CURVE",
"1495 289 OFFCURVE",
"1497 313 OFFCURVE",
"1497 342 CURVE SMOOTH",
"1497 479 OFFCURVE",
"1475 555 OFFCURVE",
"1452 1087 CURVE",
"1149 1047 LINE",
"1036 856 OFFCURVE",
"932 741 OFFCURVE",
"834 723 CURVE",
"821 950 OFFCURVE",
"725 1030 OFFCURVE",
"592 1030 CURVE SMOOTH",
"551 1030 OFFCURVE",
"508 1024 OFFCURVE",
"424 973 CURVE",
"522 1434 LINE",
"219 1393 LINE",
"0 367 LINE",
"-10 328 OFFCURVE",
"-14 289 OFFCURVE",
"-14 250 CURVE SMOOTH",
"-14 86 OFFCURVE",
"84 -12 OFFCURVE",
"272 -12 CURVE SMOOTH",
"674 -12 OFFCURVE",
"813 373 OFFCURVE",
"831 621 CURVE",
"950 662 OFFCURVE",
"1059 752 OFFCURVE",
"1155 897 CURVE",
"1178 518 OFFCURVE",
"1200 453 OFFCURVE",
"1200 340 CURVE SMOOTH",
"1200 195 OFFCURVE",
"1161 150 OFFCURVE",
"1071 150 CURVE SMOOTH",
"991 150 OFFCURVE",
"952 207 OFFCURVE",
"952 303 CURVE",
"963 281 OFFCURVE",
"985 276 OFFCURVE",
"1008 276 CURVE SMOOTH",
"1063 276 OFFCURVE",
"1106 319 OFFCURVE",
"1106 369 CURVE SMOOTH",
"1106 426 OFFCURVE",
"1071 455 OFFCURVE",
"999 455 CURVE SMOOTH",
"928 455 OFFCURVE",
"852 381 OFFCURVE",
"852 260 CURVE SMOOTH",
"852 135 OFFCURVE",
"893 -12 OFFCURVE",
"1137 -12 CURVE SMOOTH",
"1249 -12 OFFCURVE",
"1366 23 OFFCURVE",
"1438 127 CURVE",
"1526 182 OFFCURVE",
"1626 254 OFFCURVE",
"1722 367 CURVE"
);
},
{
closed = 1;
nodes = (
"397 848 LINE",
"420 877 OFFCURVE",
"489 885 OFFCURVE",
"518 885 CURVE SMOOTH",
"569 885 OFFCURVE",
"602 838 OFFCURVE",
"616 776 CURVE",
"600 756 OFFCURVE",
"590 727 OFFCURVE",
"590 692 CURVE SMOOTH",
"590 653 OFFCURVE",
"600 627 OFFCURVE",
"623 610 CURVE",
"600 410 OFFCURVE",
"504 186 OFFCURVE",
"387 186 CURVE SMOOTH",
"315 186 OFFCURVE",
"279 217 OFFCURVE",
"279 281 CURVE SMOOTH",
"279 295 OFFCURVE",
"281 311 OFFCURVE",
"285 328 CURVE SMOOTH"
);
}
);
width = 1636;
}
);
},
{
glyphname = b_s.end;
lastChange = "2016-07-05 11:23:07 +0000";
layers = (
{
anchors = (
{
name = bottom_1;
position = "{374, 0}";
},
{
name = bottom_2;
position = "{1123, 0}";
},
{
name = caret_1;
position = "{748.5, 0}";
},
{
name = top_1;
position = "{374, 1024}";
},
{
name = top_2;
position = "{1123, 1024}";
}
);
layerId = "C039C1CC-9A8C-45EF-8573-4C10F390742F";
paths = (
{
closed = 1;
nodes = (
"1149 1047 LINE",
"1036 856 OFFCURVE",
"932 741 OFFCURVE",
"834 723 CURVE",
"821 950 OFFCURVE",
"725 1030 OFFCURVE",
"592 1030 CURVE SMOOTH",
"551 1030 OFFCURVE",
"508 1024 OFFCURVE",
"424 973 CURVE",
"522 1434 LINE",
"219 1393 LINE",
"0 367 LINE",
"-10 328 OFFCURVE",
"-14 289 OFFCURVE",
"-14 250 CURVE SMOOTH",
"-14 86 OFFCURVE",
"84 -12 OFFCURVE",
"272 -12 CURVE SMOOTH",
"674 -12 OFFCURVE",
"813 373 OFFCURVE",
"831 621 CURVE",
"950 662 OFFCURVE",
"1059 752 OFFCURVE",
"1155 897 CURVE",
"1178 518 OFFCURVE",
"1200 453 OFFCURVE",
"1200 340 CURVE SMOOTH",
"1200 195 OFFCURVE",
"1161 150 OFFCURVE",
"1071 150 CURVE SMOOTH",
"991 150 OFFCURVE",
"952 207 OFFCURVE",
"952 303 CURVE",
"963 281 OFFCURVE",
"985 276 OFFCURVE",
"1008 276 CURVE SMOOTH",
"1063 276 OFFCURVE",
"1106 319 OFFCURVE",
"1106 369 CURVE SMOOTH",
"1106 426 OFFCURVE",
"1071 455 OFFCURVE",
"999 455 CURVE SMOOTH",
"928 455 OFFCURVE",
"852 381 OFFCURVE",
"852 260 CURVE SMOOTH",
"852 135 OFFCURVE",
"893 -12 OFFCURVE",
"1137 -12 CURVE SMOOTH",
"1305 -12 OFFCURVE",
"1497 74 OFFCURVE",
"1497 342 CURVE SMOOTH",
"1497 479 OFFCURVE",
"1475 555 OFFCURVE",
"1452 1087 CURVE"
);
},
{
closed = 1;
nodes = (
"397 848 LINE",
"420 877 OFFCURVE",
"489 885 OFFCURVE",
"518 885 CURVE SMOOTH",
"569 885 OFFCURVE",
"602 838 OFFCURVE",
"616 776 CURVE",
"600 756 OFFCURVE",
"590 727 OFFCURVE",
"590 692 CURVE SMOOTH",
"590 653 OFFCURVE",
"600 627 OFFCURVE",
"623 610 CURVE",
"600 410 OFFCURVE",
"504 186 OFFCURVE",
"387 186 CURVE SMOOTH",
"315 186 OFFCURVE",
"279 217 OFFCURVE",
"279 281 CURVE SMOOTH",
"279 295 OFFCURVE",
"281 311 OFFCURVE",
"285 328 CURVE SMOOTH"
);
}
);
width = 1497;
}
);
},
{
glyphname = b_s_x;
lastChange = "2016-07-05 15:30:18 +0000";
layers = (
{
anchors = (
{
name = bottom_1;
position = "{391, 0}";
},
{
name = bottom_2;
position = "{1192, 0}";
},
{
name = bottom_3;
position = "{1953, 0}";
},
{
name = caret_1;
position = "{781, 0}";
},
{
name = caret_2;
position = "{1586, 0}";
},
{
name = top_1;
position = "{482, 1024}";
},
{
name = top_2;
position = "{1228, 1024}";
},
{
name = top_3;
position = "{2019, 1024}";
}
);
layerId = "C039C1CC-9A8C-45EF-8573-4C10F390742F";
paths = (
{
closed = 1;
nodes = (
"2343 367 LINE",
"2312 262 OFFCURVE",
"2238 186 OFFCURVE",
"2159 186 CURVE SMOOTH",
"2066 186 OFFCURVE",
"2054 291 OFFCURVE",
"2038 367 CURVE",
"2019 469 LINE",
"2222 682 OFFCURVE",
"2312 823 OFFCURVE",
"2312 956 CURVE SMOOTH",
"2312 1057 OFFCURVE",
"2265 1139 OFFCURVE",
"2173 1139 CURVE SMOOTH",
"2109 1139 OFFCURVE",
"2058 1106 OFFCURVE",
"2058 1042 CURVE SMOOTH",
"2058 979 OFFCURVE",
"2083 928 OFFCURVE",
"2154 928 CURVE SMOOTH",
"2165 928 OFFCURVE",
"2175 930 OFFCURVE",
"2189 932 CURVE",
"2191 926 OFFCURVE",
"2191 918 OFFCURVE",
"2191 907 CURVE SMOOTH",
"2191 834 OFFCURVE",
"2120 713 OFFCURVE",
"1997 582 CURVE",
"1917 1024 LINE",
"1628 1024 LINE",
"1743 399 LINE",
"1671 340 OFFCURVE",
"1573 287 OFFCURVE",
"1489 252 CURVE",
"1495 279 OFFCURVE",
"1497 309 OFFCURVE",
"1497 342 CURVE SMOOTH",
"1497 479 OFFCURVE",
"1475 555 OFFCURVE",
"1452 1087 CURVE",
"1149 1047 LINE",
"1036 856 OFFCURVE",
"932 741 OFFCURVE",
"834 723 CURVE",
"821 950 OFFCURVE",
"725 1030 OFFCURVE",
"592 1030 CURVE SMOOTH",
"551 1030 OFFCURVE",
"508 1024 OFFCURVE",
"424 973 CURVE",
"522 1434 LINE",
"219 1393 LINE",
"0 367 LINE",
"-10 328 OFFCURVE",
"-14 289 OFFCURVE",
"-14 250 CURVE SMOOTH",
"-14 86 OFFCURVE",
"84 -12 OFFCURVE",
"272 -12 CURVE SMOOTH",
"674 -12 OFFCURVE",
"813 373 OFFCURVE",
"831 621 CURVE",
"950 662 OFFCURVE",
"1059 752 OFFCURVE",
"1155 897 CURVE",
"1178 518 OFFCURVE",
"1200 453 OFFCURVE",
"1200 340 CURVE SMOOTH",
"1200 195 OFFCURVE",
"1161 150 OFFCURVE",
"1071 150 CURVE SMOOTH",
"991 150 OFFCURVE",
"952 207 OFFCURVE",
"952 303 CURVE",
"963 281 OFFCURVE",
"985 276 OFFCURVE",
"1008 276 CURVE SMOOTH",
"1063 276 OFFCURVE",
"1106 319 OFFCURVE",
"1106 369 CURVE SMOOTH",
"1106 426 OFFCURVE",
"1071 455 OFFCURVE",
"999 455 CURVE SMOOTH",
"928 455 OFFCURVE",
"852 381 OFFCURVE",
"852 260 CURVE SMOOTH",
"852 135 OFFCURVE",
"893 -12 OFFCURVE",
"1137 -12 CURVE SMOOTH",
"1245 -12 OFFCURVE",
"1362 25 OFFCURVE",
"1434 123 CURVE",
"1522 166 OFFCURVE",
"1659 219 OFFCURVE",
"1763 291 CURVE",
"1812 78 OFFCURVE",
"1868 -12 OFFCURVE",
"2007 -12 CURVE SMOOTH",
"2118 -12 OFFCURVE",
"2314 33 OFFCURVE",
"2429 367 CURVE"
);
},
{
closed = 1;
nodes = (
"397 848 LINE",
"420 877 OFFCURVE",
"489 885 OFFCURVE",
"518 885 CURVE SMOOTH",
"569 885 OFFCURVE",
"602 838 OFFCURVE",
"616 776 CURVE",
"600 756 OFFCURVE",
"590 727 OFFCURVE",
"590 692 CURVE SMOOTH",
"590 653 OFFCURVE",
"600 627 OFFCURVE",
"623 610 CURVE",
"600 410 OFFCURVE",
"504 186 OFFCURVE",
"387 186 CURVE SMOOTH",
"315 186 OFFCURVE",
"279 217 OFFCURVE",
"279 281 CURVE SMOOTH",
"279 295 OFFCURVE",
"281 311 OFFCURVE",
"285 328 CURVE SMOOTH"
);
}
);
width = 2343;
}
);
},
{
glyphname = b_s_z;
lastChange = "2016-07-05 15:30:27 +0000";
layers = (
{
anchors = (
{
name = bottom_1;
position = "{395, 0}";
},
{
name = bottom_2;
position = "{1186, 0}";
},
{
name = bottom_3;
position = "{1977, 0}";
},
{
name = caret_1;
position = "{790.667, 0}";
},
{
name = caret_2;
position = "{1581.333, 0}";
},
{
name = top_1;
position = "{395, 1024}";
},
{
name = top_2;
position = "{1241, 1024}";
},
{
name = top_3;
position = "{2035, 1024}";
}
);
layerId = "C039C1CC-9A8C-45EF-8573-4C10F390742F";
paths = (
{
closed = 1;
nodes = (
"1149 1047 LINE",
"1036 856 OFFCURVE",
"932 741 OFFCURVE",
"834 723 CURVE",
"821 950 OFFCURVE",
"725 1030 OFFCURVE",
"592 1030 CURVE SMOOTH",
"551 1030 OFFCURVE",
"508 1024 OFFCURVE",
"424 973 CURVE",
"522 1434 LINE",
"219 1393 LINE",
"0 367 LINE",
"-10 328 OFFCURVE",
"-14 289 OFFCURVE",
"-14 250 CURVE SMOOTH",
"-14 86 OFFCURVE",
"84 -12 OFFCURVE",
"272 -12 CURVE SMOOTH",
"674 -12 OFFCURVE",
"813 373 OFFCURVE",
"831 621 CURVE",
"950 662 OFFCURVE",
"1059 752 OFFCURVE",
"1155 897 CURVE",
"1178 518 OFFCURVE",
"1200 453 OFFCURVE",
"1200 340 CURVE SMOOTH",
"1200 195 OFFCURVE",
"1161 150 OFFCURVE",
"1071 150 CURVE SMOOTH",
"991 150 OFFCURVE",
"952 207 OFFCURVE",
"952 303 CURVE",
"963 281 OFFCURVE",
"985 276 OFFCURVE",
"1008 276 CURVE SMOOTH",
"1063 276 OFFCURVE",
"1106 319 OFFCURVE",
"1106 369 CURVE SMOOTH",
"1106 426 OFFCURVE",
"1071 455 OFFCURVE",
"999 455 CURVE SMOOTH",
"928 455 OFFCURVE",
"852 381 OFFCURVE",
"852 260 CURVE SMOOTH",
"852 135 OFFCURVE",
"893 -12 OFFCURVE",
"1137 -12 CURVE SMOOTH",
"1305 -12 OFFCURVE",
"1497 74 OFFCURVE",
"1497 342 CURVE SMOOTH",
"1497 479 OFFCURVE",
"1475 555 OFFCURVE",
"1452 1087 CURVE"
);
},
{
closed = 1;
nodes = (
"2038 0 LINE SMOOTH",
"2195 0 OFFCURVE",
"2288 125 OFFCURVE",
"2288 219 CURVE SMOOTH",
"2288 274 OFFCURVE",
"2261 317 OFFCURVE",
"2198 317 CURVE SMOOTH",
"2122 317 OFFCURVE",
"2083 268 OFFCURVE",
"2083 229 CURVE SMOOTH",
"2083 207 OFFCURVE",
"2095 188 OFFCURVE",
"2122 186 CURVE",
"2116 154 OFFCURVE",
"2075 145 OFFCURVE",
"2025 145 CURVE SMOOTH",
"1970 145 OFFCURVE",
"1905 156 OFFCURVE",
"1870 158 CURVE",
"2372 1024 LINE",
"1845 1024 LINE SMOOTH",
"1698 1024 OFFCURVE",
"1608 901 OFFCURVE",
"1608 817 CURVE SMOOTH",
"1608 758 OFFCURVE",
"1655 727 OFFCURVE",
"1702 727 CURVE SMOOTH",
"1757 727 OFFCURVE",
"1812 760 OFFCURVE",
"1812 836 CURVE SMOOTH",
"1812 883 OFFCURVE",
"1790 868 OFFCURVE",
"1790 881 CURVE SMOOTH",
"1790 911 OFFCURVE",
"1839 913 OFFCURVE",
"1903 913 CURVE SMOOTH",
"2017 913 LINE",
"1495 0 LINE"
);
},
{
closed = 1;
nodes = (
"397 848 LINE",
"420 877 OFFCURVE",
"489 885 OFFCURVE",
"518 885 CURVE SMOOTH",
"569 885 OFFCURVE",
"602 838 OFFCURVE",
"616 776 CURVE",
"600 756 OFFCURVE",
"590 727 OFFCURVE",
"590 692 CURVE SMOOTH",
"590 653 OFFCURVE",
"600 627 OFFCURVE",
"623 610 CURVE",
"600 410 OFFCURVE",
"504 186 OFFCURVE",
"387 186 CURVE SMOOTH",
"315 186 OFFCURVE",
"279 217 OFFCURVE",
"279 281 CURVE SMOOTH",
"279 295 OFFCURVE",
"281 311 OFFCURVE",
"285 328 CURVE SMOOTH"
);
}
);
width = 2372;
}
);
},
{
glyphname = brokenbar;
lastChange = "2016-06-30 17:42:54 +0000";
layers = (
{
layerId = "C039C1CC-9A8C-45EF-8573-4C10F390742F";
paths = (
{
closed = 1;
nodes = (
"639 -512 LINE",
"639 455 LINE",
"449 455 LINE",
"449 -512 LINE"
);
},
{
closed = 1;
nodes = (
"639 616 LINE",
"639 1538 LINE",
"449 1538 LINE",
"449 616 LINE"
);
}
);
width = 1090;
}
);
unicode = 00A6;
},
{
glyphname = bullet;
lastChange = "2016-06-30 17:42:54 +0000";
layers = (
{
layerId = "C039C1CC-9A8C-45EF-8573-4C10F390742F";
paths = (
{
closed = 1;
nodes = (
"641 547 CURVE SMOOTH",
"641 655 OFFCURVE",
"551 745 OFFCURVE",
"442 745 CURVE SMOOTH",
"334 745 OFFCURVE",
"246 655 OFFCURVE",
"246 547 CURVE SMOOTH",
"246 438 OFFCURVE",
"334 350 OFFCURVE",
"442 350 CURVE SMOOTH",
"551 350 OFFCURVE",
"641 438 OFFCURVE"
);
}
);
width = 889;
}
);
unicode = 2022;
},
{
glyphname = c.end;
lastChange = "2016-07-01 15:11:08 +0000";
layers = (
{
anchors = (
{
name = bottom;
position = "{349, 0}";
},
{
name = top;
position = "{349, 1024}";
}
);
layerId = "C039C1CC-9A8C-45EF-8573-4C10F390742F";
paths = (
{
closed = 1;
nodes = (
"631 291 CURVE",
"567 238 OFFCURVE",
"465 178 OFFCURVE",
"385 178 CURVE SMOOTH",
"313 178 OFFCURVE",
"262 219 OFFCURVE",
"262 348 CURVE SMOOTH",
"262 551 OFFCURVE",
"395 934 OFFCURVE",
"526 934 CURVE SMOOTH",
"565 934 OFFCURVE",
"582 899 OFFCURVE",
"582 850 CURVE SMOOTH",
"582 811 OFFCURVE",
"573 772 OFFCURVE",
"557 729 CURVE",
"580 713 OFFCURVE",
"602 705 OFFCURVE",
"629 705 CURVE SMOOTH",
"684 705 OFFCURVE",
"737 748 OFFCURVE",
"737 852 CURVE SMOOTH",
"737 948 OFFCURVE",
"690 1042 OFFCURVE",
"510 1042 CURVE SMOOTH",
"94 1042 OFFCURVE",
"-41 551 OFFCURVE",
"-41 313 CURVE SMOOTH",
"-41 82 OFFCURVE",
"86 -12 OFFCURVE",
"276 -12 CURVE SMOOTH",
"442 -12 OFFCURVE",
"588 55 OFFCURVE"
);
}
);
width = 698;
}
);
},
{
glyphname = c_x;
lastChange = "2016-07-05 15:30:40 +0000";
layers = (
{
anchors = (
{
name = bottom_1;
position = "{387, 0}";
},
{
name = bottom_2;
position = "{1221, 0}";
},
{
name = caret_1;
position = "{773, 0}";
},
{
name = top_1;
position = "{590, 1024}";
},
{
name = top_2;
position = "{1277, 1024}";
}
);
layerId = "C039C1CC-9A8C-45EF-8573-4C10F390742F";
paths = (
{
closed = 1;
nodes = (
"1546 367 LINE",
"1516 262 OFFCURVE",
"1442 186 OFFCURVE",
"1362 186 CURVE SMOOTH",
"1270 186 OFFCURVE",
"1257 291 OFFCURVE",
"1241 367 CURVE",
"1223 467 LINE",
"1430 690 OFFCURVE",
"1516 827 OFFCURVE",
"1516 961 CURVE SMOOTH",
"1516 1059 OFFCURVE",
"1468 1139 OFFCURVE",
"1372 1139 CURVE SMOOTH",
"1309 1139 OFFCURVE",
"1262 1106 OFFCURVE",
"1262 1034 CURVE SMOOTH",
"1262 983 OFFCURVE",
"1284 928 OFFCURVE",
"1356 928 CURVE SMOOTH",
"1370 928 OFFCURVE",
"1378 930 OFFCURVE",
"1393 932 CURVE",
"1395 926 OFFCURVE",
"1395 918 OFFCURVE",
"1395 907 CURVE SMOOTH",
"1395 834 OFFCURVE",
"1323 713 OFFCURVE",
"1200 582 CURVE",
"1120 1024 LINE",
"831 1024 LINE",
"948 389 LINE",
"811 236 OFFCURVE",
"616 156 OFFCURVE",
"469 156 CURVE SMOOTH",
"354 156 OFFCURVE",
"262 205 OFFCURVE",
"262 358 CURVE SMOOTH",
"262 545 OFFCURVE",
"395 934 OFFCURVE",
"526 934 CURVE SMOOTH",
"565 934 OFFCURVE",
"582 899 OFFCURVE",
"582 850 CURVE SMOOTH",
"582 811 OFFCURVE",
"573 772 OFFCURVE",
"557 729 CURVE",
"580 713 OFFCURVE",
"602 705 OFFCURVE",
"629 705 CURVE SMOOTH",
"684 705 OFFCURVE",
"737 748 OFFCURVE",
"737 852 CURVE SMOOTH",
"737 948 OFFCURVE",
"690 1042 OFFCURVE",
"510 1042 CURVE SMOOTH",
"92 1042 OFFCURVE",
"-41 545 OFFCURVE",
"-41 324 CURVE SMOOTH",
"-41 76 OFFCURVE",
"125 -12 OFFCURVE",
"324 -12 CURVE SMOOTH",
"543 -12 OFFCURVE",
"797 96 OFFCURVE",
"971 270 CURVE",
"1014 72 OFFCURVE",
"1077 -12 OFFCURVE",
"1217 -12 CURVE SMOOTH",
"1319 -12 OFFCURVE",
"1518 33 OFFCURVE",
"1632 367 CURVE"
);
}
);
width = 1546;
}
);
},
{
glyphname = c_z;
lastChange = "2016-07-05 15:30:50 +0000";
layers = (
{
anchors = (
{
name = bottom_1;
position = "{394, 0}";
},
{
name = bottom_2;
position = "{1181, 0}";
},
{
name = caret_1;
position = "{787.5, 0}";
},
{
name = top_1;
position = "{533, 1024}";
},
{
name = top_2;
position = "{1297, 1024}";
}
);
layerId = "C039C1CC-9A8C-45EF-8573-4C10F390742F";
paths = (
{
closed = 1;
nodes = (
"1241 0 LINE SMOOTH",
"1399 0 OFFCURVE",
"1491 125 OFFCURVE",
"1491 219 CURVE SMOOTH",
"1491 274 OFFCURVE",
"1464 317 OFFCURVE",
"1401 317 CURVE SMOOTH",
"1325 317 OFFCURVE",
"1286 268 OFFCURVE",
"1286 229 CURVE SMOOTH",
"1286 207 OFFCURVE",
"1298 188 OFFCURVE",
"1325 186 CURVE",
"1317 145 OFFCURVE",
"1292 133 OFFCURVE",
"1260 133 CURVE SMOOTH",
"1200 133 OFFCURVE",
"1149 158 OFFCURVE",
"1073 158 CURVE",
"1575 1024 LINE",
"1090 1024 LINE SMOOTH",
"942 1024 OFFCURVE",
"852 901 OFFCURVE",
"852 817 CURVE SMOOTH",
"852 758 OFFCURVE",
"899 727 OFFCURVE",
"946 727 CURVE SMOOTH",
"1001 727 OFFCURVE",
"1057 760 OFFCURVE",
"1057 836 CURVE SMOOTH",
"1057 883 OFFCURVE",
"1034 868 OFFCURVE",
"1034 881 CURVE SMOOTH",
"1034 911 OFFCURVE",
"1083 913 OFFCURVE",
"1147 913 CURVE SMOOTH",
"1221 913 LINE",
"698 0 LINE"
);
},
{
closed = 1;
nodes = (
"631 291 CURVE",
"567 238 OFFCURVE",
"465 178 OFFCURVE",
"385 178 CURVE SMOOTH",
"313 178 OFFCURVE",
"262 219 OFFCURVE",
"262 348 CURVE SMOOTH",
"262 551 OFFCURVE",
"395 934 OFFCURVE",
"526 934 CURVE SMOOTH",
"565 934 OFFCURVE",
"582 899 OFFCURVE",
"582 850 CURVE SMOOTH",
"582 811 OFFCURVE",
"573 772 OFFCURVE",
"557 729 CURVE",
"580 713 OFFCURVE",
"602 705 OFFCURVE",
"629 705 CURVE SMOOTH",
"684 705 OFFCURVE",
"737 748 OFFCURVE",
"737 852 CURVE SMOOTH",
"737 948 OFFCURVE",
"690 1042 OFFCURVE",
"510 1042 CURVE SMOOTH",
"94 1042 OFFCURVE",
"-41 551 OFFCURVE",
"-41 313 CURVE SMOOTH",
"-41 82 OFFCURVE",
"86 -12 OFFCURVE",
"276 -12 CURVE SMOOTH",
"442 -12 OFFCURVE",
"588 55 OFFCURVE"
);
}
);
width = 1575;
}
);
},
{
glyphname = cacute;
lastChange = "2016-06-30 17:42:54 +0000";
layers = (
{
layerId = "C039C1CC-9A8C-45EF-8573-4C10F390742F";
paths = (
{
closed = 1;
nodes = (
"786 367 LINE",
"682 252 OFFCURVE",
"586 160 OFFCURVE",
"424 160 CURVE SMOOTH",
"326 160 OFFCURVE",
"276 193 OFFCURVE",
"276 332 CURVE SMOOTH",
"276 559 OFFCURVE",
"410 934 OFFCURVE",
"539 934 CURVE SMOOTH",
"578 934 OFFCURVE",
"596 901 OFFCURVE",
"596 850 CURVE SMOOTH",
"596 815 OFFCURVE",
"588 774 OFFCURVE",
"571 729 CURVE",
"596 713 OFFCURVE",
"621 705 OFFCURVE",
"643 705 CURVE SMOOTH",
"702 705 OFFCURVE",
"752 754 OFFCURVE",
"752 854 CURVE SMOOTH",
"752 946 OFFCURVE",
"705 1042 OFFCURVE",
"524 1042 CURVE SMOOTH",
"109 1042 OFFCURVE",
"-27 551 OFFCURVE",
"-27 313 CURVE SMOOTH",
"-27 82 OFFCURVE",
"98 -12 OFFCURVE",
"293 -12 CURVE SMOOTH",
"563 -12 OFFCURVE",
"741 176 OFFCURVE",
"856 367 CURVE"
);
},
{
closed = 1;
nodes = (
"653 1149 LINE",
"901 1536 LINE",
"686 1536 LINE",
"500 1149 LINE"
);
}
);
width = 786;
}
);
unicode = 0107;
},
{
glyphname = caron;
lastChange = "2016-07-01 13:20:33 +0000";
layers = (
{
anchors = (
{
name = Bottom;
position = "{346, 1059}";
}
);
layerId = "C039C1CC-9A8C-45EF-8573-4C10F390742F";
paths = (
{
closed = 1;
nodes = (
"805 1536 LINE",
"715 1536 LINE",
"393 1372 LINE",
"270 1536 LINE",
"205 1536 LINE",
"328 1149 LINE",
"371 1149 LINE"
);
}
);
width = 602;
}
);
unicode = 02C7;
},
{
glyphname = ccaron;
lastChange = "2016-06-30 17:42:54 +0000";
layers = (
{
layerId = "C039C1CC-9A8C-45EF-8573-4C10F390742F";
paths = (
{
closed = 1;
nodes = (
"786 367 LINE",
"682 252 OFFCURVE",
"586 160 OFFCURVE",
"424 160 CURVE SMOOTH",
"326 160 OFFCURVE",
"276 193 OFFCURVE",
"276 332 CURVE SMOOTH",
"276 559 OFFCURVE",
"410 934 OFFCURVE",
"539 934 CURVE SMOOTH",
"578 934 OFFCURVE",
"596 901 OFFCURVE",
"596 850 CURVE SMOOTH",
"596 815 OFFCURVE",
"588 774 OFFCURVE",
"571 729 CURVE",
"596 713 OFFCURVE",
"621 705 OFFCURVE",
"643 705 CURVE SMOOTH",
"702 705 OFFCURVE",
"752 754 OFFCURVE",
"752 854 CURVE SMOOTH",
"752 946 OFFCURVE",
"705 1042 OFFCURVE",
"524 1042 CURVE SMOOTH",
"109 1042 OFFCURVE",
"-27 551 OFFCURVE",
"-27 313 CURVE SMOOTH",
"-27 82 OFFCURVE",
"98 -12 OFFCURVE",
"293 -12 CURVE SMOOTH",
"563 -12 OFFCURVE",
"741 176 OFFCURVE",
"856 367 CURVE"
);
},
{
closed = 1;
nodes = (
"1002 1536 LINE",
"912 1536 LINE",
"590 1372 LINE",
"467 1536 LINE",
"402 1536 LINE",
"525 1149 LINE",
"568 1149 LINE"
);
}
);
width = 786;
}
);
unicode = 010D;
},
{
glyphname = ccedilla;
lastChange = "2016-06-30 17:42:54 +0000";
layers = (
{
layerId = "C039C1CC-9A8C-45EF-8573-4C10F390742F";
paths = (
{
closed = 1;
nodes = (
"268 -244 LINE",
"291 -233 OFFCURVE",
"319 -219 OFFCURVE",
"375 -219 CURVE SMOOTH",
"432 -219 OFFCURVE",
"455 -254 OFFCURVE",
"455 -293 CURVE SMOOTH",
"455 -336 OFFCURVE",
"428 -379 OFFCURVE",
"393 -379 CURVE SMOOTH",
"334 -379 OFFCURVE",
"324 -324 OFFCURVE",
"242 -324 CURVE SMOOTH",
"203 -324 OFFCURVE",
"178 -356 OFFCURVE",
"160 -389 CURVE",
"219 -420 OFFCURVE",
"274 -446 OFFCURVE",
"379 -446 CURVE SMOOTH",
"500 -446 OFFCURVE",
"625 -369 OFFCURVE",
"625 -221 CURVE SMOOTH",
"625 -158 OFFCURVE",
"586 -119 OFFCURVE",
"498 -119 CURVE SMOOTH",
"469 -119 OFFCURVE",
"432 -125 OFFCURVE",
"389 -135 CURVE",
"449 10 LINE",
"633 66 OFFCURVE",
"764 215 OFFCURVE",
"856 367 CURVE",
"786 367 LINE",
"682 252 OFFCURVE",
"586 160 OFFCURVE",
"424 160 CURVE SMOOTH",
"326 160 OFFCURVE",
"276 193 OFFCURVE",
"276 332 CURVE SMOOTH",
"276 559 OFFCURVE",
"410 934 OFFCURVE",
"539 934 CURVE SMOOTH",
"578 934 OFFCURVE",
"596 901 OFFCURVE",
"596 850 CURVE SMOOTH",
"596 815 OFFCURVE",
"588 774 OFFCURVE",
"571 729 CURVE",
"596 713 OFFCURVE",
"621 705 OFFCURVE",
"643 705 CURVE SMOOTH",
"702 705 OFFCURVE",
"752 754 OFFCURVE",
"752 854 CURVE SMOOTH",
"752 946 OFFCURVE",
"705 1042 OFFCURVE",
"524 1042 CURVE SMOOTH",
"109 1042 OFFCURVE",
"-27 551 OFFCURVE",
"-27 313 CURVE SMOOTH",
"-27 82 OFFCURVE",
"98 -12 OFFCURVE",
"293 -12 CURVE SMOOTH",
"313 -12 OFFCURVE",
"334 -10 OFFCURVE",
"352 -8 CURVE"
);
}
);
width = 786;
}
);
unicode = 00E7;
},
